<?xml version="1.0" standalone="no"?>
<!DOCTYPE svg PUBLIC "-//W3C//DTD SVG 1.1//EN" "http://www.w3.org/Graphics/SVG/1.1/DTD/svg11.dtd" >
<svg>
<metadata>
Created by FontForge 20120731 at Mon May 19 02:12:15 2014
 By World Wide Web Server
Copyright (c) 2012 by Svet Simov. All rights reserved.
</metadata>
<defs>
<font id="KelsonSans-RegularRU" horiz-adv-x="524" >
  <font-face 
    font-family="Kelson Sans RU"
    font-weight="400"
    font-stretch="normal"
    units-per-em="1000"
    panose-1="2 0 5 0 0 0 0 0 0 0"
    ascent="750"
    descent="-250"
    x-height="581"
    cap-height="772"
    bbox="-133 -252.334 1109 988"
    underline-thickness="50"
    underline-position="-50"
    stemh="91"
    stemv="96"
    unicode-range="U+000D-FB02"
  />
<missing-glyph horiz-adv-x="628" 
d="M42 773h538v-773h-538v773zM157 504h71c0 72 22 96 90 96c61 0 87 -28 88 -115c0 -4 0 29 0 -1c0 -147 -147 -64 -147 -247h72c0 143 150 64 150 248v2c0 126 -58 182 -161 182c-145 0 -163 -82 -163 -165zM250 145c0 -60 90 -55 90 0c0 60 -90 57 -90 0z" />
    <glyph glyph-name=".notdef" horiz-adv-x="628" 
d="M42 773h538v-773h-538v773zM157 504h71c0 72 22 96 90 96c61 0 87 -28 88 -115c0 -4 0 29 0 -1c0 -147 -147 -64 -147 -247h72c0 143 150 64 150 248v2c0 126 -58 182 -161 182c-145 0 -163 -82 -163 -165zM250 145c0 -60 90 -55 90 0c0 60 -90 57 -90 0z" />
    <glyph glyph-name=".null" horiz-adv-x="0" 
 />
    <glyph glyph-name="CR" unicode="&#xd;" horiz-adv-x="268" 
 />
    <glyph glyph-name="space" unicode=" " horiz-adv-x="251" 
 />
    <glyph glyph-name="Aogonek" unicode="&#x104;" 
d="M515 0c-50 -20 -71 -58 -71 -73c0 -27 18 -33 35 -33c14 0 28 1 36 2v-85c-71 -4 -160 3 -160 85c0 49 36 84 74 104h-12l-39 143h-231l-39 -143h-99l205 769h97zM313 397l-51 248l-52 -251l-39 -161h182z" />
    <glyph glyph-name="Aringacute" unicode="&#x1fa;" horiz-adv-x="516" 
d="M294 988h108l-101 -82h-79v4zM155 781c0 68 52 101 107 101c53 0 108 -32 108 -100c0 -39 -17 -64 -41 -82l186 -700h-98l-39 143h-231l-39 -143h-99l186 699c-25 17 -41 43 -40 82zM313 397l-51 248l-52 -251l-39 -161h182zM262 823c-61 0 -61 -84 0 -84
c64 0 62 84 0 84z" />
    <glyph glyph-name="AEacute" unicode="&#x1fc;" horiz-adv-x="742" 
d="M478 817h-76v4l53 117h94v-3zM309 772h398v-81h-262v-235h246v-85h-246v-286h271v-85h-359v184h-188l-70 -184h-97zM201 269h156v416l-60 -172z" />
    <glyph glyph-name="B" unicode="B" horiz-adv-x="573" 
d="M60 -1v775h194c137 0 209 -81 209 -200c0 -64 -18 -107 -55 -145c84 -26 129 -95 129 -194c0 -164 -92 -236 -249 -236h-228zM157 90h133c116 0 150 56 150 144c0 98 -57 131 -147 131h-136v-275zM254 685h-99v-229h89c92 0 122 62 122 118c0 75 -48 111 -112 111z" />
    <glyph glyph-name="C" unicode="C" horiz-adv-x="590" 
d="M546 554h-93c-1 93 -20 135 -148 135c-134 0 -150 -48 -150 -170v-264c0 -122 20 -170 150 -170s150 29 150 151h91c0 -149 -16 -241 -241 -241s-246 92 -246 261v262c0 169 40 260 246 260c200 0 239 -75 241 -224z" />
    <glyph glyph-name="Cacute" unicode="&#x106;" horiz-adv-x="580" 
d="M536 554h-93c-1 93 -20 135 -148 135c-134 0 -150 -48 -150 -170v-264c0 -122 20 -170 150 -170s150 29 150 151h91c0 -149 -16 -241 -241 -241s-246 92 -246 261v262c0 169 40 260 246 260c200 0 239 -75 241 -224zM332 835h-76v5l53 127h94v-3z" />
    <glyph glyph-name="Ccaron" unicode="&#x10c;" horiz-adv-x="580" 
d="M536 554h-93c-1 93 -20 135 -148 135c-134 0 -150 -48 -150 -170v-264c0 -122 20 -170 150 -170s150 29 150 151h91c0 -149 -16 -241 -241 -241s-246 92 -246 261v262c0 169 40 260 246 260c200 0 239 -75 241 -224zM335 826h-58l-125 114v7h94l58 -53l59 53h94v-7z" />
    <glyph glyph-name="Ccircumflex" unicode="&#x108;" horiz-adv-x="580" 
d="M536 554h-93c-1 93 -20 135 -148 135c-134 0 -150 -48 -150 -170v-264c0 -122 20 -170 150 -170s150 29 150 151h91c0 -149 -16 -241 -241 -241s-246 92 -246 261v262c0 169 40 260 246 260c200 0 239 -75 241 -224zM269 956h57l124 -122v-7h-93l-57 57l-58 -57h-93v7z
" />
    <glyph glyph-name="Cdotaccent" unicode="&#x10a;" horiz-adv-x="580" 
d="M252 883c0 72 113 72 113 1c0 -72 -113 -72 -113 -1zM536 554h-93c-1 93 -20 135 -148 135c-134 0 -150 -48 -150 -170v-264c0 -122 20 -170 150 -170s150 29 150 151h91c0 -149 -16 -241 -241 -241s-246 92 -246 261v262c0 169 40 260 246 260c200 0 239 -75 241 -224z
" />
    <glyph glyph-name="D" unicode="D" horiz-adv-x="601" 
d="M166 91h132c144 0 154 45 154 167v256c0 122 -10 167 -154 167h-132v-590zM298 0h-227v771h234c206 0 243 -91 243 -258v-254c0 -168 -38 -261 -250 -259z" />
    <glyph glyph-name="Dcaron" unicode="&#x10e;" horiz-adv-x="595" 
d="M160 91h132c144 0 154 45 154 167v256c0 122 -10 167 -154 167h-132v-590zM292 0h-227v771h234c206 0 243 -91 243 -258v-254c0 -168 -38 -261 -250 -259zM311 818h-57l-124 122v7h93l57 -57l58 57h93v-7z" />
    <glyph glyph-name="Dcroat" unicode="&#x110;" horiz-adv-x="606" 
d="M303 0h-227v343h-73v78h73v350h234c206 0 243 -91 243 -258v-254c0 -168 -38 -261 -250 -259zM171 91h132c144 0 154 45 154 167v256c0 122 -10 167 -154 167h-132v-260h119v-78h-119v-252z" />
    <glyph glyph-name="E" unicode="E" horiz-adv-x="521" 
d="M70 772h389v-84h-294v-232h266v-89h-266v-278h319v-89h-414v772z" />
    <glyph glyph-name="Ebreve" unicode="&#x114;" horiz-adv-x="509" 
d="M58 772h389v-84h-294v-232h266v-89h-266v-278h319v-89h-414v772zM261 826c-91 0 -131 44 -127 131h71c0 -37 6 -65 56 -65s55 28 55 65h71c4 -87 -35 -131 -126 -131z" />
    <glyph glyph-name="Ecaron" unicode="&#x11a;" horiz-adv-x="509" 
d="M58 772h389v-84h-294v-232h266v-89h-266v-278h319v-89h-414v772zM289 822h-56l-121 114v7h91l56 -53l57 53h91v-7z" />
    <glyph glyph-name="Edotaccent" unicode="&#x116;" horiz-adv-x="509" 
d="M208 875c0 69 110 69 110 0s-110 -69 -110 0zM58 772h389v-84h-294v-232h266v-89h-266v-278h319v-89h-414v772z" />
    <glyph glyph-name="Emacron" unicode="&#x112;" horiz-adv-x="509" 
d="M146 914h223v-73h-223v73zM58 772h389v-84h-294v-232h266v-89h-266v-278h319v-89h-414v772z" />
    <glyph glyph-name="Eogonek" unicode="&#x118;" horiz-adv-x="521" 
d="M70 772h389v-84h-294v-232h266v-89h-266v-278h319v-89c-50 -20 -71 -58 -71 -73c0 -27 18 -33 35 -33c14 0 28 1 36 2v-85c-71 -4 -160 3 -160 85c0 49 36 84 74 104h-328v772z" />
    <glyph glyph-name="F" unicode="F" horiz-adv-x="515" 
d="M483 683h-319v-236h277v-89h-277v-359h-95v772h414v-88z" />
    <glyph glyph-name="G" unicode="G" horiz-adv-x="611" 
d="M554 564h-93c-2 89 -26 130 -154 130s-154 -48 -154 -173v-270c0 -122 10 -170 154 -170s154 29 154 151v105h-150v86h246v-191c0 -149 -18 -240 -250 -240c-212 0 -250 91 -250 260v268c0 169 38 260 250 260c202 0 243 -64 247 -216z" />
    <glyph glyph-name="Gbreve" unicode="&#x11e;" horiz-adv-x="597" 
d="M552 564h-93c-2 89 -26 130 -154 130s-154 -48 -154 -173v-270c0 -122 10 -170 154 -170s154 29 154 151v105h-150v86h246v-191c0 -149 -18 -240 -250 -240c-212 0 -250 91 -250 260v268c0 169 38 260 250 260c202 0 243 -64 247 -216zM309 824c-91 0 -131 44 -127 131
h71c0 -37 6 -65 56 -65s55 28 55 65h71c4 -87 -35 -131 -126 -131z" />
    <glyph glyph-name="Gcircumflex" unicode="&#x11c;" horiz-adv-x="601" 
d="M550 564h-93c-2 89 -26 130 -154 130s-154 -48 -154 -173v-270c0 -122 10 -170 154 -170s154 29 154 151v105h-150v86h246v-191c0 -149 -18 -240 -250 -240c-212 0 -250 91 -250 260v268c0 169 38 260 250 260c202 0 243 -64 247 -216zM285 948h57l124 -122v-7h-93
l-57 57l-58 -57h-93v7z" />
    <glyph glyph-name="Gcommaaccent" unicode="&#x122;" horiz-adv-x="603" 
d="M556 564h-93c-2 89 -26 130 -154 130s-154 -48 -154 -173v-270c0 -122 10 -170 154 -170s154 29 154 151v105h-150v86h246v-191c0 -149 -18 -240 -250 -240c-212 0 -250 91 -250 260v268c0 169 38 260 250 260c202 0 243 -64 247 -216zM238 -247l-34 45
c64 38 67 80 67 145h93c0 -104 -35 -151 -126 -190z" />
    <glyph glyph-name="Gdotaccent" unicode="&#x120;" horiz-adv-x="601" 
d="M253 882c0 68 109 68 109 0c0 -67 -109 -67 -109 0zM550 564h-93c-2 89 -26 130 -154 130s-154 -48 -154 -173v-270c0 -122 10 -170 154 -170s154 29 154 151v105h-150v86h246v-191c0 -149 -18 -240 -250 -240c-212 0 -250 91 -250 260v268c0 169 38 260 250 260
c202 0 243 -64 247 -216z" />
    <glyph glyph-name="H" unicode="H" horiz-adv-x="589" 
d="M520 0h-95v323h-258v-324h-97v770h97v-355h258v355h95v-769z" />
    <glyph glyph-name="Hbar" unicode="&#x126;" horiz-adv-x="584" 
d="M520 0h-95v323h-258v-324h-97v561h-63v60h63v149h97v-149h258v149h95v-149h61v-60h-61v-560zM167 414h258v146h-258v-146z" />
    <glyph glyph-name="Hcircumflex" unicode="&#x124;" horiz-adv-x="581" 
d="M520 0h-95v323h-258v-324h-97v770h97v-355h258v355h95v-769zM271 953h57l124 -122v-7h-93l-57 57l-58 -57h-93v7z" />
    <glyph glyph-name="I" unicode="I" horiz-adv-x="237" 
d="M167 -1h-97v770h97v-770z" />
    <glyph glyph-name="IJ" unicode="&#x132;" horiz-adv-x="752" 
d="M173 -1h-97v770h97v-770zM466 -6c-170 0 -207 88 -207 237h90c0 -105 23 -146 119 -146c100 0 110 48 110 170v517h96v-516c0 -169 -31 -262 -208 -262z" />
    <glyph glyph-name="Ibreve" unicode="&#x12c;" horiz-adv-x="237" 
d="M167 -1h-97v770h97v-770zM123 813c-90 0 -129 41 -125 123h69c0 -35 6 -61 56 -61c49 0 54 26 54 61h70c4 -82 -35 -123 -124 -123z" />
    <glyph glyph-name="Idotaccent" unicode="&#x130;" horiz-adv-x="237" 
d="M61 872c0 72 117 72 117 -1c0 -72 -117 -72 -117 1zM167 -1h-97v770h97v-770z" />
    <glyph glyph-name="Imacron" unicode="&#x12a;" horiz-adv-x="237" 
d="M16 908h202v-72h-202v72zM167 -1h-97v770h97v-770z" />
    <glyph glyph-name="Iogonek" unicode="&#x12e;" horiz-adv-x="237" 
d="M167 -1h-31c-43 -6 -61 -30 -55 -53c5 -20 26 -28 46 -28c22 0 44 8 66 36l52 -37c-25 -50 -67 -74 -116 -76c-66 -2 -112 31 -123 81c-8 40 7 96 64 119v728h97v-770z" />
    <glyph glyph-name="Itilde" unicode="&#x128;" horiz-adv-x="237" 
d="M167 -1h-97v770h97v-770zM44 823l-50 26c13 60 60 91 111 71l41 -21c19 -8 37 -5 47 26l51 -23c-12 -71 -62 -93 -105 -74l-40 20c-20 8 -44 7 -55 -25z" />
    <glyph glyph-name="J" unicode="J" horiz-adv-x="483" 
d="M215 -6c-170 0 -207 88 -207 237h90c0 -105 23 -146 119 -146c100 0 110 48 110 170v517h96v-516c0 -169 -31 -262 -208 -262z" />
    <glyph glyph-name="Jcircumflex" unicode="&#x134;" horiz-adv-x="499" 
d="M237 -6c-170 0 -207 88 -207 237h90c0 -105 23 -146 119 -146c100 0 110 48 110 170v517h96v-516c0 -169 -31 -262 -208 -262zM366 944h57l124 -122v-7h-93l-57 57l-58 -57h-93v7z" />
    <glyph glyph-name="K" unicode="K" horiz-adv-x="564" 
d="M560 0h-117l-246 332h-37v-332h-95v771h95v-340h37l230 340h112l-266 -386z" />
    <glyph glyph-name="Kcommaaccent" unicode="&#x136;" horiz-adv-x="556" 
d="M560 0h-117l-246 332h-37v-332h-95v771h95v-340h37l230 340h112l-266 -386zM239 -206l-30 43c57 36 60 76 60 137h83c0 -98 -31 -142 -113 -180z" />
    <glyph glyph-name="L" unicode="L" horiz-adv-x="491" 
d="M467 0h-397v771h96v-683h301v-88z" />
    <glyph glyph-name="Lacute" unicode="&#x139;" horiz-adv-x="491" 
d="M467 0h-397v771h96v-683h301v-88zM154 823h-76v5l53 127h94v-3z" />
    <glyph glyph-name="Lcaron" unicode="&#x13d;" horiz-adv-x="491" 
d="M350 770h85l-64 -177h-64zM467 0h-397v771h96v-683h301v-88z" />
    <glyph glyph-name="Lcommaaccent" unicode="&#x13b;" horiz-adv-x="491" 
d="M467 0h-397v771h96v-683h301v-88zM212 -227l-30 43c57 36 60 76 60 137h83c0 -98 -31 -142 -113 -180z" />
    <glyph glyph-name="Ldot" unicode="&#x13f;" horiz-adv-x="491" 
d="M258 372c0 74 112 74 112 0s-112 -74 -112 0zM467 0h-397v771h96v-683h301v-88z" />
    <glyph glyph-name="Lslash" unicode="&#x141;" horiz-adv-x="491" 
d="M12 277v73l58 26v395h96v-352l156 71v-73l-156 -71v-258h301v-88h-397v303z" />
    <glyph glyph-name="M" unicode="M" horiz-adv-x="629" 
d="M179 772l136 -424l136 424h109v-772h-95v363l14 211l-141 -433h-46l-141 433l14 -211v-363h-95v772h109z" />
    <glyph glyph-name="N" unicode="N" horiz-adv-x="570" 
d="M159 771l261 -590l-14 262v328h95v-771h-89l-254 554l6 -253v-301h-95v771h90z" />
    <glyph glyph-name="Nacute" unicode="&#x143;" horiz-adv-x="550" 
d="M153 771l261 -590l-14 262v328h95v-771h-89l-254 554l6 -253v-301h-95v771h90zM310 809h-76v5l53 127h94v-3z" />
    <glyph glyph-name="Ncaron" unicode="&#x147;" horiz-adv-x="550" 
d="M153 771l261 -590l-14 262v328h95v-771h-89l-254 554l6 -253v-301h-95v771h90zM307 816h-57l-124 122v7h93l57 -57l58 57h93v-7z" />
    <glyph glyph-name="Ncommaaccent" unicode="&#x145;" horiz-adv-x="550" 
d="M153 771l261 -590l-14 262v328h95v-771h-89l-254 554l6 -253v-301h-95v771h90zM222 -227l-30 43c57 36 60 76 60 137h83c0 -98 -31 -142 -113 -180z" />
    <glyph glyph-name="Eng" unicode="&#x14a;" horiz-adv-x="551" 
d="M153 771l261 -590l-14 262v328h95v-795c1 -113 -36 -182 -146 -182c-16 0 -31 2 -45 6l18 73c8 -1 16 -2 24 -2c60 1 69 43 69 104v17l-263 562l6 -253v-301h-95v771h90z" />
    <glyph glyph-name="O" unicode="O" horiz-adv-x="621" 
d="M559 522v-269c0 -169 -38 -260 -250 -260s-250 91 -250 260v269c0 169 38 260 250 260s250 -91 250 -260zM463 252v271c0 122 -10 172 -154 172s-154 -50 -154 -172v-271c0 -122 10 -170 154 -170s154 48 154 170z" />
    <glyph glyph-name="Obreve" unicode="&#x14e;" horiz-adv-x="596" 
d="M551 522v-269c0 -169 -38 -260 -250 -260s-250 91 -250 260v269c0 169 38 260 250 260s250 -91 250 -260zM455 252v271c0 122 -10 172 -154 172s-154 -50 -154 -172v-271c0 -122 10 -170 154 -170s154 48 154 170zM307 831c-91 0 -131 44 -127 131h71c0 -37 6 -65 56 -65
s55 28 55 65h71c4 -87 -35 -131 -126 -131z" />
    <glyph glyph-name="Ohungarumlaut" unicode="&#x150;" horiz-adv-x="596" 
d="M551 522v-269c0 -169 -38 -260 -250 -260s-250 91 -250 260v269c0 169 38 260 250 260s250 -91 250 -260zM455 252v271c0 122 -10 172 -154 172s-154 -50 -154 -172v-271c0 -122 10 -170 154 -170s154 48 154 170zM192 835l65 114h94v-2l-79 -112h-80zM346 834l65 115h94
v-2l-78 -113h-81z" />
    <glyph glyph-name="Omacron" unicode="&#x14c;" horiz-adv-x="596" 
d="M194 921h224v-73h-224v73zM551 522v-269c0 -169 -38 -260 -250 -260s-250 91 -250 260v269c0 169 38 260 250 260s250 -91 250 -260zM455 252v271c0 122 -10 172 -154 172s-154 -50 -154 -172v-271c0 -122 10 -170 154 -170s154 48 154 170z" />
    <glyph glyph-name="Oslashacute" unicode="&#x1fe;" horiz-adv-x="596" 
d="M551 522v-269c0 -169 -38 -260 -250 -260c-44 0 -80 4 -110 11l-30 -80h-80l42 111c-58 42 -72 115 -72 218v269c0 169 38 260 250 260c39 0 72 -4 100 -10l32 84h80l-42 -110c65 -41 80 -117 80 -224zM455 252v271c0 57 -3 99 -20 127l-212 -561c20 -5 46 -7 78 -7
c144 0 154 48 154 170zM147 252c0 -51 1 -89 14 -116l209 553c-19 4 -42 6 -69 6c-144 0 -154 -50 -154 -172v-271zM339 840h-77v4l54 115h94v-3z" />
    <glyph glyph-name="P" unicode="P" horiz-adv-x="538" 
d="M70 771l207 1c135 0 219 -55 219 -210v-84c0 -159 -61 -223 -219 -223h-112v-256h-95v772zM277 682h-112v-336h112c85 0 124 26 124 132v84c0 106 -39 115 -124 120z" />
    <glyph glyph-name="Thorn" unicode="&#xde;" horiz-adv-x="530" 
d="M70 771h95v-122h112c135 0 219 -55 219 -210v-84c0 -159 -61 -223 -219 -223h-112v-132h-95v771zM277 559h-112v-336h112c85 0 124 26 124 132v84c0 106 -38 120 -124 120z" />
    <glyph glyph-name="Q" unicode="Q" horiz-adv-x="619" 
d="M559 521v-263c0 -135 -24 -221 -143 -249c5 -68 30 -117 134 -104v-85c-147 -12 -225 44 -229 178h-12c-212 0 -250 91 -250 260v263c0 169 38 260 250 260s250 -91 250 -260zM463 257v265c0 122 -10 170 -154 170s-154 -48 -154 -170v-265c0 -122 10 -170 154 -170
s154 48 154 170z" />
    <glyph glyph-name="R" unicode="R" horiz-adv-x="540" 
d="M496 508c0 -123 -37 -196 -144 -217l167 -291h-112l-155 285h-87v-286h-95v773l207 1c135 0 219 -56 219 -211v-54zM277 682h-112v-306h112c85 0 124 26 124 132v54c0 106 -39 115 -124 120z" />
    <glyph glyph-name="Racute" unicode="&#x154;" horiz-adv-x="540" 
d="M496 508c0 -123 -37 -196 -144 -217l167 -291h-112l-155 285h-87v-286h-95v773l207 1c135 0 219 -56 219 -211v-54zM277 682h-112v-306h112c85 0 124 26 124 132v54c0 106 -39 115 -124 120zM298 834h-76v5l53 127h94v-3z" />
    <glyph glyph-name="Rcaron" unicode="&#x158;" horiz-adv-x="540" 
d="M496 508c0 -123 -37 -196 -144 -217l167 -291h-112l-155 285h-87v-286h-95v773l207 1c135 0 219 -56 219 -211v-54zM277 682h-112v-306h112c85 0 124 26 124 132v54c0 106 -39 115 -124 120zM300 825h-57l-124 122v7h93l57 -57l58 57h93v-7z" />
    <glyph glyph-name="Rcommaaccent" unicode="&#x156;" horiz-adv-x="540" 
d="M496 508c0 -123 -37 -196 -144 -217l167 -291h-112l-155 285h-87v-286h-95v773l207 1c135 0 219 -56 219 -211v-54zM277 682h-112v-306h112c85 0 124 26 124 132v54c0 106 -39 115 -124 120zM222 -227l-30 43c57 36 60 76 60 137h83c0 -98 -31 -142 -113 -180z" />
    <glyph glyph-name="S" unicode="S" horiz-adv-x="567" 
d="M501 581h-99c-5 63 -27 108 -123 108c-107 0 -128 -49 -128 -126c0 -107 93 -106 190 -116c89 -9 181 -53 181 -214c0 -166 -63 -237 -222 -237h-19c-158 0 -230 77 -237 208h103c5 -65 34 -115 133 -115h19c104 0 125 49 125 139c0 126 -83 128 -179 136
c-90 7 -193 51 -193 198c0 143 65 217 227 217c153 0 215 -71 222 -198z" />
    <glyph glyph-name="Sacute" unicode="&#x15a;" horiz-adv-x="567" 
d="M501 581h-99c-5 63 -27 108 -123 108c-107 0 -128 -49 -128 -126c0 -107 93 -106 190 -116c89 -9 181 -53 181 -214c0 -166 -63 -237 -222 -237h-19c-158 0 -230 77 -237 208h103c5 -65 34 -115 133 -115h19c104 0 125 49 125 139c0 126 -83 128 -179 136
c-90 7 -193 51 -193 198c0 143 65 217 227 217c153 0 215 -71 222 -198zM318 831h-76v5l53 127h94v-3z" />
    <glyph glyph-name="Scedilla" unicode="&#x15e;" horiz-adv-x="567" 
d="M233 -78l-2 -1l19 76c-136 9 -200 85 -206 207h103c5 -65 34 -115 133 -115h19c104 0 125 49 125 139c0 126 -83 128 -179 136c-90 7 -193 51 -193 198c0 143 65 217 227 217c153 0 215 -71 222 -198h-99c-5 63 -27 108 -123 108c-107 0 -128 -49 -128 -126
c0 -107 93 -106 190 -116c89 -9 181 -53 181 -214c0 -160 -59 -232 -206 -237l-8 -36c75 5 92 -60 84 -103c-12 -57 -62 -93 -121 -89c-33 2 -72 14 -94 49l35 51c11 -19 35 -35 61 -35c22 0 41 8 48 33c8 34 -26 64 -74 44z" />
    <glyph glyph-name="Scircumflex" unicode="&#x15c;" horiz-adv-x="567" 
d="M501 581h-99c-5 63 -27 108 -123 108c-107 0 -128 -49 -128 -126c0 -107 93 -106 190 -116c89 -9 181 -53 181 -214c0 -166 -63 -237 -222 -237h-19c-158 0 -230 77 -237 208h103c5 -65 34 -115 133 -115h19c104 0 125 49 125 139c0 126 -83 128 -179 136
c-90 7 -193 51 -193 198c0 143 65 217 227 217c153 0 215 -71 222 -198zM260 954h57l124 -122v-7h-93l-57 57l-58 -57h-93v7z" />
    <glyph glyph-name="Scommaaccent" unicode="&#x218;" horiz-adv-x="568" 
d="M224 -229l-39 48c59 36 62 75 62 136h86c0 -97 -24 -148 -109 -184zM501 581h-99c-5 63 -27 108 -123 108c-107 0 -128 -49 -128 -126c0 -107 93 -106 190 -116c89 -9 181 -53 181 -214c0 -166 -63 -237 -222 -237h-19c-158 0 -230 77 -237 208h103
c5 -65 34 -115 133 -115h19c104 0 125 49 125 139c0 126 -83 128 -179 136c-90 7 -193 51 -193 198c0 143 65 217 227 217c153 0 215 -71 222 -198z" />
    <glyph glyph-name="T" unicode="T" horiz-adv-x="431" 
d="M423 679h-160v-679h-95v679h-160v88h415v-88z" />
    <glyph glyph-name="Tbar" unicode="&#x166;" horiz-adv-x="432" 
d="M423 679h-160v-246h95v-67h-95v-366h-95v366h-93v67h93v246h-160v88h415v-88z" />
    <glyph glyph-name="Tcaron" unicode="&#x164;" horiz-adv-x="437" 
d="M423 679h-160v-679h-95v679h-160v88h415v-88zM246 824h-57l-124 122v7h93l57 -57l58 57h93v-7z" />
    <glyph glyph-name="U" unicode="U" horiz-adv-x="602" 
d="M440 253v519h96v-518c0 -169 -54 -260 -237 -260s-239 91 -239 260v517h96v-518c0 -122 24 -170 143 -170s141 48 141 170z" />
    <glyph glyph-name="Ubreve" unicode="&#x16c;" horiz-adv-x="602" 
d="M440 253v519h96v-518c0 -169 -54 -260 -237 -260s-239 91 -239 260v517h96v-518c0 -122 24 -170 143 -170s141 48 141 170zM306 819c-91 0 -131 44 -127 131h71c0 -37 6 -65 56 -65s55 28 55 65h71c4 -87 -35 -131 -126 -131z" />
    <glyph glyph-name="Uhungarumlaut" unicode="&#x170;" horiz-adv-x="602" 
d="M440 253v519h96v-518c0 -169 -54 -260 -237 -260s-239 91 -239 260v517h96v-518c0 -122 24 -170 143 -170s141 48 141 170zM175 827l65 114h94v-2l-79 -112h-80zM329 826l65 115h94v-2l-78 -113h-81z" />
    <glyph glyph-name="Umacron" unicode="&#x16a;" horiz-adv-x="602" 
d="M185 912h226v-78h-226v78zM440 253v519h96v-518c0 -169 -54 -260 -237 -260s-239 91 -239 260v517h96v-518c0 -122 24 -170 143 -170s141 48 141 170z" />
    <glyph glyph-name="Uogonek" unicode="&#x172;" horiz-adv-x="602" 
d="M475 -57l43 -52c-26 -30 -63 -53 -100 -55c-61 -2 -120 15 -136 74c-7 22 -2 63 21 84h-4c-183 0 -239 91 -239 260v517h96v-518c0 -122 24 -170 143 -170s141 48 141 170v519h96v-518c0 -133 -34 -218 -137 -248c-30 -12 -45 -43 -35 -66c7 -16 22 -28 50 -27
c21 1 42 10 61 30z" />
    <glyph glyph-name="Uring" unicode="&#x16e;" horiz-adv-x="602" 
d="M440 253v519h96v-518c0 -169 -54 -260 -237 -260s-239 91 -239 260v517h96v-518c0 -122 24 -170 143 -170s141 48 141 170zM197 891c0 59 51 90 104 90c52 0 105 -30 105 -89c0 -60 -49 -92 -106 -92s-104 32 -103 91zM301 930c-59 0 -59 -79 0 -79c63 0 61 79 0 79z" />
    <glyph glyph-name="Utilde" unicode="&#x168;" horiz-adv-x="602" 
d="M440 253v519h96v-518c0 -169 -54 -260 -237 -260s-239 91 -239 260v517h96v-518c0 -122 24 -170 143 -170s141 48 141 170zM222 827l-55 26c14 60 66 91 122 71l45 -21c21 -8 41 -5 51 26l57 -23c-14 -71 -69 -93 -116 -74l-44 20c-22 8 -48 7 -60 -25z" />
    <glyph glyph-name="V" unicode="V" horiz-adv-x="523" 
d="M184 485l78 -339l77 340l77 286h98l-209 -773h-87l-209 773h98z" />
    <glyph glyph-name="W" unicode="W" horiz-adv-x="816" 
d="M237 158l132 572h74l132 -572l56 288l74 326h98l-184 -773h-87l-65 259l-61 277l-61 -277l-65 -259h-87l-184 773h98l74 -326z" />
    <glyph glyph-name="Wacute" unicode="&#x1e82;" horiz-adv-x="817" 
d="M237 158l132 572h74l132 -572l56 288l74 326h98l-184 -773h-87l-65 259l-61 277l-61 -277l-65 -259h-87l-184 773h98l74 -326zM446 801h-76v5l53 127h94v-3z" />
    <glyph glyph-name="Wcircumflex" unicode="&#x174;" horiz-adv-x="803" 
d="M237 158l132 572h74l132 -572l56 288l74 326h98l-184 -773h-87l-65 259l-61 277l-61 -277l-65 -259h-87l-184 773h98l74 -326zM377 930h57l124 -122v-7h-93l-57 57l-58 -57h-93v7z" />
    <glyph glyph-name="Wdieresis" unicode="&#x1e84;" horiz-adv-x="815" 
d="M237 158l132 572h74l132 -572l56 288l74 326h98l-184 -773h-87l-65 259l-61 277l-61 -277l-65 -259h-87l-184 773h98l74 -326zM237 857c0 73 115 76 115 0c0 -71 -115 -76 -115 0zM455 857c0 73 115 76 115 0c0 -71 -115 -76 -115 0z" />
    <glyph glyph-name="Wgrave" unicode="&#x1e80;" horiz-adv-x="815" 
d="M237 158l132 572h74l132 -572l56 288l74 326h98l-184 -773h-87l-65 259l-61 277l-61 -277l-65 -259h-87l-184 773h98l74 -326zM374 811l-71 129v3h97l53 -127v-5h-79z" />
    <glyph glyph-name="X" unicode="X" horiz-adv-x="488" 
d="M177 626l67 -173l67 172l64 147h104l-169 -384l169 -389h-104l-42 96l-89 226l-88 -225l-43 -97h-104l169 389l-169 384h104z" />
    <glyph glyph-name="Y" unicode="Y" horiz-adv-x="461" 
d="M163 622l68 -192l68 192l62 150h103l-186 -449v-324h-95v324l-185 449h103z" />
    <glyph glyph-name="Ycircumflex" unicode="&#x176;" horiz-adv-x="463" 
d="M163 622l68 -192l68 192l62 150h103l-186 -449v-324h-95v324l-185 449h103zM201 954h57l124 -122v-7h-93l-57 57l-58 -57h-93v7z" />
    <glyph glyph-name="Ygrave" unicode="&#x1ef2;" horiz-adv-x="461" 
d="M163 622l68 -192l68 192l62 150h103l-186 -449v-324h-95v324l-185 449h103zM202 805l-71 129v3h97l53 -127v-5h-79z" />
    <glyph glyph-name="Z" unicode="Z" horiz-adv-x="470" 
d="M457 772l-308 -685h297v-87h-432l308 688h-267v84h402z" />
    <glyph glyph-name="Zacute" unicode="&#x179;" horiz-adv-x="463" 
d="M457 772l-308 -685h297v-87h-432l308 688h-267v84h402zM282 827h-76v5l53 127h94v-3z" />
    <glyph glyph-name="Zdotaccent" unicode="&#x17b;" horiz-adv-x="459" 
d="M204 879c0 71 108 71 108 0s-108 -71 -108 0zM457 772l-308 -685h297v-87h-432l308 688h-267v84h402z" />
    <glyph glyph-name="uni021A" unicode="&#x21a;" horiz-adv-x="433" 
d="M151 -240l-39 48c59 36 62 75 62 136h86c0 -97 -24 -148 -109 -184zM423 679h-160v-679h-95v679h-160v88h415v-88z" />
    <glyph glyph-name="a" unicode="a" 
d="M461 395v-395h-86l-8 79c-21 -43 -78 -84 -149 -84c-134 0 -167 71 -174 140c-10 103 60 177 180 194c46 7 95 8 141 9v57c0 66 -23 109 -111 109c-55 0 -93 -19 -92 -98h-93c-4 130 64 185 188 185c128 0 204 -54 204 -196zM367 259c-27 0 -85 1 -135 -10
c-65 -14 -99 -45 -92 -102c4 -46 45 -61 88 -61c105 0 136 77 139 173z" />
    <glyph glyph-name="abreve" unicode="&#x103;" 
d="M461 395v-395h-86l-8 79c-21 -43 -78 -84 -149 -84c-134 0 -167 71 -174 140c-10 103 60 177 180 194c46 7 95 8 141 9v57c0 66 -23 109 -111 109c-55 0 -93 -19 -92 -98h-93c-4 130 64 185 188 185c128 0 204 -54 204 -196zM367 259c-27 0 -85 1 -135 -10
c-65 -14 -99 -45 -92 -102c4 -46 45 -61 88 -61c105 0 136 77 139 173zM272 652c-91 0 -131 44 -127 131h71c0 -37 6 -65 56 -65s55 28 55 65h71c4 -87 -35 -131 -126 -131z" />
    <glyph glyph-name="amacron" unicode="&#x101;" 
d="M156 756h219v-74h-219v74zM461 395v-395h-86l-8 79c-21 -43 -78 -84 -149 -84c-134 0 -167 71 -174 140c-10 103 60 177 180 194c46 7 95 8 141 9v57c0 66 -23 109 -111 109c-55 0 -93 -19 -92 -98h-93c-4 130 64 185 188 185c128 0 204 -54 204 -196zM367 259
c-27 0 -85 1 -135 -10c-65 -14 -99 -45 -92 -102c4 -46 45 -61 88 -61c105 0 136 77 139 173z" />
    <glyph glyph-name="aogonek" unicode="&#x105;" 
d="M461 395v-395c-50 -20 -71 -58 -71 -73c0 -27 18 -33 35 -33c14 0 28 1 36 2v-85c-71 -4 -160 3 -160 85c0 49 36 84 74 104l-8 79c-21 -43 -78 -84 -149 -84c-134 0 -167 71 -174 140c-10 103 60 177 180 194c46 7 95 8 141 9v57c0 66 -23 109 -111 109
c-55 0 -93 -19 -92 -98h-93c-4 130 64 185 188 185c128 0 204 -54 204 -196zM367 259c-27 0 -85 1 -135 -10c-65 -14 -99 -45 -92 -102c4 -46 45 -61 88 -61c105 0 136 77 139 173z" />
    <glyph glyph-name="aringacute" unicode="&#x1fb;" horiz-adv-x="513" 
d="M287 916h96l-86 -84h-73v3zM461 395v-395h-86l-8 79c-21 -43 -78 -84 -149 -84c-134 0 -167 71 -174 140c-10 103 60 177 180 194c46 7 95 8 141 9v57c0 66 -23 109 -111 109c-55 0 -93 -19 -92 -98h-93c-4 130 64 185 188 185c128 0 204 -54 204 -196zM367 259
c-27 0 -85 1 -135 -10c-65 -14 -99 -45 -92 -102c4 -46 45 -61 88 -61c105 0 136 77 139 173zM164 711c0 60 50 92 103 92c51 0 103 -31 103 -91s-48 -93 -104 -93c-57 0 -103 33 -102 92zM267 751c-58 0 -58 -79 0 -79c61 0 59 79 0 79z" />
    <glyph glyph-name="aeacute" unicode="&#x1fd;" horiz-adv-x="834" 
d="M691 168h93c0 -114 -57 -178 -211 -178c-98 0 -145 29 -175 87c-50 -62 -101 -87 -176 -87c-134 0 -167 76 -174 145c-10 103 54 177 180 194c46 7 98 8 144 9v57c0 66 -26 109 -114 109c-55 0 -93 -19 -92 -98h-93c-4 130 64 185 188 185c70 0 124 -17 153 -70
c33 52 86 71 159 71c133 0 213 -58 213 -212v-127h-332v-44c0 -106 34 -130 119 -130s118 29 118 89zM454 380v-42h240v42c0 105 -45 127 -121 127s-119 -21 -119 -127zM374 256c-27 0 -88 4 -138 -7c-65 -14 -99 -45 -92 -102c4 -46 45 -63 88 -63c105 0 139 76 142 172z
M455 649h-76v5l53 127h94v-3z" />
    <glyph glyph-name="b" unicode="b" horiz-adv-x="548" 
d="M151 368l-1 -155c0 -106 42 -132 124 -132s124 26 124 132v151c0 109 -39 136 -124 136c-70 0 -122 -26 -123 -132zM493 366v-153c0 -159 -61 -223 -219 -223s-219 64 -219 223v574h96v-255c23 34 70 59 138 59c147 0 204 -80 204 -225z" />
    <glyph glyph-name="c" unicode="c" horiz-adv-x="528" 
d="M393 198h90c-2 -154 -62 -208 -214 -208s-219 64 -219 223v166c0 155 84 213 219 213c130 0 208 -46 214 -196l-90 -1c-4 92 -48 109 -124 109c-80 0 -124 -19 -124 -125v-166c0 -106 43 -132 124 -132s122 17 124 117z" />
    <glyph glyph-name="cacute" unicode="&#x107;" horiz-adv-x="528" 
d="M393 198h90c-2 -154 -62 -208 -214 -208s-219 64 -219 223v166c0 155 84 213 219 213c130 0 208 -46 214 -196l-90 -1c-4 92 -48 109 -124 109c-80 0 -124 -19 -124 -125v-166c0 -106 43 -132 124 -132s122 17 124 117zM298 647h-76v5l53 127h94v-3z" />
    <glyph glyph-name="ccaron" unicode="&#x10d;" horiz-adv-x="528" 
d="M393 198h90c-2 -154 -62 -208 -214 -208s-219 64 -219 223v166c0 155 84 213 219 213c130 0 208 -46 214 -196l-90 -1c-4 92 -48 109 -124 109c-80 0 -124 -19 -124 -125v-166c0 -106 43 -132 124 -132s122 17 124 117zM296 644h-57l-124 122v7h93l57 -57l58 57h93v-7z
" />
    <glyph glyph-name="ccircumflex" unicode="&#x109;" horiz-adv-x="528" 
d="M393 198h90c-2 -154 -62 -208 -214 -208s-219 64 -219 223v166c0 155 84 213 219 213c130 0 208 -46 214 -196l-90 -1c-4 92 -48 109 -124 109c-80 0 -124 -19 -124 -125v-166c0 -106 43 -132 124 -132s122 17 124 117zM250 782h57l124 -122v-7h-93l-57 57l-58 -57h-93v7
z" />
    <glyph glyph-name="cdotaccent" unicode="&#x10b;" horiz-adv-x="528" 
d="M217 724c0 69 111 69 111 0s-111 -69 -111 0zM393 198h90c-2 -154 -62 -208 -214 -208s-219 64 -219 223v166c0 155 84 213 219 213c130 0 208 -46 214 -196l-90 -1c-4 92 -48 109 -124 109c-80 0 -124 -19 -124 -125v-166c0 -106 43 -132 124 -132s122 17 124 117z" />
    <glyph glyph-name="d" unicode="d" horiz-adv-x="566" 
d="M489 782v-782h-80l-12 77c-18 -51 -77 -80 -145 -80c-117 0 -198 53 -198 211v154c0 158 75 227 198 227c63 0 109 -9 141 -51v244h96zM393 365c0 100 -35 132 -120 132s-124 -34 -124 -137v-153c0 -96 39 -121 117 -121c81 3 127 38 127 153v126z" />
    <glyph glyph-name="dcaron" unicode="&#x10f;" horiz-adv-x="669" 
d="M585 782h82l-45 -176h-69zM489 782v-782h-80l-12 77c-18 -51 -77 -80 -145 -80c-117 0 -198 53 -198 211v154c0 158 75 227 198 227c63 0 109 -9 141 -51v244h96zM393 365c0 100 -35 132 -120 132s-124 -34 -124 -137v-153c0 -96 39 -121 117 -121c81 3 127 38 127 153
v126z" />
    <glyph glyph-name="dcroat" unicode="&#x111;" horiz-adv-x="553" 
d="M489 782v-69h61v-61h-61v-652h-80l-12 77c-18 -51 -77 -80 -145 -80c-117 0 -198 53 -198 211v154c0 158 75 227 198 227c63 0 109 -9 141 -51v114h-79v61h79v69h96zM393 365c0 100 -35 132 -120 132s-124 -34 -124 -137v-153c0 -96 39 -121 117 -121
c81 3 127 38 127 153v126z" />
    <glyph glyph-name="e" unicode="e" horiz-adv-x="538" 
d="M391 170h92c0 -113 -62 -176 -214 -176c-156 0 -216 57 -216 214v171c0 153 83 209 216 209c131 0 216 -57 216 -209v-125h-338v-44c0 -104 38 -128 122 -128s122 28 122 88zM147 379v-42h247v42c0 103 -50 125 -125 125s-122 -21 -122 -125z" />
    <glyph glyph-name="ebreve" unicode="&#x115;" horiz-adv-x="530" 
d="M391 170h92c0 -113 -62 -176 -214 -176c-156 0 -216 57 -216 214v171c0 153 83 209 216 209c131 0 216 -57 216 -209v-125h-338v-44c0 -104 38 -128 122 -128s122 28 122 88zM147 379v-42h247v42c0 103 -50 125 -125 125s-122 -21 -122 -125zM269 649
c-91 0 -131 44 -127 131h71c0 -37 6 -65 56 -65s55 28 55 65h71c4 -87 -35 -131 -126 -131z" />
    <glyph glyph-name="ecaron" unicode="&#x11b;" horiz-adv-x="530" 
d="M391 170h92c0 -113 -62 -176 -214 -176c-156 0 -216 57 -216 214v171c0 153 83 209 216 209c131 0 216 -57 216 -209v-125h-338v-44c0 -104 38 -128 122 -128s122 28 122 88zM147 379v-42h247v42c0 103 -50 125 -125 125s-122 -21 -122 -125zM304 649h-57l-124 122v7h93
l57 -57l58 57h93v-7z" />
    <glyph glyph-name="edotaccent" unicode="&#x117;" horiz-adv-x="530" 
d="M217 723c0 72 117 72 117 0c0 -71 -117 -71 -117 0zM391 170h92c0 -113 -62 -176 -214 -176c-156 0 -216 57 -216 214v171c0 153 83 209 216 209c131 0 216 -57 216 -209v-125h-338v-44c0 -104 38 -128 122 -128s122 28 122 88zM147 379v-42h247v42
c0 103 -50 125 -125 125s-122 -21 -122 -125z" />
    <glyph glyph-name="emacron" unicode="&#x113;" horiz-adv-x="530" 
d="M167 757h228v-75h-228v75zM391 170h92c0 -113 -62 -176 -214 -176c-156 0 -216 57 -216 214v171c0 153 83 209 216 209c131 0 216 -57 216 -209v-125h-338v-44c0 -104 38 -128 122 -128s122 28 122 88zM147 379v-42h247v42c0 103 -50 125 -125 125s-122 -21 -122 -125z
" />
    <glyph glyph-name="eogonek" unicode="&#x119;" horiz-adv-x="538" 
d="M391 170h92c0 -54 -15 -95 -46 -127c-50 -53 -68 -102 -68 -116c0 -27 18 -33 35 -33c14 0 28 1 36 2v-85c-71 -4 -160 3 -160 85c0 44 29 82 63 104c-22 -4 -47 -6 -74 -6c-156 0 -216 57 -216 214v171c0 153 83 209 216 209c131 0 216 -57 216 -209v-125h-338v-44
c0 -104 38 -128 122 -128s122 28 122 88zM147 379v-42h247v42c0 103 -50 125 -125 125s-122 -21 -122 -125z" />
    <glyph glyph-name="f" unicode="f" horiz-adv-x="320" 
d="M59 -1v564c0 161 96 228 237 215v-87c-87 9 -142 -13 -142 -128v-20h125v-88h-125v-456h-95z" />
    <glyph glyph-name="g" unicode="g" horiz-adv-x="532" 
d="M253 -3c-135 0 -203 69 -203 201v177c0 158 81 211 198 211c68 0 125 -29 143 -80l12 74h79v-600c0 -159 -86 -223 -216 -223c-124 0 -198 46 -203 174h91c5 -70 50 -87 113 -87c76 0 126 30 126 136v96c-14 -39 -64 -79 -140 -79zM253 86c82 0 134 32 134 153v113
c-2 109 -46 142 -125 145c-78 0 -117 -25 -117 -121v-167c0 -92 40 -123 108 -123z" />
    <glyph glyph-name="gbreve" unicode="&#x11f;" horiz-adv-x="544" 
d="M253 -3c-135 0 -203 69 -203 201v177c0 158 81 211 198 211c68 0 125 -29 143 -80l12 74h79v-600c0 -159 -86 -223 -216 -223c-124 0 -198 46 -203 174h91c5 -70 50 -87 113 -87c76 0 126 30 126 136v96c-14 -39 -64 -79 -140 -79zM253 86c82 0 134 32 134 153v113
c-2 109 -46 142 -125 145c-78 0 -117 -25 -117 -121v-167c0 -92 40 -123 108 -123zM272 648c-91 0 -131 44 -127 131h71c0 -37 6 -65 56 -65s55 28 55 65h71c4 -87 -35 -131 -126 -131z" />
    <glyph glyph-name="gcircumflex" unicode="&#x11d;" horiz-adv-x="544" 
d="M253 -3c-135 0 -203 69 -203 201v177c0 158 81 211 198 211c68 0 125 -29 143 -80l12 74h79v-600c0 -159 -86 -223 -216 -223c-124 0 -198 46 -203 174h91c5 -70 50 -87 113 -87c76 0 126 30 126 136v96c-14 -39 -64 -79 -140 -79zM253 86c82 0 134 32 134 153v113
c-2 109 -46 142 -125 145c-78 0 -117 -25 -117 -121v-167c0 -92 40 -123 108 -123zM257 776h57l124 -122v-7h-93l-57 57l-58 -57h-93v7z" />
    <glyph glyph-name="gcommaaccent" unicode="&#x123;" horiz-adv-x="621" 
d="M337 811l31 -41c-58 -34 -61 -72 -61 -131h-83c0 94 31 137 113 172zM253 -3c-135 0 -203 69 -203 201v177c0 158 81 211 198 211c68 0 125 -29 143 -80l12 74h79v-600c0 -159 -86 -223 -216 -223c-124 0 -198 46 -203 174h91c5 -70 50 -87 113 -87c76 0 126 30 126 136
v96c-14 -39 -64 -79 -140 -79zM253 86c82 0 134 32 134 153v113c-2 109 -46 142 -125 145c-78 0 -117 -25 -117 -121v-167c0 -92 40 -123 108 -123z" />
    <glyph glyph-name="gdotaccent" unicode="&#x121;" horiz-adv-x="536" 
d="M217 724c0 73 118 73 118 0c0 -75 -118 -75 -118 0zM253 -3c-135 0 -203 69 -203 201v177c0 158 81 211 198 211c68 0 125 -29 143 -80l12 74h79v-600c0 -159 -86 -223 -216 -223c-124 0 -198 46 -203 174h91c5 -70 50 -87 113 -87c76 0 126 30 126 136v96
c-14 -39 -64 -79 -140 -79zM253 86c82 0 134 32 134 153v113c-2 109 -46 142 -125 145c-78 0 -117 -25 -117 -121v-167c0 -92 40 -123 108 -123z" />
    <glyph glyph-name="h" unicode="h" horiz-adv-x="540" 
d="M485 0h-95v364c0 106 -33 136 -119 136c-79 0 -119 -38 -120 -132l-1 -368h-95v787h96v-255c21 31 67 60 133 60c149 0 201 -81 201 -226v-366z" />
    <glyph glyph-name="hbar" unicode="&#x127;" horiz-adv-x="544" 
d="M-1 650v60h56v77h96v-77h75v-60h-75v-118c21 31 67 60 133 60c149 0 201 -81 201 -226v-366h-95v364c0 106 -33 136 -119 136c-79 0 -119 -38 -120 -132l-1 -368h-95v650h-56z" />
    <glyph glyph-name="hcircumflex" unicode="&#x125;" horiz-adv-x="546" 
d="M485 0h-95v364c0 106 -33 136 -119 136c-79 0 -119 -38 -120 -132l-1 -368h-95v787h96v-255c21 31 67 60 133 60c149 0 201 -81 201 -226v-366zM229 955h57l124 -122v-7h-93l-57 57l-58 -57h-93v7z" />
    <glyph glyph-name="i" unicode="i" horiz-adv-x="240" 
d="M167 0h-95v581h95v-581zM63 719c0 73 115 76 115 0c0 -71 -115 -76 -115 0z" />
    <glyph glyph-name="dotlessi" unicode="&#x131;" horiz-adv-x="241" 
d="M174 0h-95v581h95v-581z" />
    <glyph glyph-name="ibreve" unicode="&#x12d;" horiz-adv-x="240" 
d="M167 0h-95v581h95v-581zM121 642c-86 0 -123 44 -120 130h67c0 -37 6 -64 53 -64s52 27 52 64h67c4 -86 -33 -130 -119 -130z" />
    <glyph glyph-name="ij" unicode="&#x133;" horiz-adv-x="443" 
d="M167 0h-95v581h95v-581zM63 719c0 73 115 76 115 0c0 -71 -115 -76 -115 0zM382 580v-607c0 -123 -53 -172 -172 -162v85c44 -4 79 -3 79 77v607h93zM278 719c0 73 115 76 115 0c0 -71 -115 -76 -115 0z" />
    <glyph glyph-name="imacron" unicode="&#x12b;" horiz-adv-x="238" 
d="M18 758h199v-77h-199v77zM167 0h-95v581h95v-581z" />
    <glyph glyph-name="iogonek" unicode="&#x12f;" horiz-adv-x="230" 
d="M63 719c0 73 115 76 115 0c0 -71 -115 -76 -115 0zM167 0h-1c-84 -1 -86 -63 -68 -85c17 -21 61 -36 102 8l46 -42c-59 -90 -176 -72 -215 -10c-27 42 -32 115 41 146v564h95v-581z" />
    <glyph glyph-name="itilde" unicode="&#x129;" horiz-adv-x="240" 
d="M167 0h-95v581h95v-581zM52 669l-44 31c15 63 62 87 108 64l34 -20c17 -10 33 -7 44 26l46 -28c-17 -74 -65 -89 -103 -66l-34 17c-17 9 -39 10 -51 -24z" />
    <glyph glyph-name="j" unicode="j" horiz-adv-x="242" 
d="M173 580v-607c0 -123 -53 -172 -172 -162v85c44 -4 79 -3 79 77v607h93zM69 719c0 73 115 76 115 0c0 -71 -115 -76 -115 0z" />
    <glyph glyph-name="dotlessj" unicode="&#x237;" horiz-adv-x="242" 
d="M173 580v-607c0 -123 -53 -172 -172 -162v85c44 -4 79 -3 79 77v607h93z" />
    <glyph glyph-name="jcircumflex" unicode="&#x135;" horiz-adv-x="241" 
d="M173 580v-607c0 -123 -53 -172 -172 -162v85c44 -4 79 -3 79 77v607h93zM102 776h52l115 -129v-7h-86l-53 60l-53 -60h-86v7z" />
    <glyph glyph-name="k" unicode="k" horiz-adv-x="510" 
d="M505 0h-114l-198 260h-43v-260h-95v772h95v-422h38l181 235h116l-214 -275z" />
    <glyph glyph-name="kcommaaccent" unicode="&#x137;" horiz-adv-x="506" 
d="M505 0h-114l-198 260h-43v-260h-95v772h95v-422h38l181 235h116l-214 -275zM194 -209l-30 43c57 36 60 76 60 137h83c0 -98 -31 -142 -113 -180z" />
    <glyph glyph-name="kgreenlandic" unicode="&#x138;" horiz-adv-x="510" 
d="M505 0h-114l-198 260h-43v-260h-95v583h95v-233h38l181 235h116l-214 -275z" />
    <glyph glyph-name="l" unicode="l" horiz-adv-x="253" 
d="M70 152v620h93v-619c0 -47 18 -59 60 -59v-94c-114 0 -153 29 -153 152z" />
    <glyph glyph-name="lacute" unicode="&#x13a;" horiz-adv-x="254" 
d="M70 152v620h93v-619c0 -47 18 -59 60 -59v-94c-114 0 -153 29 -153 152zM146 821h-76v5l53 127h94v-3z" />
    <glyph glyph-name="lcaron" unicode="&#x13e;" horiz-adv-x="334" 
d="M262 772h82l-47 -177h-67zM70 152v620h93v-619c0 -47 18 -59 60 -59v-94c-114 0 -153 29 -153 152z" />
    <glyph glyph-name="lcommaaccent" unicode="&#x13c;" horiz-adv-x="254" 
d="M91 -229l-30 43c57 36 60 76 60 137h83c0 -98 -31 -142 -113 -180zM70 152v620h93v-619c0 -47 18 -59 60 -59v-94c-114 0 -153 29 -153 152z" />
    <glyph glyph-name="ldot" unicode="&#x140;" horiz-adv-x="374" 
d="M237 367c0 74 112 74 112 0s-112 -74 -112 0zM70 152v620h93v-619c0 -47 18 -59 60 -59v-94c-114 0 -153 29 -153 152z" />
    <glyph glyph-name="lslash" unicode="&#x142;" horiz-adv-x="251" 
d="M15 311v68l55 24v369h93v-328l67 30v-69l-67 -30v-222c0 -47 18 -59 60 -59v-94c-114 0 -153 29 -153 152v183z" />
    <glyph glyph-name="m" unicode="m" horiz-adv-x="922" 
d="M74 0v585h80l7 -64c37 54 92 71 150 71c76 0 132 -23 160 -72c38 47 96 72 179 72c128 0 198 -49 198 -214v-378h-96v380c0 86 -45 121 -114 121c-85 0 -129 -45 -129 -149v-352h-96v382c0 105 -45 121 -116 121c-72 0 -127 -33 -127 -122v-381h-96z" />
    <glyph glyph-name="n" unicode="n" horiz-adv-x="583" 
d="M79 0v585h85l6 -62c35 57 93 69 150 69c129 0 194 -55 194 -211v-381h-96v380c0 83 -45 125 -114 125c-72 0 -129 -41 -129 -124v-381h-96z" />
    <glyph glyph-name="nacute" unicode="&#x144;" horiz-adv-x="583" 
d="M79 0v585h85l6 -62c35 57 93 69 150 69c129 0 194 -55 194 -211v-381h-96v380c0 83 -45 125 -114 125c-72 0 -129 -41 -129 -124v-381h-96zM301 649h-76v5l53 127h94v-3z" />
    <glyph glyph-name="napostrophe" unicode="&#x149;" horiz-adv-x="583" 
d="M79 0v585h85l6 -62c35 57 93 69 150 69c129 0 194 -55 194 -211v-381h-96v380c0 83 -45 125 -114 125c-72 0 -129 -41 -129 -124v-381h-96z" />
    <glyph glyph-name="ncaron" unicode="&#x148;" horiz-adv-x="583" 
d="M79 0v585h85l6 -62c35 57 93 69 150 69c129 0 194 -55 194 -211v-381h-96v380c0 83 -45 125 -114 125c-72 0 -129 -41 -129 -124v-381h-96zM327 644h-57l-124 122v7h93l57 -57l58 57h93v-7z" />
    <glyph glyph-name="ncommaaccent" unicode="&#x146;" horiz-adv-x="583" 
d="M79 0v585h85l6 -62c35 57 93 69 150 69c129 0 194 -55 194 -211v-381h-96v380c0 83 -45 125 -114 125c-72 0 -129 -41 -129 -124v-381h-96zM230 -227l-30 43c57 36 60 76 60 137h83c0 -98 -31 -142 -113 -180z" />
    <glyph glyph-name="eng" unicode="&#x14b;" horiz-adv-x="584" 
d="M79 0v585h85l6 -62c35 57 93 69 150 69c129 0 194 -55 194 -211v-371c2 -111 -37 -180 -147 -180c-15 0 -29 1 -42 5l13 84c8 -2 16 -2 25 -2c60 1 55 36 55 94v369c0 83 -45 125 -114 125c-72 0 -129 -41 -129 -124v-381h-96z" />
    <glyph glyph-name="o" unicode="o" horiz-adv-x="538" 
d="M269 73c88 0 124 34 124 140v167c0 106 -45 127 -124 127s-124 -21 -124 -127v-167c0 -106 39 -140 124 -140zM269 -10c-158 0 -219 64 -219 223v167c0 155 84 212 219 212s219 -57 219 -212v-167c0 -159 -64 -223 -219 -223z" />
    <glyph glyph-name="obreve" unicode="&#x14f;" horiz-adv-x="538" 
d="M269 73c88 0 124 34 124 140v167c0 106 -45 127 -124 127s-124 -21 -124 -127v-167c0 -106 39 -140 124 -140zM269 -10c-158 0 -219 64 -219 223v167c0 155 84 212 219 212s219 -57 219 -212v-167c0 -159 -64 -223 -219 -223zM275 649c-91 0 -131 44 -127 131h71
c0 -37 6 -65 56 -65s55 28 55 65h71c4 -87 -35 -131 -126 -131z" />
    <glyph glyph-name="ohungarumlaut" unicode="&#x151;" horiz-adv-x="538" 
d="M269 73c88 0 124 34 124 140v167c0 106 -45 127 -124 127s-124 -21 -124 -127v-167c0 -106 39 -140 124 -140zM269 -10c-158 0 -219 64 -219 223v167c0 155 84 212 219 212s219 -57 219 -212v-167c0 -159 -64 -223 -219 -223zM144 657l65 114h94v-2l-79 -112h-80z
M298 656l65 115h94v-2l-78 -113h-81z" />
    <glyph glyph-name="omacron" unicode="&#x14d;" horiz-adv-x="538" 
d="M164 755h219v-75h-219v75zM269 73c88 0 124 34 124 140v167c0 106 -45 127 -124 127s-124 -21 -124 -127v-167c0 -106 39 -140 124 -140zM269 -10c-158 0 -219 64 -219 223v167c0 155 84 212 219 212s219 -57 219 -212v-167c0 -159 -64 -223 -219 -223z" />
    <glyph glyph-name="oslashacute" unicode="&#x1ff;" horiz-adv-x="538" 
d="M158 -73h-80l41 98c-49 35 -69 95 -69 188v167c0 155 84 212 219 212c30 0 58 -3 83 -9l27 65h80l-40 -96c44 -33 69 -88 69 -172v-167c0 -159 -64 -223 -219 -223c-31 0 -58 3 -82 8zM145 213c0 -39 5 -67 15 -89l158 378c-14 3 -31 5 -49 5c-79 0 -124 -21 -124 -127
v-167zM269 73c88 0 124 34 124 140v167c0 34 -5 59 -14 77l-158 -379c14 -4 30 -5 48 -5zM298 660h-77v4l54 115h94v-3z" />
    <glyph glyph-name="p" unicode="p" horiz-adv-x="562" 
d="M66 -197v782h80l12 -77c18 51 77 80 145 80c117 0 198 -53 198 -211v-154c0 -158 -75 -227 -198 -227c-63 0 -109 9 -141 51v-244h-96zM162 220c0 -100 35 -132 120 -132s124 34 124 137v153c0 96 -39 121 -117 121c-81 -3 -127 -38 -127 -153v-126z" />
    <glyph glyph-name="thorn" unicode="&#xfe;" horiz-adv-x="562" 
d="M66 -197v970h95v-258c21 47 77 73 142 73c117 0 198 -53 198 -211v-154c0 -158 -75 -227 -198 -227c-63 0 -109 9 -141 51v-244h-96zM162 220c0 -100 35 -132 120 -132s124 34 124 137v153c0 96 -39 121 -117 121c-81 -3 -127 -38 -127 -153v-126z" />
    <glyph glyph-name="q" unicode="q" horiz-adv-x="550" 
d="M395 216l1 155c0 106 -42 132 -124 132s-124 -26 -124 -132v-151c0 -109 39 -136 124 -136c70 0 122 26 123 132zM53 218v153c0 159 61 223 219 223s219 -64 219 -223v-574h-96v255c-23 -34 -70 -59 -138 -59c-147 0 -204 80 -204 225z" />
    <glyph glyph-name="r" unicode="r" horiz-adv-x="348" 
d="M319 585v-97c-92 15 -164 -23 -164 -113v-376h-95v586h87l4 -54c29 44 96 69 168 54z" />
    <glyph glyph-name="racute" unicode="&#x155;" horiz-adv-x="335" 
d="M319 585v-97c-92 15 -164 -23 -164 -113v-376h-95v586h87l4 -54c29 44 96 69 168 54zM213 660h-72v5l50 118h89v-3z" />
    <glyph glyph-name="rcaron" unicode="&#x159;" horiz-adv-x="344" 
d="M319 585v-97c-92 15 -164 -23 -164 -113v-376h-95v586h87l4 -54c29 44 96 69 168 54zM229 649h-57l-124 122v7h93l57 -57l58 57h93v-7z" />
    <glyph glyph-name="rcommaaccent" unicode="&#x157;" horiz-adv-x="335" 
d="M319 585v-97c-92 15 -164 -23 -164 -113v-376h-95v586h87l4 -54c29 44 96 69 168 54zM32 -214l-31 39c59 34 62 70 62 126h86c0 -90 -32 -130 -117 -165z" />
    <glyph glyph-name="s" unicode="s" horiz-adv-x="488" 
d="M441 420h-91c0 55 -33 86 -107 86c-66 0 -105 -30 -105 -93c0 -69 53 -68 124 -74c89 -8 195 -21 195 -163c0 -122 -86 -181 -207 -181c-134 0 -207 62 -212 186h96c5 -74 55 -99 116 -99c72 0 112 37 112 93c0 69 -68 75 -140 80c-71 5 -179 26 -179 158
c0 103 66 179 203 179c135 0 198 -64 195 -172z" />
    <glyph glyph-name="sacute" unicode="&#x15b;" horiz-adv-x="488" 
d="M441 420h-91c0 55 -33 86 -107 86c-66 0 -105 -30 -105 -93c0 -69 53 -68 124 -74c89 -8 195 -21 195 -163c0 -122 -86 -181 -207 -181c-134 0 -207 62 -212 186h96c5 -74 55 -99 116 -99c72 0 112 37 112 93c0 69 -68 75 -140 80c-71 5 -179 26 -179 158
c0 103 66 179 203 179c135 0 198 -64 195 -172zM281 643h-76v5l53 127h94v-3z" />
    <glyph glyph-name="scedilla" unicode="&#x15f;" horiz-adv-x="488" 
d="M197 -78l-2 -1l19 76c-111 10 -172 71 -176 184h96c5 -74 55 -99 116 -99c72 0 112 37 112 93c0 69 -68 75 -140 80c-71 5 -179 26 -179 158c0 103 66 179 203 179c135 0 198 -64 195 -172h-91c0 55 -33 86 -107 86c-66 0 -105 -30 -105 -93c0 -69 53 -68 124 -74
c89 -8 195 -21 195 -163c0 -112 -73 -171 -179 -179l-8 -38c74 5 91 -59 83 -101c-12 -56 -61 -90 -120 -87c-31 2 -70 14 -91 48l34 50c11 -18 35 -34 59 -34c22 0 41 7 48 32c8 33 -26 62 -72 43z" />
    <glyph glyph-name="scircumflex" unicode="&#x15d;" horiz-adv-x="488" 
d="M441 420h-91c0 55 -33 86 -107 86c-66 0 -105 -30 -105 -93c0 -69 53 -68 124 -74c89 -8 195 -21 195 -163c0 -122 -86 -181 -207 -181c-134 0 -207 62 -212 186h96c5 -74 55 -99 116 -99c72 0 112 37 112 93c0 69 -68 75 -140 80c-71 5 -179 26 -179 158
c0 103 66 179 203 179c135 0 198 -64 195 -172zM227 783h57l124 -122v-7h-93l-57 57l-58 -57h-93v7z" />
    <glyph glyph-name="scommaaccent" unicode="&#x219;" horiz-adv-x="488" 
d="M191 -240l-39 48c59 36 62 75 62 136h86c0 -97 -24 -148 -109 -184zM441 420h-91c0 55 -33 86 -107 86c-66 0 -105 -30 -105 -93c0 -69 53 -68 124 -74c89 -8 195 -21 195 -163c0 -122 -86 -181 -207 -181c-134 0 -207 62 -212 186h96c5 -74 55 -99 116 -99
c72 0 112 37 112 93c0 69 -68 75 -140 80c-71 5 -179 26 -179 158c0 103 66 179 203 179c135 0 198 -64 195 -172z" />
    <glyph glyph-name="germandbls" unicode="&#xdf;" horiz-adv-x="517" 
d="M146 584v-584h-95v584c0 115 39 200 183 200s181 -85 181 -200c0 -64 -16 -117 -65 -153c94 -28 130 -97 130 -196c0 -164 -62 -235 -231 -235h-58v84h60c116 0 134 62 134 150c0 98 -41 131 -131 131h-61v91h24c92 0 102 72 102 128c0 72 -17 115 -87 115
c-66 0 -86 -43 -86 -115z" />
    <glyph glyph-name="longs" unicode="&#x17f;" horiz-adv-x="309" 
d="M59 -1v564c0 161 96 228 237 215v-87c-87 9 -142 -13 -142 -128v-564h-95z" />
    <glyph glyph-name="t" unicode="t" horiz-adv-x="293" 
d="M64 161v526l93 11v-116h101v-90h-101v-328c0 -59 27 -86 105 -76v-88c-155 -17 -198 52 -198 161z" />
    <glyph glyph-name="tbar" unicode="&#x167;" horiz-adv-x="282" 
d="M13 311v60h51v316l93 11v-116h101v-90h-101v-121h70v-60h-70v-147c0 -59 27 -86 105 -76v-88c-155 -17 -198 52 -198 161v150h-51z" />
    <glyph glyph-name="tcaron" unicode="&#x165;" horiz-adv-x="398" 
d="M320 702h83l-51 -166h-61zM64 161v526l93 11v-116h73v-86h-73v-332c0 -59 27 -86 105 -76v-88c-155 -17 -198 52 -198 161z" />
    <glyph glyph-name="u" unicode="u" horiz-adv-x="571" 
d="M501 581v-581h-85l-6 62c-35 -57 -93 -69 -150 -69c-129 0 -194 55 -194 211v377h96v-376c0 -83 45 -125 114 -125c72 0 129 41 129 124v377h96z" />
    <glyph glyph-name="ubreve" unicode="&#x16d;" horiz-adv-x="583" 
d="M513 581v-581h-85l-6 62c-35 -57 -93 -69 -150 -69c-129 0 -194 55 -194 211v377h96v-376c0 -83 45 -125 114 -125c72 0 129 41 129 124v377h96zM304 642c-91 0 -131 44 -127 131h71c0 -37 6 -65 56 -65s55 28 55 65h71c4 -87 -35 -131 -126 -131z" />
    <glyph glyph-name="uhungarumlaut" unicode="&#x171;" horiz-adv-x="583" 
d="M513 581v-581h-85l-6 62c-35 -57 -93 -69 -150 -69c-129 0 -194 55 -194 211v377h96v-376c0 -83 45 -125 114 -125c72 0 129 41 129 124v377h96zM175 661l65 114h94v-2l-79 -112h-80zM329 660l65 115h94v-2l-78 -113h-81z" />
    <glyph glyph-name="umacron" unicode="&#x16b;" horiz-adv-x="583" 
d="M190 757h228v-76h-228v76zM513 581v-581h-85l-6 62c-35 -57 -93 -69 -150 -69c-129 0 -194 55 -194 211v377h96v-376c0 -83 45 -125 114 -125c72 0 129 41 129 124v377h96z" />
    <glyph glyph-name="uni021B" unicode="&#x21b;" horiz-adv-x="291" 
d="M116 -240l-39 48c59 36 62 75 62 136h86c0 -97 -24 -148 -109 -184zM64 161v526l93 11v-116h101v-90h-101v-328c0 -59 27 -86 105 -76v-88c-155 -17 -198 52 -198 161z" />
    <glyph glyph-name="uogonek" unicode="&#x173;" horiz-adv-x="585" 
d="M513 581v-613c-59 10 -97 -33 -85 -70c6 -17 19 -29 44 -28c18 1 34 8 50 24l38 -44c-22 -26 -54 -39 -85 -41c-52 -2 -95 19 -110 66c-14 41 3 102 63 123l-6 64c-35 -57 -93 -69 -150 -69c-129 0 -194 55 -194 211v377h96v-376c0 -83 45 -125 114 -125
c72 0 129 41 129 124v377h96z" />
    <glyph glyph-name="uring" unicode="&#x16f;" horiz-adv-x="583" 
d="M513 581v-581h-85l-6 62c-35 -57 -93 -69 -150 -69c-129 0 -194 55 -194 211v377h96v-376c0 -83 45 -125 114 -125c72 0 129 41 129 124v377h96zM201 704c0 59 51 90 104 90c52 0 105 -30 105 -89c0 -60 -49 -92 -106 -92s-104 32 -103 91zM305 743c-59 0 -59 -79 0 -79
c63 0 61 79 0 79z" />
    <glyph glyph-name="utilde" unicode="&#x169;" horiz-adv-x="583" 
d="M513 581v-581h-85l-6 62c-35 -57 -93 -69 -150 -69c-129 0 -194 55 -194 211v377h96v-376c0 -83 45 -125 114 -125c72 0 129 41 129 124v377h96zM214 675l-55 26c14 60 66 91 122 71l45 -21c21 -8 41 -5 51 26l57 -23c-14 -71 -69 -93 -116 -74l-44 20
c-22 8 -48 7 -60 -25z" />
    <glyph glyph-name="v" unicode="v" horiz-adv-x="447" 
d="M102 585l60 -195c26 -88 47 -184 62 -258c15 76 33 173 62 260l60 193h99l-173 -586h-96l-173 586h99z" />
    <glyph glyph-name="w" unicode="w" horiz-adv-x="743" 
d="M574 390l60 195h100l-168 -586h-95l-48 171l-52 227l-53 -230l-47 -168h-95l-168 586h100l60 -195c26 -88 41 -184 56 -258c15 76 31 153 58 260l54 193h70l55 -193c27 -107 42 -184 57 -260c15 74 30 170 56 258z" />
    <glyph glyph-name="wacute" unicode="&#x1e83;" horiz-adv-x="747" 
d="M574 390l60 195h100l-168 -586h-95l-48 171l-52 227l-53 -230l-47 -168h-95l-168 586h100l60 -195c26 -88 41 -184 56 -258c15 76 31 153 58 260l54 193h70l55 -193c27 -107 42 -184 57 -260c15 74 30 170 56 258zM407 647h-76v5l53 127h94v-3z" />
    <glyph glyph-name="wcircumflex" unicode="&#x175;" horiz-adv-x="733" 
d="M574 390l60 195h100l-168 -586h-95l-48 171l-52 227l-53 -230l-47 -168h-95l-168 586h100l60 -195c26 -88 41 -184 56 -258c15 76 31 153 58 260l54 193h70l55 -193c27 -107 42 -184 57 -260c15 74 30 170 56 258zM340 780h57l124 -122v-7h-93l-57 57l-58 -57h-93v7z" />
    <glyph glyph-name="wdieresis" unicode="&#x1e85;" horiz-adv-x="744" 
d="M201 719c0 73 109 73 109 0c0 -71 -109 -71 -109 0zM435 718c0 73 108 73 108 1c0 -71 -108 -71 -108 -1zM574 390l60 195h100l-168 -586h-95l-48 171l-52 227l-53 -230l-47 -168h-95l-168 586h100l60 -195c26 -88 41 -184 56 -258c15 76 31 153 58 260l54 193h70
l55 -193c27 -107 42 -184 57 -260c15 74 30 170 56 258z" />
    <glyph glyph-name="wgrave" unicode="&#x1e81;" horiz-adv-x="754" 
d="M335 649l-71 129v3h97l53 -127v-5h-79zM574 390l60 195h100l-168 -586h-95l-48 171l-52 227l-53 -230l-47 -168h-95l-168 586h100l60 -195c26 -88 41 -184 56 -258c15 76 31 153 58 260l54 193h70l55 -193c27 -107 42 -184 57 -260c15 74 30 170 56 258z" />
    <glyph glyph-name="x" unicode="x" horiz-adv-x="475" 
d="M360 0l-59 102l-65 123l-65 -124l-58 -101h-104l173 295l-167 288h107l55 -93l60 -116l62 117l54 92h104l-166 -287l176 -296h-107z" />
    <glyph glyph-name="y" unicode="y" horiz-adv-x="491" 
d="M175 397l75 -271c11 57 28 131 73 277l57 182h99l-183 -586l-35 -111c-37 -118 -102 -147 -213 -102l17 81c41 -17 88 -26 112 49l24 83l-186 586h104z" />
    <glyph glyph-name="ycircumflex" unicode="&#x177;" horiz-adv-x="479" 
d="M175 397l75 -271c11 57 28 131 73 277l57 182h99l-183 -586l-35 -111c-37 -118 -102 -147 -213 -102l17 81c41 -17 88 -26 112 49l24 83l-186 586h104zM218 786h57l124 -122v-7h-93l-57 57l-58 -57h-93v7z" />
    <glyph glyph-name="ygrave" unicode="&#x1ef3;" horiz-adv-x="487" 
d="M175 397l75 -271c11 57 28 131 73 277l57 182h99l-183 -586l-35 -111c-37 -118 -102 -147 -213 -102l17 81c41 -17 88 -26 112 49l24 83l-186 586h104zM220 647l-71 129v3h97l53 -127v-5h-79z" />
    <glyph glyph-name="z" unicode="z" horiz-adv-x="486" 
d="M31 0v15l288 483h-261v87h402v-17l-284 -479h290v-89h-435z" />
    <glyph glyph-name="zacute" unicode="&#x17a;" horiz-adv-x="481" 
d="M31 0v15l288 483h-261v87h402v-17l-284 -479h290v-89h-435zM286 647h-76v5l53 127h94v-3z" />
    <glyph glyph-name="zdotaccent" unicode="&#x17c;" horiz-adv-x="481" 
d="M31 0v15l288 483h-261v87h402v-17l-284 -479h290v-89h-435zM203 719c0 73 115 76 115 0c0 -71 -115 -76 -115 0z" />
    <glyph glyph-name="fi" unicode="&#xfb01;" horiz-adv-x="543" 
d="M3 472v85h81v22c0 164 90 209 223 200v-87c-79 7 -128 -4 -128 -113v-20h293v-559h-95v472h-198v-473h-95v473h-81zM369 719c0 73 115 76 115 0c0 -71 -115 -76 -115 0z" />
    <glyph glyph-name="fl" unicode="&#xfb02;" horiz-adv-x="555" 
d="M59 -1v564c0 161 96 228 237 215v-87c-87 9 -142 -13 -142 -128v-20h125v-88h-125v-456h-95zM372 152v620h93v-619c0 -47 18 -59 60 -59v-94c-114 0 -153 29 -153 152z" />
    <glyph glyph-name="a.alt" horiz-adv-x="556" 
d="M495 380v-380h-80l-12 77c-14 -39 -61 -80 -137 -80c-135 0 -203 69 -203 201v182c0 151 93 208 218 208c134 0 214 -61 214 -208zM400 380c0 98 -53 120 -119 120c-77 0 -122 -40 -122 -120v-171c0 -92 39 -123 107 -123c82 0 134 32 134 153v141z" />
    <glyph glyph-name="aacute.alt" horiz-adv-x="556" 
d="M495 380v-380h-80l-12 77c-14 -39 -61 -80 -137 -80c-135 0 -203 69 -203 201v182c0 151 93 208 218 208c134 0 214 -61 214 -208zM400 380c0 98 -53 120 -119 120c-77 0 -122 -40 -122 -120v-171c0 -92 39 -123 107 -123c82 0 134 32 134 153v141zM318 641h-76v5l53 127
h94v-3z" />
    <glyph glyph-name="abreve.alt" horiz-adv-x="556" 
d="M495 380v-380h-80l-12 77c-14 -39 -61 -80 -137 -80c-135 0 -203 69 -203 201v182c0 151 93 208 218 208c134 0 214 -61 214 -208zM400 380c0 98 -53 120 -119 120c-77 0 -122 -40 -122 -120v-171c0 -92 39 -123 107 -123c82 0 134 32 134 153v141zM292 642
c-91 0 -131 44 -127 131h71c0 -37 6 -65 56 -65s55 28 55 65h71c4 -87 -35 -131 -126 -131z" />
    <glyph glyph-name="acircumflex.alt" horiz-adv-x="555" 
d="M495 380v-380h-80l-12 77c-14 -39 -61 -80 -137 -80c-135 0 -203 69 -203 201v182c0 151 93 208 218 208c134 0 214 -61 214 -208zM400 380c0 98 -53 120 -119 120c-77 0 -122 -40 -122 -120v-171c0 -92 39 -123 107 -123c82 0 134 32 134 153v141zM254 776h57l124 -122
v-7h-93l-57 57l-58 -57h-93v7z" />
    <glyph glyph-name="adieresis.alt" horiz-adv-x="554" 
d="M495 380v-380h-80l-12 77c-14 -39 -61 -80 -137 -80c-135 0 -203 69 -203 201v182c0 151 93 208 218 208c134 0 214 -61 214 -208zM400 380c0 98 -53 120 -119 120c-77 0 -122 -40 -122 -120v-171c0 -92 39 -123 107 -123c82 0 134 32 134 153v141zM124 720
c0 73 115 76 115 0c0 -71 -115 -76 -115 0zM342 720c0 73 115 76 115 0c0 -71 -115 -76 -115 0z" />
    <glyph glyph-name="agrave.alt" horiz-adv-x="556" 
d="M495 380v-380h-80l-12 77c-14 -39 -61 -80 -137 -80c-135 0 -203 69 -203 201v182c0 151 93 208 218 208c134 0 214 -61 214 -208zM400 380c0 98 -53 120 -119 120c-77 0 -122 -40 -122 -120v-171c0 -92 39 -123 107 -123c82 0 134 32 134 153v141zM245 645l-71 129v3h97
l53 -127v-5h-79z" />
    <glyph glyph-name="amacron.alt" horiz-adv-x="554" 
d="M495 380v-380h-80l-12 77c-14 -39 -61 -80 -137 -80c-135 0 -203 69 -203 201v182c0 151 93 208 218 208c134 0 214 -61 214 -208zM400 380c0 98 -53 120 -119 120c-77 0 -122 -40 -122 -120v-171c0 -92 39 -123 107 -123c82 0 134 32 134 153v141zM170 775h246v-79h-246
v79z" />
    <glyph glyph-name="aogonek.alt" horiz-adv-x="555" 
d="M415 0l-12 77c-14 -39 -61 -80 -137 -80c-135 0 -203 69 -203 201v182c0 151 93 208 218 208c134 0 214 -61 214 -208v-380c-50 -20 -71 -58 -71 -73c0 -27 18 -33 35 -33c14 0 28 1 36 2v-85c-71 -4 -160 3 -160 85c0 49 42 84 80 104zM400 380c0 98 -53 120 -119 120
c-77 0 -122 -40 -122 -120v-171c0 -92 39 -123 107 -123c82 0 134 32 134 153v141z" />
    <glyph glyph-name="aring.alt" horiz-adv-x="556" 
d="M495 380v-380h-80l-12 77c-14 -39 -61 -80 -137 -80c-135 0 -203 69 -203 201v182c0 151 93 208 218 208c134 0 214 -61 214 -208zM400 380c0 98 -53 120 -119 120c-77 0 -122 -40 -122 -120v-171c0 -92 39 -123 107 -123c82 0 134 32 134 153v141zM186 730
c0 61 51 94 106 94c53 0 108 -32 108 -94c0 -61 -51 -95 -109 -95c-59 0 -106 34 -105 95zM292 770c-60 0 -60 -81 0 -81c64 0 62 81 0 81z" />
    <glyph glyph-name="aringacute.alt" horiz-adv-x="555" 
d="M304 905h95l-63 -84h-73v3zM188 708v-2c0 -57 46 -88 104 -88c55 0 104 31 104 89s-52 88 -104 88c-53 0 -104 -30 -104 -87zM291 744h-1c61 0 63 -77 1 -77c-60 0 -60 77 0 77zM495 380v-380h-80l-12 77c-14 -39 -61 -80 -137 -80c-135 0 -203 69 -203 201v182
c0 151 93 208 218 208c134 0 214 -61 214 -208zM400 380c0 98 -53 120 -119 120c-77 0 -122 -40 -122 -120v-171c0 -92 39 -123 107 -123c82 0 134 32 134 153v141z" />
    <glyph glyph-name="atilde.alt" horiz-adv-x="553" 
d="M495 380v-380h-80l-12 77c-14 -39 -61 -80 -137 -80c-135 0 -203 69 -203 201v182c0 151 93 208 218 208c134 0 214 -61 214 -208zM400 380c0 98 -53 120 -119 120c-77 0 -122 -40 -122 -120v-171c0 -92 39 -123 107 -123c82 0 134 32 134 153v141zM203 676l-55 26
c14 60 66 91 122 71l45 -21c21 -8 41 -5 51 26l57 -23c-14 -71 -69 -93 -116 -74l-44 20c-22 8 -48 7 -60 -25z" />
    <glyph glyph-name="g.alt" horiz-adv-x="586" 
d="M59 -105l49 71c40 -48 92 -75 164 -75c80 0 159 27 159 113c0 27 -1 54 -25 85c-200 -61 -355 -6 -355 224v29c0 174 74 249 229 249c63 0 113 -12 150 -37c23 31 70 51 119 51l14 -83c-37 -6 -55 -16 -75 -37c14 -33 21 -75 21 -146v-25c0 -80 -19 -130 -42 -166
c50 -46 62 -92 62 -141c0 -158 -114 -207 -256 -207c-96 0 -163 31 -214 95zM280 156c105 0 133 62 133 168v12c0 106 -28 168 -133 168s-133 -62 -133 -168v-12c0 -106 28 -168 133 -168z" />
    <glyph glyph-name="gbreve.alt" horiz-adv-x="585" 
d="M59 -105l49 71c40 -48 92 -75 164 -75c80 0 159 27 159 113c0 27 -1 54 -25 85c-200 -61 -355 -6 -355 224v29c0 174 74 249 229 249c63 0 113 -12 150 -37c23 31 70 51 119 51l14 -83c-37 -6 -55 -16 -75 -37c14 -33 21 -75 21 -146v-25c0 -80 -19 -130 -42 -166
c50 -46 62 -92 62 -141c0 -158 -114 -207 -256 -207c-96 0 -163 31 -214 95zM280 156c105 0 133 62 133 168v12c0 106 -28 168 -133 168s-133 -62 -133 -168v-12c0 -106 28 -168 133 -168zM288 648c-91 0 -131 44 -127 131h71c0 -37 6 -65 56 -65s55 28 55 65h71
c4 -87 -35 -131 -126 -131z" />
    <glyph glyph-name="gcircumflex.alt" horiz-adv-x="585" 
d="M59 -105l49 71c40 -48 92 -75 164 -75c80 0 159 27 159 113c0 27 -1 54 -25 85c-200 -61 -355 -6 -355 224v29c0 174 74 249 229 249c63 0 113 -12 150 -37c23 31 70 51 119 51l14 -83c-37 -6 -55 -16 -75 -37c14 -33 21 -75 21 -146v-25c0 -80 -19 -130 -42 -166
c50 -46 62 -92 62 -141c0 -158 -114 -207 -256 -207c-96 0 -163 31 -214 95zM280 156c105 0 133 62 133 168v12c0 106 -28 168 -133 168s-133 -62 -133 -168v-12c0 -106 28 -168 133 -168zM258 780h57l124 -122v-7h-93l-57 57l-58 -57h-93v7z" />
    <glyph glyph-name="gcommaaccent.alt" horiz-adv-x="585" 
d="M59 -105l49 71c40 -48 92 -75 164 -75c80 0 159 27 159 113c0 27 -1 54 -25 85c-200 -61 -355 -6 -355 224v29c0 174 74 249 229 249c63 0 113 -12 150 -37c23 31 70 51 119 51l14 -83c-37 -6 -55 -16 -75 -37c14 -33 21 -75 21 -146v-25c0 -80 -19 -130 -42 -166
c50 -46 62 -92 62 -141c0 -158 -114 -207 -256 -207c-96 0 -163 31 -214 95zM280 156c105 0 133 62 133 168v12c0 106 -28 168 -133 168s-133 -62 -133 -168v-12c0 -106 28 -168 133 -168zM365 831l33 -42c-64 -35 -67 -74 -67 -134h-93c0 96 35 140 127 176z" />
    <glyph glyph-name="gdotaccent.alt" horiz-adv-x="585" 
d="M229 723c0 75 120 75 120 -1c0 -75 -120 -75 -120 1zM59 -105l49 71c40 -48 92 -75 164 -75c80 0 159 27 159 113c0 27 -1 54 -25 85c-200 -61 -355 -6 -355 224v29c0 174 74 249 229 249c63 0 113 -12 150 -37c23 31 70 51 119 51l14 -83c-37 -6 -55 -16 -75 -37
c14 -33 21 -75 21 -146v-25c0 -80 -19 -130 -42 -166c50 -46 62 -92 62 -141c0 -158 -114 -207 -256 -207c-96 0 -163 31 -214 95zM280 156c105 0 133 62 133 168v12c0 106 -28 168 -133 168s-133 -62 -133 -168v-12c0 -106 28 -168 133 -168z" />
    <glyph glyph-name="y.alt" horiz-adv-x="583" 
d="M404 584h95v-604c0 -159 -86 -223 -216 -223c-124 0 -198 46 -203 174h90c5 -70 51 -87 114 -87c76 0 126 30 126 136v96c-14 -39 -64 -79 -140 -79c-135 0 -203 69 -203 201v386h96v-375c0 -92 39 -123 107 -123c82 0 134 32 134 153v345z" />
    <glyph glyph-name="yacute.alt" horiz-adv-x="583" 
d="M404 584h95v-604c0 -159 -86 -223 -216 -223c-124 0 -198 46 -203 174h90c5 -70 51 -87 114 -87c76 0 126 30 126 136v96c-14 -39 -64 -79 -140 -79c-135 0 -203 69 -203 201v386h96v-375c0 -92 39 -123 107 -123c82 0 134 32 134 153v345zM324 641h-76v5l53 127h94v-3z
" />
    <glyph glyph-name="ycircumflex.alt" horiz-adv-x="581" 
d="M404 584h95v-604c0 -159 -86 -223 -216 -223c-124 0 -198 46 -203 174h90c5 -70 51 -87 114 -87c76 0 126 30 126 136v96c-14 -39 -64 -79 -140 -79c-135 0 -203 69 -203 201v386h96v-375c0 -92 39 -123 107 -123c82 0 134 32 134 153v345zM253 776h57l124 -122v-7h-93
l-57 57l-58 -57h-93v7z" />
    <glyph glyph-name="ydieresis.alt" horiz-adv-x="583" 
d="M404 584h95v-604c0 -159 -86 -223 -216 -223c-124 0 -198 46 -203 174h90c5 -70 51 -87 114 -87c76 0 126 30 126 136v96c-14 -39 -64 -79 -140 -79c-135 0 -203 69 -203 201v386h96v-375c0 -92 39 -123 107 -123c82 0 134 32 134 153v345zM128 720c0 73 115 76 115 0
c0 -71 -115 -76 -115 0zM346 720c0 73 115 76 115 0c0 -71 -115 -76 -115 0z" />
    <glyph glyph-name="ygrave.alt" horiz-adv-x="583" 
d="M404 584h95v-604c0 -159 -86 -223 -216 -223c-124 0 -198 46 -203 174h90c5 -70 51 -87 114 -87c76 0 126 30 126 136v96c-14 -39 -64 -79 -140 -79c-135 0 -203 69 -203 201v386h96v-375c0 -92 39 -123 107 -123c82 0 134 32 134 153v345zM251 641l-71 129v3h97l53 -127
v-5h-79z" />
    <glyph glyph-name="mu" unicode="&#x3bc;" horiz-adv-x="543" 
d="M59 -221v1v801h99v-369c0 -98 42 -137 117 -137c73 0 115 36 115 149v356h95v-580h-81l-10 55c-19 -52 -67 -81 -122 -81s-101 17 -120 69v-264h-93z" />
    <glyph glyph-name="zero" unicode="0" horiz-adv-x="516" 
d="M264 77c70 0 109 30 109 136v349c0 106 -39 126 -109 126c-72 0 -117 -20 -117 -126v-349c0 -106 32 -136 117 -136zM264 -10c-150 0 -212 64 -212 223v349c0 155 86 210 212 210c120 0 204 -55 204 -210v-349c0 -159 -61 -223 -204 -223z" />
    <glyph glyph-name="one" unicode="1" horiz-adv-x="379" 
d="M24 0v81h125v606h-98v85h193v-691h119v-81h-339z" />
    <glyph glyph-name="two" unicode="2" horiz-adv-x="514" 
d="M50 0v152c0 327 326 244 326 429c0 76 -36 113 -117 113c-74 0 -115 -40 -115 -129h-95c0 150 85 216 214 216c128 0 209 -62 209 -199c0 -279 -325 -156 -325 -429v-59h319v-94h-416z" />
    <glyph glyph-name="three" unicode="3" horiz-adv-x="518" 
d="M34 218h91c0 -91 34 -132 118 -132c82 0 126 39 126 141c0 112 -61 146 -133 146h-79v45l161 270h-258v84h407v-11l-181 -306c122 -14 183 -82 183 -227c0 -144 -75 -232 -225 -232c-154 0 -210 73 -210 222z" />
    <glyph glyph-name="four" unicode="4" horiz-adv-x="547" 
d="M326 167h-314l-14 77l334 529h89v-519h68v-87h-68v-167h-95v167zM326 254v351l-217 -351h217z" />
    <glyph glyph-name="five" unicode="5" horiz-adv-x="519" 
d="M40 228h94c0 -101 43 -143 121 -143c72 0 129 35 129 155v27c0 114 -26 142 -122 142h-209v362h401v-89h-308v-183h118c161 0 215 -65 215 -230v-30c0 -172 -93 -246 -224 -246c-129 0 -215 59 -215 235z" />
    <glyph glyph-name="six" unicode="6" horiz-adv-x="546" 
d="M420 773l2 -7c-87 -60 -184 -143 -223 -219c38 10 72 12 103 12c116 0 191 -62 191 -204v-142c0 -159 -61 -223 -219 -223s-219 64 -219 223v142c0 185 110 331 239 418h126zM274 81c85 0 124 26 124 132v142c0 97 -39 122 -124 122s-124 -25 -124 -122v-142
c0 -106 39 -132 124 -132z" />
    <glyph glyph-name="seven" unicode="7" horiz-adv-x="450" 
d="M429 772v-23l-260 -749h-103l240 682h-293v90h416z" />
    <glyph glyph-name="eight" unicode="8" horiz-adv-x="548" 
d="M269 -9c-155 0 -229 75 -229 239c0 120 32 171 88 202c-57 37 -73 96 -73 151c0 127 83 202 214 202c141 0 211 -91 211 -204c0 -63 -25 -112 -73 -145c60 -33 91 -79 91 -201c0 -169 -76 -244 -229 -244zM269 82c97 0 123 55 123 151c0 97 -26 158 -123 160
c-98 -2 -123 -64 -123 -160s26 -151 123 -151zM150 580c0 -66 48 -104 118 -104c83 0 114 40 114 104c0 69 -33 113 -113 113s-119 -44 -119 -113z" />
    <glyph glyph-name="nine" unicode="9" horiz-adv-x="546" 
d="M132 0l-2 7c87 60 180 143 219 219c-38 -10 -72 -12 -103 -12c-116 0 -191 62 -191 204v142c0 159 61 223 219 223s219 -64 219 -223v-142c0 -185 -103 -331 -232 -418h-129zM274 692c-85 0 -124 -26 -124 -132v-142c0 -97 39 -122 124 -122s124 25 124 122v142
c0 106 -39 132 -124 132z" />
    <glyph glyph-name="fraction" unicode="&#x2044;" horiz-adv-x="163" 
d="M-133 -3l356 778h94l-356 -778h-94z" />
    <glyph glyph-name="onehalf" unicode="&#xbd;" horiz-adv-x="811" 
d="M155 -2l370 776h80l-372 -776h-78zM52 359v64h64v287h-48v63h116v-350h60v-64h-192zM491 0v88c0 101 58 129 106 152c29 14 54 34 54 65c0 27 -11 44 -43 44c-27 0 -47 -15 -44 -60h-68c-6 96 43 130 114 130c70 0 114 -38 114 -114c0 -75 -46 -103 -89 -123
c-35 -17 -69 -27 -69 -93v-15h160v-74h-235z" />
    <glyph glyph-name="onequarter" unicode="&#xbc;" horiz-adv-x="757" 
d="M155 -2l370 776h80l-372 -776h-78zM598 83h-161l-9 53l162 269h82v-252h40v-70h-40v-84h-74v84zM599 153v65l10 96l-88 -161h78zM52 359v64h64v287h-48v63h116v-350h60v-64h-192z" />
    <glyph glyph-name="threequarters" unicode="&#xbe;" horiz-adv-x="805" 
d="M185 -2l370 776h80l-372 -776h-78zM628 83h-161l-9 53l162 269h82v-252h40v-70h-40v-84h-74v84zM629 153v65l10 96l-88 -161h78zM58 486h74c1 -41 17 -60 48 -60c30 0 48 16 48 58c0 44 -20 55 -48 55h-32v71h32c22 1 45 12 45 53c0 29 -16 44 -43 44
c-25 0 -47 -17 -47 -60h-72c0 89 40 128 120 129c66 0 118 -32 118 -113c0 -27 -15 -69 -46 -84c37 -16 51 -46 51 -95c0 -81 -44 -131 -127 -131c-86 0 -121 45 -121 133z" />
    <glyph glyph-name="ordfeminine" unicode="&#xaa;" horiz-adv-x="449" 
d="M64 285h329v-77h-329v77zM394 609v-252h-64l-10 62c-11 -31 -48 -64 -109 -64c-109 0 -163 55 -163 161v93c0 121 75 167 175 167c107 0 171 -49 171 -167zM318 609c0 79 -42 96 -95 96c-62 0 -98 -31 -98 -96v-84c0 -73 31 -99 86 -99c66 0 107 27 107 123v60z" />
    <glyph glyph-name="ordmasculine" unicode="&#xba;" horiz-adv-x="437" 
d="M218 438c-95 0 -171 61 -171 170c0 108 75 168 170 168s170 -60 170 -167c0 -108 -76 -171 -169 -171zM218 509c57 0 96 39 96 99s-43 101 -97 101s-95 -41 -95 -100c0 -60 38 -100 96 -100zM65 375h306v-77h-306v77z" />
    <glyph glyph-name="onesuperior" unicode="&#xb9;" horiz-adv-x="265" 
d="M38 359v64h64v287h-48v63h116v-350h60v-64h-192z" />
    <glyph glyph-name="twosuperior" unicode="&#xb2;" horiz-adv-x="317" 
d="M39 361v88c0 101 58 129 106 152c29 14 54 34 54 65c0 27 -11 44 -43 44c-27 0 -47 -15 -44 -60h-68c-6 96 43 130 114 130c70 0 114 -38 114 -114c0 -75 -46 -103 -89 -123c-35 -17 -69 -27 -69 -93v-15h157v-74h-232z" />
    <glyph glyph-name="threesuperior" unicode="&#xb3;" horiz-adv-x="312" 
d="M28 486h74c1 -41 17 -60 48 -60c30 0 48 16 48 58c0 44 -20 55 -48 55h-32v71h32c22 1 45 12 45 53c0 29 -16 44 -43 44c-25 0 -47 -17 -47 -60h-72c0 89 40 128 120 129c66 0 118 -32 118 -113c0 -27 -15 -69 -46 -84c37 -16 51 -46 51 -95c0 -81 -44 -131 -127 -131
c-86 0 -121 45 -121 133z" />
    <glyph glyph-name="asterisk" unicode="*" horiz-adv-x="320" 
d="M300 588l-79 -79l-46 75l-21 1l-46 -75l-78 78l73 46l1 21l-75 46l79 79l45 -74l22 -2l46 76l79 -78l-75 -46l-1 -21z" />
    <glyph glyph-name="backslash" unicode="\" horiz-adv-x="372" 
d="M45 770h80l209 -771h-80z" />
    <glyph glyph-name="bullet" unicode="&#x2022;" horiz-adv-x="405" 
d="M203 209v1c-64 0 -112 43 -112 109s48 110 112 110c62 0 110 -44 110 -111c0 -66 -48 -109 -110 -109z" />
    <glyph glyph-name="colon" unicode=":" horiz-adv-x="209" 
d="M50 49c0 73 115 76 115 0c0 -71 -115 -76 -115 0zM50 425c0 73 115 76 115 0c0 -71 -115 -76 -115 0z" />
    <glyph glyph-name="comma" unicode="," horiz-adv-x="189" 
d="M30 -152l-30 49c57 42 60 88 60 159h83c0 -114 -31 -165 -113 -208z" />
    <glyph glyph-name="exclam" unicode="!" horiz-adv-x="228" 
d="M165 166h-95v607h95v-607zM60 49c0 73 115 76 115 0c0 -71 -115 -76 -115 0z" />
    <glyph glyph-name="numbersign" unicode="#" horiz-adv-x="731" 
d="M85 436l21 84h124l62 253h83l-62 -253h175l62 253h83l-62 -253h135l-21 -84h-135l-33 -134h135l-21 -84h-134l-54 -220h-84l54 220h-175l-54 -220h-83l54 220h-123l21 84h123l33 134h-124zM292 436l-33 -134h175l33 134h-175z" />
    <glyph glyph-name="period" unicode="." horiz-adv-x="201" 
d="M50 49c0 73 115 76 115 0c0 -71 -115 -76 -115 0z" />
    <glyph glyph-name="periodcentered" unicode="&#xb7;" horiz-adv-x="201" 
d="M47 331c0 73 115 76 115 0c0 -71 -115 -76 -115 0z" />
    <glyph glyph-name="question" unicode="?" horiz-adv-x="490" 
d="M122 581h-92c0 119 24 211 208 211c131 0 202 -73 202 -232v-44c0 -233 -191 -169 -191 -349h-90c0 231 186 163 186 348v42c-2 109 -35 145 -112 145c-86 0 -111 -26 -111 -121zM153 49c0 73 115 76 115 0c0 -71 -115 -76 -115 0z" />
    <glyph glyph-name="quotedbl" unicode="&#x22;" horiz-adv-x="265" 
d="M111 589h-73l-3 183h79zM238 589h-73l-3 183h79z" />
    <glyph glyph-name="quotesingle" unicode="'" horiz-adv-x="147" 
d="M111 589h-73l-3 183h79z" />
    <glyph glyph-name="semicolon" unicode=";" horiz-adv-x="223" 
d="M57 425c0 73 115 76 115 0c0 -71 -115 -76 -115 0zM44 -152l-30 49c57 42 60 88 60 159h83c0 -114 -31 -165 -113 -208z" />
    <glyph glyph-name="slash" unicode="/" horiz-adv-x="372" 
d="M249 770h80l-209 -771h-80z" />
    <glyph glyph-name="underscore" unicode="_" horiz-adv-x="538" 
d="M35 -9h470v-80h-470v80z" />
    <glyph glyph-name="braceleft" unicode="{" horiz-adv-x="320" 
d="M298 -131l-1 -1c-135 -22 -181 30 -181 149v221c0 47 -10 102 -75 102v63c65 0 75 55 75 102v180c0 119 50 174 181 149v-67c-77 15 -99 -4 -99 -85v-177c0 -57 1 -114 -70 -133c72 -19 71 -78 71 -133v-218c0 -81 18 -94 98 -83z" />
    <glyph glyph-name="braceright" unicode="}" horiz-adv-x="339" 
d="M36 -132l-1 1l1 69c80 -11 98 2 98 83v218c0 55 -1 114 71 133c-71 19 -70 76 -70 133v177c0 81 -22 100 -99 85v67c131 25 181 -30 181 -149v-180c0 -47 10 -102 75 -102v-63c-65 0 -75 -55 -75 -102v-221c0 -119 -46 -171 -181 -149z" />
    <glyph glyph-name="bracketleft" unicode="[" horiz-adv-x="332" 
d="M91 775h208v-75h-124v-733h124v-76h-208v884z" />
    <glyph glyph-name="bracketright" unicode="]" horiz-adv-x="341" 
d="M250 -106h-208v76h124v733h-124v75h208v-884z" />
    <glyph glyph-name="parenleft" unicode="(" horiz-adv-x="258" 
d="M155 585v-512c0 -64 12 -105 80 -105v-98c-125 0 -177 73 -177 202v514c0 129 52 202 177 202v-98c-68 0 -80 -41 -80 -105z" />
    <glyph glyph-name="parenright" unicode=")" horiz-adv-x="267" 
d="M111 73v512c0 64 -12 105 -80 105v98c125 0 177 -73 177 -202v-514c0 -129 -52 -202 -177 -202v98c68 0 80 41 80 105z" />
    <glyph glyph-name="emdash" unicode="&#x2014;" horiz-adv-x="714" 
d="M77 378h560v-77h-560v77z" />
    <glyph glyph-name="endash" unicode="&#x2013;" horiz-adv-x="612" 
d="M77 376h458v-77h-458v77z" />
    <glyph glyph-name="hyphen" unicode="-" horiz-adv-x="493" 
d="M437 344v-87h-376v87h376z" />
    <glyph glyph-name="guillemotleft" unicode="&#xab;" horiz-adv-x="457" 
d="M187 517h88l-137 -220l137 -221h-88l-138 221zM180 297l138 220h88l-137 -220l137 -221h-88z" />
    <glyph glyph-name="guillemotright" unicode="&#xbb;" horiz-adv-x="457" 
d="M139 78h-87l136 220l-136 220h87l138 -220zM408 298l-138 -220h-87l136 220l-136 220h87z" />
    <glyph glyph-name="guilsinglleft" unicode="&#x2039;" horiz-adv-x="326" 
d="M49 298l138 220h88l-137 -220l137 -221h-88z" />
    <glyph glyph-name="guilsinglright" unicode="&#x203a;" horiz-adv-x="328" 
d="M190 297l-137 220h88l138 -220l-138 -221h-88z" />
    <glyph glyph-name="quotedblbase" unicode="&#x201e;" horiz-adv-x="397" 
d="M42 -115l47 194h88l-67 -194h-68zM188 -115l46 194h88l-67 -194h-67z" />
    <glyph glyph-name="quotedblleft" unicode="&#x201c;" horiz-adv-x="378" 
d="M180 772l-47 -193h-88l68 193h67zM326 772l-48 -193h-88l68 193h68z" />
    <glyph glyph-name="quotedblright" unicode="&#x201d;" horiz-adv-x="387" 
d="M63 581l47 190h88l-67 -190h-68zM209 581l46 190h88l-67 -190h-67z" />
    <glyph glyph-name="quoteleft" unicode="&#x2018;" horiz-adv-x="245" 
d="M193 772l-46 -191h-88l67 191h67z" />
    <glyph glyph-name="quoteright" unicode="&#x2019;" horiz-adv-x="240" 
d="M61 580l47 195h88l-67 -195h-68z" />
    <glyph glyph-name="quotesinglbase" unicode="&#x201a;" horiz-adv-x="252" 
d="M43 -115l46 194h88l-67 -194h-67z" />
    <glyph glyph-name="Amacron" unicode="&#x100;" 
d="M152 904h219v-74h-219v74zM515 0h-98l-39 143h-231l-39 -143h-99l205 769h97zM313 397l-51 248l-52 -251l-39 -161h182z" />
    <glyph glyph-name="Abreve" unicode="&#x102;" 
d="M515 0h-98l-39 143h-231l-39 -143h-99l205 769h97zM313 397l-51 248l-52 -251l-39 -161h182zM260 818c-91 0 -131 44 -127 131h71c0 -37 6 -65 56 -65s55 28 55 65h71c4 -87 -35 -131 -126 -131z" />
    <glyph glyph-name="A" unicode="A" 
d="M515 0h-98l-39 143h-231l-39 -143h-99l205 769h97zM313 397l-51 248l-52 -251l-39 -161h182z" />
    <glyph glyph-name="florin" unicode="&#x192;" horiz-adv-x="386" 
d="M27 455v88h103v20c0 161 96 228 237 215v-87c-87 9 -142 -13 -142 -128v-20h125v-88h-125v-422c0 -161 -96 -228 -237 -215v87c87 -9 142 13 142 128v422h-103z" />
    <glyph glyph-name="Euro" unicode="&#x20ac;" horiz-adv-x="537" 
d="M504 11v-3c-34 -14 -66 -22 -102 -22c-208 0 -277 116 -305 289h-68v76h59c-1 4 -1 25 -1 29c0 10 0 22 1 33h-60v77h69c26 165 118 291 304 291c31 0 59 -7 88 -18l-22 -80c-21 8 -42 11 -64 11c-143 0 -189 -81 -215 -204h216l-15 -77h-216v-31v-28h203l-12 -76h-177
c23 -122 64 -203 216 -203c28 0 53 6 80 19z" />
    <glyph glyph-name="cent" unicode="&#xa2;" horiz-adv-x="528" 
d="M311 -101h-91v94c-120 13 -170 79 -170 220v166c0 134 70 196 174 210v99h93v-98c108 -13 171 -53 171 -196h-95c0 94 -39 113 -124 113s-124 -31 -124 -128v-166c0 -106 39 -134 124 -134s124 17 124 123h95c0 -143 -53 -199 -177 -210v-93z" />
    <glyph glyph-name="dollar" unicode="$" horiz-adv-x="552" 
d="M331 -105h-89v103c-131 12 -192 86 -198 206h103c5 -65 34 -115 133 -115h19c104 0 125 49 125 139c0 126 -83 128 -179 136c-90 7 -193 51 -193 198c0 131 55 205 190 216v97h89v-99c115 -15 164 -84 170 -195h-99c-5 63 -27 108 -123 108c-107 0 -128 -49 -128 -126
c0 -107 93 -106 190 -116c89 -9 181 -53 181 -214c0 -155 -55 -227 -191 -236v-102z" />
    <glyph glyph-name="sterling" unicode="&#xa3;" horiz-adv-x="548" 
d="M500 589h-87c0 69 -39 104 -93 104c-60 0 -98 -38 -98 -116v-133h179v-92h-179v-262h281v-90h-470v91h96v261h-96v92h96v130c0 127 63 206 191 206c109 0 180 -66 180 -191z" />
    <glyph glyph-name="yen" unicode="&#xa5;" horiz-adv-x="506" 
d="M187 622l68 -192l68 192l62 150h103l-161 -387h89v-73h-114v-38h115v-71h-115v-204h-95v204h-110v71h110v38h-110v73h84l-159 387h103z" />
    <glyph glyph-name="asciitilde" unicode="~" horiz-adv-x="646" 
d="M511 361l62 -24c-32 -90 -101 -137 -195 -94l-129 63c-44 16 -87 18 -116 -58l-57 24c30 88 111 139 196 98l127 -62c49 -25 87 -8 112 53z" />
    <glyph glyph-name="divide" unicode="&#xf7;" horiz-adv-x="510" 
d="M195 495c0 71 107 71 107 0c0 -70 -107 -70 -107 0zM35 289h424v81h-424v-81zM195 159c0 71 107 71 107 0c0 -70 -107 -70 -107 0z" />
    <glyph glyph-name="equal" unicode="=" horiz-adv-x="570" 
d="M78 458h414v-77h-414v77zM78 247h414v-77h-414v77z" />
    <glyph glyph-name="greater" unicode="&#x3e;" horiz-adv-x="386" 
d="M336 330v-28l-220 -205l-54 54l179 165l-177 165l52 54z" />
    <glyph glyph-name="less" unicode="&#x3c;" horiz-adv-x="384" 
d="M269 535l52 -56l-176 -163l179 -162l-55 -57l-219 205v28z" />
    <glyph glyph-name="logicalnot" unicode="&#xac;" horiz-adv-x="529" 
d="M446 178h-75v132h-293v75h368v-207z" />
    <glyph glyph-name="multiply" unicode="&#xd7;" horiz-adv-x="470" 
d="M124 484l110 -111l111 111l53 -52l-113 -114l115 -114l-52 -50l-113 114l-113 -114l-54 53l114 114l-112 111z" />
    <glyph glyph-name="percent" unicode="%" horiz-adv-x="787" 
d="M599 0c-99 0 -146 46 -146 148v86c0 100 47 148 146 148c101 0 148 -46 148 -148v-86c0 -102 -47 -148 -148 -148zM599 73c54 0 67 29 67 79v80c0 50 -13 77 -67 77c-51 0 -66 -27 -66 -77v-80c0 -50 15 -79 66 -79zM458 779h72l-225 -793h-74zM176 395
c-99 0 -146 46 -146 148v86c0 100 47 148 146 148c101 0 148 -46 148 -148v-86c0 -102 -47 -148 -148 -148zM176 468c54 0 67 29 67 79v80c0 50 -13 77 -67 77c-51 0 -66 -27 -66 -77v-80c0 -50 15 -79 66 -79z" />
    <glyph glyph-name="perthousand" unicode="&#x2030;" horiz-adv-x="1141" 
d="M599 0c-99 0 -146 46 -146 148v86c0 100 47 148 146 148c101 0 148 -46 148 -148v-86c0 -102 -47 -148 -148 -148zM599 73c54 0 67 29 67 79v80c0 50 -13 77 -67 77c-51 0 -66 -27 -66 -77v-80c0 -50 15 -79 66 -79zM458 779h72l-225 -793h-74zM176 395
c-99 0 -146 46 -146 148v86c0 100 47 148 146 148c101 0 148 -46 148 -148v-86c0 -102 -47 -148 -148 -148zM176 468c54 0 67 29 67 79v80c0 50 -13 77 -67 77c-51 0 -66 -27 -66 -77v-80c0 -50 15 -79 66 -79zM961 0c-99 0 -146 46 -146 148v86c0 100 47 148 146 148
c101 0 148 -46 148 -148v-86c0 -102 -47 -148 -148 -148zM961 73c54 0 67 29 67 79v80c0 50 -13 77 -67 77c-51 0 -66 -27 -66 -77v-80c0 -50 15 -79 66 -79z" />
    <glyph glyph-name="plus" unicode="+" horiz-adv-x="453" 
d="M415 400v-78h-148v-154h-87v154h-147v78h147v150h87v-150h148z" />
    <glyph glyph-name="plusminus" unicode="&#xb1;" horiz-adv-x="497" 
d="M58 410h154v157h80v-157h154v-76h-154v-158h-80v158h-154v76zM62 110h381v-76h-381v76z" />
    <glyph glyph-name="ampersand" unicode="&#x26;" horiz-adv-x="611" 
d="M567 88l-2 -99c-64 0 -100 18 -125 80c-34 -49 -81 -81 -154 -81c-138 0 -235 63 -233 228c0 102 59 163 120 196c-58 38 -90 92 -90 161c0 124 83 209 204 209c128 0 206 -70 198 -202h-87c4 76 -33 115 -111 115c-61 0 -111 -46 -111 -121c0 -60 47 -119 111 -119h295
v-84h-93v-165c0 -58 15 -118 78 -118zM396 207v164h-110c-76 0 -139 -64 -139 -159c0 -113 83 -136 139 -136c63 0 110 61 110 131z" />
    <glyph glyph-name="at" unicode="@" horiz-adv-x="683" 
d="M336 295c35 0 50 24 50 68v130h-51c-35 0 -52 -21 -52 -55v-83c0 -38 17 -60 53 -60zM418 678h-161c-100 0 -119 -42 -119 -115v-356c0 -73 19 -115 119 -115h256v-93h-286c-158 0 -182 69 -182 177v367c0 163 37 230 223 230h144c186 0 226 -67 226 -230v-193
c0 -136 -67 -157 -134 -157c-55 0 -82 33 -94 61c-18 -19 -41 -44 -95 -44c-76 0 -122 43 -122 124v120c0 81 69 123 142 123h141v-233c0 -37 0 -69 34 -69c29 0 33 24 33 67v204c0 100 -18 132 -125 132z" />
    <glyph glyph-name="bar" unicode="|" horiz-adv-x="263" 
d="M172 776v-879h-81v879h81z" />
    <glyph glyph-name="brokenbar" unicode="&#xa6;" horiz-adv-x="270" 
d="M92 408v363h86v-363h-86zM178 337v-363h-86v363h86z" />
    <glyph glyph-name="copyright" unicode="&#xa9;" horiz-adv-x="842" 
d="M423 742v-1c237 2 359 -170 359 -357c0 -202 -117 -372 -359 -372c-241 0 -362 160 -362 364c0 184 120 369 362 366zM423 671c-192 0 -288 -126 -288 -297c0 -166 95 -295 288 -295c192 0 285 126 285 303c0 166 -99 289 -285 289zM506 312h66
c-2 -107 -45 -146 -150 -146s-154 47 -154 157v114c0 107 61 150 154 150c89 0 146 -38 150 -138l-66 -1c-2 63 -32 75 -84 75c-55 0 -85 -13 -85 -86v-114c0 -74 30 -92 85 -92c56 0 84 11 84 81z" />
    <glyph glyph-name="dagger" unicode="&#x2020;" horiz-adv-x="578" 
d="M539 507h-206v-557h-87v557h-207v75h207v193h87v-193h206v-75z" />
    <glyph glyph-name="daggerdbl" unicode="&#x2021;" horiz-adv-x="623" 
d="M562 509h-207v-253h207v-75h-207v-234h-87v234h-207v75h207v253h-207v75h207v192h87v-192h207v-75z" />
    <glyph glyph-name="paragraph" unicode="&#xb6;" horiz-adv-x="646" 
d="M329 678v-887h-99v466c-157 12 -189 135 -188 256c1 130 43 260 214 260h364v-95h-87v-886h-97v886h-107z" />
    <glyph glyph-name="registered" unicode="&#xae;" horiz-adv-x="838" 
d="M421 724c234 0 364 -168 364 -370c0 -201 -130 -370 -364 -370c-232 0 -363 169 -363 370c0 202 131 370 363 370zM135 354v2c0 -168 103 -302 286 -302c184 0 288 134 288 301c0 168 -104 302 -288 302c-183 0 -286 -134 -286 -303zM571 425c0 -72 -22 -114 -84 -126
l88 -152h-78l-81 139h-52v-139h-66v427h131c79 0 142 -25 142 -131v-18zM429 509h-65v-160h65c50 0 72 14 72 76v18c0 62 -22 63 -72 66z" />
    <glyph glyph-name="section" unicode="&#xa7;" horiz-adv-x="500" 
d="M420 620h-82c2 50 -27 78 -93 78c-60 0 -96 -27 -98 -84c-2 -62 46 -62 110 -67c79 -7 175 -19 171 -147c-2 -48 -28 -93 -71 -120c43 -19 71 -54 69 -114c-3 -110 -83 -163 -192 -163c-121 0 -184 56 -186 168h87c2 -67 46 -90 101 -90c65 0 102 34 104 84
c2 62 -59 68 -124 72c-63 1 -161 34 -157 153c1 46 18 82 68 116c-41 13 -67 52 -65 108c3 93 64 161 187 161c122 0 177 -58 171 -155zM144 390c-2 -48 34 -75 94 -75c66 0 102 34 104 84c1 46 -48 72 -97 72c-54 0 -100 -26 -101 -81z" />
    <glyph glyph-name="trademark" unicode="&#x2122;" horiz-adv-x="502" 
d="M204 768v-54h-61v-262h-57v262h-61v54h179zM244 451v318h69l42 -124l42 124h69v-318h-56v106l5 91l-47 -141h-26l-47 141l5 -91v-106h-56z" />
    <glyph glyph-name="asciicircum" unicode="^" horiz-adv-x="619" 
d="M55 432l-1 5l216 338h61l219 -338l-1 -5h-90l-158 252l-159 -252h-87z" />
    <glyph glyph-name="acute" unicode="&#xb4;" horiz-adv-x="245" 
d="M130 641h-76v5l53 127h94v-3z" />
    <glyph glyph-name="breve" unicode="&#x2d8;" horiz-adv-x="314" 
d="M155 642c-91 0 -131 44 -127 131h71c0 -37 6 -65 56 -65s55 28 55 65h71c4 -87 -35 -131 -126 -131z" />
    <glyph glyph-name="caron" unicode="&#x2c7;" horiz-adv-x="414" 
d="M238 644h-57l-124 122v7h93l57 -57l58 57h93v-7z" />
    <glyph glyph-name="cedilla" unicode="&#xb8;" horiz-adv-x="294" 
d="M82 -71l-2 -1l22 91h65l-11 -50c74 5 91 -63 83 -108c-12 -60 -61 -97 -120 -93c-32 2 -71 15 -92 51l34 53c11 -19 35 -36 60 -36c22 0 41 8 48 34c8 36 -26 67 -73 46z" />
    <glyph glyph-name="circumflex" unicode="&#x2c6;" horiz-adv-x="355" 
d="M146 776h57l124 -122v-7h-93l-57 57l-58 -57h-93v7z" />
    <glyph glyph-name="dieresis" unicode="&#xa8;" horiz-adv-x="445" 
d="M58 720c0 73 115 76 115 0c0 -71 -115 -76 -115 0zM276 720c0 73 115 76 115 0c0 -71 -115 -76 -115 0z" />
    <glyph glyph-name="dotaccent" unicode="&#x2d9;" horiz-adv-x="212" 
d="M50 725c0 73 115 76 115 0c0 -71 -115 -76 -115 0z" />
    <glyph glyph-name="grave" unicode="`" horiz-adv-x="245" 
d="M99 641l-71 129v3h97l53 -127v-5h-79z" />
    <glyph glyph-name="hungarumlaut" unicode="&#x2dd;" horiz-adv-x="369" 
d="M43 661l65 114h94v-2l-79 -112h-80zM197 660l65 115h94v-2l-78 -113h-81z" />
    <glyph glyph-name="macron" unicode="&#xaf;" horiz-adv-x="385" 
d="M67 775h245v-74h-245v74z" />
    <glyph glyph-name="ogonek" unicode="&#x2db;" horiz-adv-x="403" 
d="M218 0h85c-50 -20 -71 -58 -71 -73c0 -27 18 -33 35 -33c14 0 28 1 36 2v-85c-71 -4 -160 3 -160 85c0 49 37 84 75 104z" />
    <glyph glyph-name="ring" unicode="&#x2da;" horiz-adv-x="320" 
d="M61 673c0 68 52 104 107 104c53 0 108 -35 108 -103s-51 -105 -109 -105c-59 0 -107 37 -106 104zM168 718c-61 0 -61 -90 0 -90c64 0 62 90 0 90z" />
    <glyph glyph-name="tilde" unicode="&#x2dc;" horiz-adv-x="357" 
d="M95 676l-55 26c14 60 66 91 122 71l45 -21c21 -8 41 -5 51 26l57 -23c-14 -71 -69 -93 -116 -74l-44 20c-22 8 -48 7 -60 -25z" />
    <glyph glyph-name="_0004" horiz-adv-x="0" 
 />
    <glyph glyph-name="eth" unicode="&#xf0;" horiz-adv-x="546" 
d="M215 598l-31 47l53 35c-35 31 -74 60 -110 86l2 7h126c20 -14 39 -29 58 -45l65 44l32 -47l-55 -37c81 -86 139 -199 139 -333v-142c0 -159 -61 -223 -219 -223s-219 64 -219 223v142c0 142 75 204 191 204c31 0 65 -2 103 -12c-16 30 -41 62 -71 92zM275 81
c85 0 124 26 124 132v142c0 97 -39 122 -124 122s-124 -25 -124 -122v-142c0 -106 39 -132 124 -132z" />
    <glyph glyph-name="currency" unicode="&#xa4;" horiz-adv-x="540" 
d="M273 192c74 0 114 55 114 126c0 76 -40 128 -114 128c-73 0 -114 -63 -114 -128c0 -64 41 -126 114 -126zM176 135l-55 -60l-67 74l53 57c-18 33 -27 71 -27 110s10 79 28 113l-53 58l66 75l55 -61c27 16 62 27 98 27s70 -10 97 -27l56 61l66 -75l-52 -57
c19 -34 28 -73 28 -112s-10 -78 -28 -112l52 -57l-66 -74l-56 60c-27 -16 -63 -26 -98 -26c-37 0 -69 10 -97 26z" />
    <glyph glyph-name="degree" unicode="&#xb0;" horiz-adv-x="326" 
d="M156 717c-78 0 -82 -117 0 -117c78 0 77 117 0 117zM157 777c160 0 163 -236 1 -236c-170 0 -162 236 -1 236z" />
    <glyph glyph-name="_181" unicode="&#xb5;" horiz-adv-x="543" 
d="M59 -221v1v801h99v-369c0 -98 42 -137 117 -137c73 0 115 36 115 149v356h95v-580h-81l-10 55c-19 -52 -67 -81 -122 -81s-101 17 -120 69v-264h-93z" />
    <glyph glyph-name="Tcommaaccent" unicode="&#x162;" horiz-adv-x="431" 
d="M423 679h-160v-679h-25l-10 -44c74 5 91 -59 83 -101c-12 -56 -61 -90 -120 -87c-33 2 -72 14 -93 48l34 50c11 -18 35 -34 61 -34c22 0 41 7 48 32c8 33 -26 62 -74 43l-14 12l-2 -1l21 82h-4v679h-160v88h415v-88z" />
    <glyph glyph-name="uni00AD" unicode="&#xad;" horiz-adv-x="473" 
d="M53 371h358v-78h-358v78z" />
    <glyph glyph-name="tcommaaccent" unicode="&#x163;" horiz-adv-x="293" 
d="M64 161v526l93 11v-116h101v-90h-101v-328c0 -59 27 -86 105 -76v-88c-26 -3 -48 -3 -68 -1l-11 -35c66 5 82 -54 75 -92c-11 -52 -55 -84 -108 -80c-29 1 -64 13 -83 44l30 45c10 -16 32 -31 54 -31c20 0 37 7 44 29c7 31 -24 58 -66 40l-13 11l-2 -1l25 82
c-57 24 -75 78 -75 150z" />
    <glyph glyph-name="Scaron" unicode="&#x160;" horiz-adv-x="567" 
d="M320 825h-57l-124 122v7h93l57 -57l58 57h93v-7zM501 581h-99c-5 63 -27 108 -123 108c-107 0 -128 -49 -128 -126c0 -107 93 -106 190 -116c89 -9 181 -53 181 -214c0 -166 -63 -237 -222 -237h-19c-158 0 -230 77 -237 208h103c5 -65 34 -115 133 -115h19
c104 0 125 49 125 139c0 126 -83 128 -179 136c-90 7 -193 51 -193 198c0 143 65 217 227 217c153 0 215 -71 222 -198z" />
    <glyph glyph-name="Zcaron" unicode="&#x17d;" horiz-adv-x="470" 
d="M457 772l-308 -685h297v-87h-432l308 688h-267v84h402zM288 820h-57l-124 122v7h93l57 -57l58 57h93v-7z" />
    <glyph glyph-name="OE" unicode="&#x152;" horiz-adv-x="744" 
d="M301 772h391v-84h-247v-232h219v-89h-219v-278h257v-89h-401c-212 0 -250 89 -250 258v254c0 169 38 260 250 260zM147 257c0 -122 10 -174 154 -174h54v609h-54c-144 0 -154 -57 -154 -179v-256z" />
    <glyph glyph-name="ellipsis" unicode="&#x2026;" horiz-adv-x="591" 
d="M50 49c0 73 115 76 115 0c0 -71 -115 -76 -115 0zM241 49c0 73 115 76 115 0c0 -71 -115 -76 -115 0zM432 49c0 73 115 76 115 0c0 -71 -115 -76 -115 0z" />
    <glyph glyph-name="scaron" unicode="&#x161;" horiz-adv-x="488" 
d="M441 420h-91c0 55 -33 86 -107 86c-66 0 -105 -30 -105 -93c0 -69 53 -68 124 -74c89 -8 195 -21 195 -163c0 -122 -86 -181 -207 -181c-134 0 -207 62 -212 186h96c5 -74 55 -99 116 -99c72 0 112 37 112 93c0 69 -68 75 -140 80c-71 5 -179 26 -179 158
c0 103 66 179 203 179c135 0 198 -64 195 -172zM274 644h-57l-124 122v7h93l57 -57l58 57h93v-7z" />
    <glyph glyph-name="zcaron" unicode="&#x17e;" horiz-adv-x="486" 
d="M31 0v15l288 483h-261v87h402v-17l-284 -479h290v-89h-435zM291 644h-57l-124 122v7h93l57 -57l58 57h93v-7z" />
    <glyph glyph-name="Ydieresis" unicode="&#x178;" horiz-adv-x="461" 
d="M163 622l68 -192l68 192l62 150h103l-186 -449v-324h-95v324l-185 449h103zM64 889c0 73 115 76 115 0c0 -71 -115 -76 -115 0zM282 889c0 73 115 76 115 0c0 -71 -115 -76 -115 0z" />
    <glyph glyph-name="oe" unicode="&#x153;" horiz-adv-x="862" 
d="M725 168h93c0 -114 -63 -178 -217 -178c-83 0 -142 30 -164 92c-29 -61 -89 -92 -168 -92c-158 0 -219 64 -219 223v167c0 155 84 212 219 212c77 0 137 -19 167 -84c30 60 89 84 165 84c133 0 219 -58 219 -212v-127h-343v-44c0 -106 39 -130 124 -130s124 29 124 89z
M269 73c86 0 122 32 124 140v167c0 106 -45 127 -124 127s-124 -21 -124 -127v-167c0 -106 39 -140 124 -140zM477 380v-42h251v42c0 105 -51 127 -127 127c-74 0 -122 -20 -124 -127z" />
    <glyph glyph-name="exclamdown" unicode="&#xa1;" horiz-adv-x="228" 
d="M69 425h95v-607h-95v607zM174 542c0 -73 -115 -76 -115 0c0 71 115 76 115 0z" />
    <glyph glyph-name="questiondown" unicode="&#xbf;" horiz-adv-x="490" 
d="M363 7h92c0 -119 -24 -211 -208 -211c-131 0 -202 73 -202 232v35c0 233 191 178 191 358h90c0 -231 -186 -172 -186 -357v-33c2 -109 35 -145 112 -145c86 0 111 26 111 121zM332 539c0 -73 -115 -76 -115 0c0 71 115 76 115 0z" />
    <glyph glyph-name="Aring" unicode="&#xc5;" 
d="M154 824h1c0 68 52 104 107 104c53 0 108 -35 108 -103c0 -43 -21 -74 -50 -90l195 -735h-98l-39 143h-231l-39 -143h-99l195 733c-30 17 -50 47 -50 91zM313 397l-51 248l-52 -251l-39 -161h182zM262 869c-61 0 -61 -90 0 -90c64 0 62 90 0 90z" />
    <glyph glyph-name="Adieresis" unicode="&#xc4;" 
d="M515 0h-98l-39 143h-231l-39 -143h-99l205 769h97zM313 397l-51 248l-52 -251l-39 -161h182zM95 860c0 73 115 76 115 0c0 -71 -115 -76 -115 0zM313 860c0 73 115 76 115 0c0 -71 -115 -76 -115 0z" />
    <glyph glyph-name="Atilde" unicode="&#xc3;" 
d="M515 0h-98l-39 143h-231l-39 -143h-99l205 769h97zM313 397l-51 248l-52 -251l-39 -161h182zM181 814l-55 26c14 60 66 91 122 71l45 -21c21 -8 41 -5 51 26l57 -23c-14 -71 -69 -93 -116 -74l-44 20c-22 8 -48 7 -60 -25z" />
    <glyph glyph-name="Acircumflex" unicode="&#xc2;" 
d="M515 0h-98l-39 143h-231l-39 -143h-99l205 769h97zM313 397l-51 248l-52 -251l-39 -161h182zM231 942h57l124 -122v-7h-93l-57 57l-58 -57h-93v7z" />
    <glyph glyph-name="Aacute" unicode="&#xc1;" 
d="M515 0h-98l-39 143h-231l-39 -143h-99l205 769h97zM313 397l-51 248l-52 -251l-39 -161h182zM304 816h-76v5l53 127h94v-3z" />
    <glyph glyph-name="Agrave" unicode="&#xc0;" 
d="M515 0h-98l-39 143h-231l-39 -143h-99l205 769h97zM313 397l-51 248l-52 -251l-39 -161h182zM221 820l-71 129v3h97l53 -127v-5h-79z" />
    <glyph glyph-name="AE" unicode="&#xc6;" horiz-adv-x="750" 
d="M309 772h398v-81h-262v-235h246v-85h-246v-286h271v-85h-359v184h-188l-70 -184h-97zM201 269h156v416l-60 -172z" />
    <glyph glyph-name="Edieresis" unicode="&#xcb;" horiz-adv-x="509" 
d="M58 772h389v-84h-294v-232h266v-89h-266v-278h319v-89h-414v772zM96 887c0 73 115 76 115 0c0 -71 -115 -76 -115 0zM314 887c0 73 115 76 115 0c0 -71 -115 -76 -115 0z" />
    <glyph glyph-name="Ecircumflex" unicode="&#xca;" horiz-adv-x="509" 
d="M58 772h389v-84h-294v-232h266v-89h-266v-278h319v-89h-414v772zM240 954h57l124 -122v-7h-93l-57 57l-58 -57h-93v7z" />
    <glyph glyph-name="Eacute" unicode="&#xc9;" horiz-adv-x="509" 
d="M58 772h389v-84h-294v-232h266v-89h-266v-278h319v-89h-414v772zM296 822h-76v5l53 127h94v-3z" />
    <glyph glyph-name="Egrave" unicode="&#xc8;" horiz-adv-x="509" 
d="M58 772h389v-84h-294v-232h266v-89h-266v-278h319v-89h-414v772zM233 819l-71 129v3h97l53 -127v-5h-79z" />
    <glyph glyph-name="Ccedilla" unicode="&#xc7;" horiz-adv-x="580" 
d="M237 -91l-2 -1l21 88c-189 10 -207 101 -207 260v262c0 169 40 260 246 260c200 0 239 -75 241 -224h-93c-1 93 -20 135 -148 135c-134 0 -150 -48 -150 -170v-264c0 -122 20 -170 150 -170s150 29 150 151h91c0 -143 -15 -234 -215 -240l-10 -47c74 5 93 -64 85 -109
c-13 -64 -63 -96 -122 -92c-32 2 -71 15 -92 51l34 53c11 -19 35 -36 60 -36c22 0 41 8 48 34c8 36 -26 67 -73 46z" />
    <glyph glyph-name="Idieresis" unicode="&#xcf;" horiz-adv-x="237" 
d="M-35 870c0 73 115 76 115 0c0 -71 -115 -76 -115 0zM159 870c0 73 115 76 115 0c0 -71 -115 -76 -115 0zM167 -1h-97v770h97v-770z" />
    <glyph glyph-name="Icircumflex" unicode="&#xce;" horiz-adv-x="237" 
d="M167 -1h-97v770h97v-770zM90 950h57l124 -122v-7h-93l-57 57l-58 -57h-93v7z" />
    <glyph glyph-name="Iacute" unicode="&#xcd;" horiz-adv-x="237" 
d="M167 -1h-97v770h97v-770zM161 832h-76v5l53 127h94v-3z" />
    <glyph glyph-name="Igrave" unicode="&#xcc;" horiz-adv-x="235" 
d="M167 -1h-97v770h97v-770zM83 821l-71 129v3h97l53 -127v-5h-79z" />
    <glyph glyph-name="Eth" unicode="&#xd0;" horiz-adv-x="606" 
d="M303 0h-227v343h-73v78h73v350h234c206 0 243 -91 243 -258v-254c0 -168 -38 -261 -250 -259zM171 91h132c144 0 154 45 154 167v256c0 122 -10 167 -154 167h-132v-260h119v-78h-119v-252z" />
    <glyph glyph-name="Odieresis" unicode="&#xd6;" horiz-adv-x="596" 
d="M551 522v-269c0 -169 -38 -260 -250 -260s-250 91 -250 260v269c0 169 38 260 250 260s250 -91 250 -260zM455 252v271c0 122 -10 172 -154 172s-154 -50 -154 -172v-271c0 -122 10 -170 154 -170s154 48 154 170zM141 886c0 73 115 76 115 0c0 -71 -115 -76 -115 0z
M359 886c0 73 115 76 115 0c0 -71 -115 -76 -115 0z" />
    <glyph glyph-name="Otilde" unicode="&#xd5;" horiz-adv-x="596" 
d="M551 522v-269c0 -169 -38 -260 -250 -260s-250 91 -250 260v269c0 169 38 260 250 260s250 -91 250 -260zM455 252v271c0 122 -10 172 -154 172s-154 -50 -154 -172v-271c0 -122 10 -170 154 -170s154 48 154 170zM221 839l-55 26c14 60 66 91 122 71l45 -21
c21 -8 41 -5 51 26l57 -23c-14 -71 -69 -93 -116 -74l-44 20c-22 8 -48 7 -60 -25z" />
    <glyph glyph-name="Ocircumflex" unicode="&#xd4;" horiz-adv-x="596" 
d="M551 522v-269c0 -169 -38 -260 -250 -260s-250 91 -250 260v269c0 169 38 260 250 260s250 -91 250 -260zM455 252v271c0 122 -10 172 -154 172s-154 -50 -154 -172v-271c0 -122 10 -170 154 -170s154 48 154 170zM282 961h57l124 -122v-7h-93l-57 57l-58 -57h-93v7z" />
    <glyph glyph-name="Oacute" unicode="&#xd3;" horiz-adv-x="596" 
d="M551 522v-269c0 -169 -38 -260 -250 -260s-250 91 -250 260v269c0 169 38 260 250 260s250 -91 250 -260zM455 252v271c0 122 -10 172 -154 172s-154 -50 -154 -172v-271c0 -122 10 -170 154 -170s154 48 154 170zM347 832h-76v5l53 127h94v-3z" />
    <glyph glyph-name="Ograve" unicode="&#xd2;" horiz-adv-x="596" 
d="M551 522v-269c0 -169 -38 -260 -250 -260s-250 91 -250 260v269c0 169 38 260 250 260s250 -91 250 -260zM455 252v271c0 122 -10 172 -154 172s-154 -50 -154 -172v-271c0 -122 10 -170 154 -170s154 48 154 170zM272 832l-71 129v3h97l53 -127v-5h-79z" />
    <glyph glyph-name="Ntilde" unicode="&#xd1;" horiz-adv-x="550" 
d="M153 771l261 -590l-14 262v328h95v-771h-89l-254 554l6 -253v-301h-95v771h90zM196 839l-55 26c14 60 66 91 122 71l45 -21c21 -8 41 -5 51 26l57 -23c-14 -71 -69 -93 -116 -74l-44 20c-22 8 -48 7 -60 -25z" />
    <glyph glyph-name="Oslash" unicode="&#xd8;" horiz-adv-x="596" 
d="M551 522v-269c0 -169 -38 -260 -250 -260c-44 0 -80 4 -110 11l-30 -80h-80l42 111c-58 42 -72 115 -72 218v269c0 169 38 260 250 260c39 0 72 -4 100 -10l32 84h80l-42 -110c65 -41 80 -117 80 -224zM455 252v271c0 57 -3 99 -20 127l-212 -561c20 -5 46 -7 78 -7
c144 0 154 48 154 170zM147 252c0 -51 1 -89 14 -116l209 553c-19 4 -42 6 -69 6c-144 0 -154 -50 -154 -172v-271z" />
    <glyph glyph-name="Yacute" unicode="&#xdd;" horiz-adv-x="461" 
d="M163 622l68 -192l68 192l62 150h103l-186 -449v-324h-95v324l-185 449h103zM264 818h-76v5l53 127h94v-3z" />
    <glyph glyph-name="Udieresis" unicode="&#xdc;" horiz-adv-x="602" 
d="M440 253v519h96v-518c0 -169 -54 -260 -237 -260s-239 91 -239 260v517h96v-518c0 -122 24 -170 143 -170s141 48 141 170zM136 891c0 73 115 76 115 0c0 -71 -115 -76 -115 0zM354 891c0 73 115 76 115 0c0 -71 -115 -76 -115 0z" />
    <glyph glyph-name="Ucircumflex" unicode="&#xdb;" horiz-adv-x="602" 
d="M440 253v519h96v-518c0 -169 -54 -260 -237 -260s-239 91 -239 260v517h96v-518c0 -122 24 -170 143 -170s141 48 141 170zM278 957h57l124 -122v-7h-93l-57 57l-58 -57h-93v7z" />
    <glyph glyph-name="Uacute" unicode="&#xda;" horiz-adv-x="602" 
d="M440 253v519h96v-518c0 -169 -54 -260 -237 -260s-239 91 -239 260v517h96v-518c0 -122 24 -170 143 -170s141 48 141 170zM339 822h-76v5l53 127h94v-3z" />
    <glyph glyph-name="Ugrave" unicode="&#xd9;" horiz-adv-x="602" 
d="M440 253v519h96v-518c0 -169 -54 -260 -237 -260s-239 91 -239 260v517h96v-518c0 -122 24 -170 143 -170s141 48 141 170zM263 828l-71 129v3h97l53 -127v-5h-79z" />
    <glyph glyph-name="aring" unicode="&#xe5;" 
d="M461 395v-395h-86l-8 79c-21 -43 -78 -84 -149 -84c-134 0 -167 71 -174 140c-10 103 60 177 180 194c46 7 95 8 141 9v57c0 66 -23 109 -111 109c-55 0 -93 -19 -92 -98h-93c-4 130 64 185 188 185c128 0 204 -54 204 -196zM367 259c-27 0 -85 1 -135 -10
c-65 -14 -99 -45 -92 -102c4 -46 45 -61 88 -61c105 0 136 77 139 173zM161 726c0 61 52 94 108 94c53 0 109 -32 109 -93s-52 -94 -110 -94c-60 0 -108 33 -107 93zM269 767c-62 0 -62 -81 0 -81c64 0 62 81 0 81z" />
    <glyph glyph-name="adieresis" unicode="&#xe4;" 
d="M124 720c0 73 115 76 115 0c0 -71 -115 -76 -115 0zM321 720c0 73 115 76 115 0c0 -71 -115 -76 -115 0zM461 395v-395h-86l-8 79c-21 -43 -78 -84 -149 -84c-134 0 -167 71 -174 140c-10 103 60 177 180 194c46 7 95 8 141 9v57c0 66 -23 109 -111 109
c-55 0 -93 -19 -92 -98h-93c-4 130 64 185 188 185c128 0 204 -54 204 -196zM367 259c-27 0 -85 1 -135 -10c-65 -14 -99 -45 -92 -102c4 -46 45 -61 88 -61c105 0 136 77 139 173z" />
    <glyph glyph-name="atilde" unicode="&#xe3;" 
d="M461 395v-395h-86l-8 79c-21 -43 -78 -84 -149 -84c-134 0 -167 71 -174 140c-10 103 60 177 180 194c46 7 95 8 141 9v57c0 66 -23 109 -111 109c-55 0 -93 -19 -92 -98h-93c-4 130 64 185 188 185c128 0 204 -54 204 -196zM367 259c-27 0 -85 1 -135 -10
c-65 -14 -99 -45 -92 -102c4 -46 45 -61 88 -61c105 0 136 77 139 173zM183 675l-55 26c14 60 66 91 122 71l45 -21c21 -8 41 -5 51 26l57 -23c-14 -71 -69 -93 -116 -74l-44 20c-22 8 -48 7 -60 -25z" />
    <glyph glyph-name="acircumflex" unicode="&#xe2;" 
d="M461 395v-395h-86l-8 79c-21 -43 -78 -84 -149 -84c-134 0 -167 71 -174 140c-10 103 60 177 180 194c46 7 95 8 141 9v57c0 66 -23 109 -111 109c-55 0 -93 -19 -92 -98h-93c-4 130 64 185 188 185c128 0 204 -54 204 -196zM367 259c-27 0 -85 1 -135 -10
c-65 -14 -99 -45 -92 -102c4 -46 45 -61 88 -61c105 0 136 77 139 173zM247 776h57l124 -122v-7h-93l-57 57l-58 -57h-93v7z" />
    <glyph glyph-name="aacute" unicode="&#xe1;" 
d="M461 395v-395h-86l-8 79c-21 -43 -78 -84 -149 -84c-134 0 -167 71 -174 140c-10 103 60 177 180 194c46 7 95 8 141 9v57c0 66 -23 109 -111 109c-55 0 -93 -19 -92 -98h-93c-4 130 64 185 188 185c128 0 204 -54 204 -196zM367 259c-27 0 -85 1 -135 -10
c-65 -14 -99 -45 -92 -102c4 -46 45 -61 88 -61c105 0 136 77 139 173zM303 651h-76v5l53 127h94v-3z" />
    <glyph glyph-name="agrave" unicode="&#xe0;" 
d="M461 395v-395h-86l-8 79c-21 -43 -78 -84 -149 -84c-134 0 -167 71 -174 140c-10 103 60 177 180 194c46 7 95 8 141 9v57c0 66 -23 109 -111 109c-55 0 -93 -19 -92 -98h-93c-4 130 64 185 188 185c128 0 204 -54 204 -196zM367 259c-27 0 -85 1 -135 -10
c-65 -14 -99 -45 -92 -102c4 -46 45 -61 88 -61c105 0 136 77 139 173zM242 649l-71 129v3h97l53 -127v-5h-79z" />
    <glyph glyph-name="ae" unicode="&#xe6;" horiz-adv-x="824" 
d="M682 168h93c0 -114 -57 -178 -211 -178c-98 0 -145 29 -175 87c-50 -62 -101 -87 -176 -87c-134 0 -167 76 -174 145c-10 103 54 177 180 194c46 7 98 8 144 9v57c0 66 -26 109 -114 109c-55 0 -93 -19 -92 -98h-93c-4 130 64 185 188 185c70 0 124 -17 153 -70
c33 52 86 71 159 71c133 0 213 -58 213 -212v-127h-332v-44c0 -106 34 -130 119 -130s118 29 118 89zM445 380v-42h240v42c0 105 -45 127 -121 127s-119 -21 -119 -127zM365 256c-27 0 -88 4 -138 -7c-65 -14 -99 -45 -92 -102c4 -46 45 -63 88 -63c105 0 139 76 142 172z
" />
    <glyph glyph-name="ccedilla" unicode="&#xe7;" horiz-adv-x="528" 
d="M210 -91l-2 -1l21 84c-124 10 -179 76 -179 221v166c0 155 84 213 219 213c130 0 208 -46 214 -196l-90 -1c-4 92 -48 109 -124 109c-80 0 -124 -19 -124 -125v-166c0 -106 43 -132 124 -132s122 17 124 117h90c-2 -145 -56 -201 -189 -207l-10 -43c73 5 90 -61 82 -105
c-12 -58 -61 -94 -119 -90c-32 2 -70 15 -91 50l33 51c11 -18 35 -35 60 -35c22 0 41 8 48 33c7 35 -26 65 -73 45z" />
    <glyph glyph-name="idieresis" unicode="&#xef;" horiz-adv-x="279" 
d="M-6 720c0 73 115 76 115 0c0 -71 -115 -76 -115 0zM173 720c0 73 115 76 115 0c0 -71 -115 -76 -115 0zM184 0h-95v581h95v-581z" />
    <glyph glyph-name="icircumflex" unicode="&#xee;" horiz-adv-x="245" 
d="M101 776h48l106 -128v-7h-79l-49 51l-49 -51h-79v7zM174 0h-95v581h95v-581z" />
    <glyph glyph-name="iacute" unicode="&#xed;" horiz-adv-x="245" 
d="M174 0h-95v581h95v-581zM159 641h-76v5l53 127h94v-3z" />
    <glyph glyph-name="igrave" unicode="&#xec;" horiz-adv-x="245" 
d="M174 0h-95v581h95v-581zM98 641l-71 129v3h97l53 -127v-5h-79z" />
    <glyph glyph-name="edieresis" unicode="&#xeb;" horiz-adv-x="530" 
d="M127 720c0 73 115 76 115 0c0 -71 -115 -76 -115 0zM320 720c0 73 115 76 115 0c0 -71 -115 -76 -115 0zM391 170h92c0 -113 -62 -176 -214 -176c-156 0 -216 57 -216 214v171c0 153 83 209 216 209c131 0 216 -57 216 -209v-125h-338v-44c0 -104 38 -128 122 -128
s122 28 122 88zM147 379v-42h247v42c0 103 -50 125 -125 125s-122 -21 -122 -125z" />
    <glyph glyph-name="ecircumflex" unicode="&#xea;" horiz-adv-x="530" 
d="M391 170h92c0 -113 -62 -176 -214 -176c-156 0 -216 57 -216 214v171c0 153 83 209 216 209c131 0 216 -57 216 -209v-125h-338v-44c0 -104 38 -128 122 -128s122 28 122 88zM147 379v-42h247v42c0 103 -50 125 -125 125s-122 -21 -122 -125zM244 776h57l124 -122v-7h-93
l-57 57l-58 -57h-93v7z" />
    <glyph glyph-name="eacute" unicode="&#xe9;" horiz-adv-x="530" 
d="M391 170h92c0 -113 -62 -176 -214 -176c-156 0 -216 57 -216 214v171c0 153 83 209 216 209c131 0 216 -57 216 -209v-125h-338v-44c0 -104 38 -128 122 -128s122 28 122 88zM147 379v-42h247v42c0 103 -50 125 -125 125s-122 -21 -122 -125zM313 651h-76v5l53 127h94v-3
z" />
    <glyph glyph-name="egrave" unicode="&#xe8;" horiz-adv-x="530" 
d="M391 170h92c0 -113 -62 -176 -214 -176c-156 0 -216 57 -216 214v171c0 153 83 209 216 209c131 0 216 -57 216 -209v-125h-338v-44c0 -104 38 -128 122 -128s122 28 122 88zM147 379v-42h247v42c0 103 -50 125 -125 125s-122 -21 -122 -125zM239 646l-71 129v3h97
l53 -127v-5h-79z" />
    <glyph glyph-name="oslash" unicode="&#xf8;" horiz-adv-x="538" 
d="M158 -73h-80l41 98c-49 35 -69 95 -69 188v167c0 155 84 212 219 212c30 0 58 -3 83 -9l27 65h80l-40 -96c44 -33 69 -88 69 -172v-167c0 -159 -64 -223 -219 -223c-31 0 -58 3 -82 8zM145 213c0 -39 5 -67 15 -89l158 378c-14 3 -31 5 -49 5c-79 0 -124 -21 -124 -127
v-167zM269 73c88 0 124 34 124 140v167c0 34 -5 59 -14 77l-158 -379c14 -4 30 -5 48 -5z" />
    <glyph glyph-name="ntilde" unicode="&#xf1;" horiz-adv-x="583" 
d="M79 0v585h85l6 -62c35 57 93 69 150 69c129 0 194 -55 194 -211v-381h-96v380c0 83 -45 125 -114 125c-72 0 -129 -41 -129 -124v-381h-96zM222 676l-55 26c14 60 66 91 122 71l45 -21c21 -8 41 -5 51 26l57 -23c-14 -71 -69 -93 -116 -74l-44 20c-22 8 -48 7 -60 -25z
" />
    <glyph glyph-name="ograve" unicode="&#xf2;" horiz-adv-x="538" 
d="M269 73c88 0 124 34 124 140v167c0 106 -45 127 -124 127s-124 -21 -124 -127v-167c0 -106 39 -140 124 -140zM269 -10c-158 0 -219 64 -219 223v167c0 155 84 212 219 212s219 -57 219 -212v-167c0 -159 -64 -223 -219 -223zM244 645l-71 129v3h97l53 -127v-5h-79z" />
    <glyph glyph-name="oacute" unicode="&#xf3;" horiz-adv-x="538" 
d="M269 73c88 0 124 34 124 140v167c0 106 -45 127 -124 127s-124 -21 -124 -127v-167c0 -106 39 -140 124 -140zM269 -10c-158 0 -219 64 -219 223v167c0 155 84 212 219 212s219 -57 219 -212v-167c0 -159 -64 -223 -219 -223zM306 641h-76v5l53 127h94v-3z" />
    <glyph glyph-name="ocircumflex" unicode="&#xf4;" horiz-adv-x="538" 
d="M269 73c88 0 124 34 124 140v167c0 106 -45 127 -124 127s-124 -21 -124 -127v-167c0 -106 39 -140 124 -140zM269 -10c-158 0 -219 64 -219 223v167c0 155 84 212 219 212s219 -57 219 -212v-167c0 -159 -64 -223 -219 -223zM248 776h57l124 -122v-7h-93l-57 57l-58 -57
h-93v7z" />
    <glyph glyph-name="otilde" unicode="&#xf5;" horiz-adv-x="538" 
d="M269 73c88 0 124 34 124 140v167c0 106 -45 127 -124 127s-124 -21 -124 -127v-167c0 -106 39 -140 124 -140zM269 -10c-158 0 -219 64 -219 223v167c0 155 84 212 219 212s219 -57 219 -212v-167c0 -159 -64 -223 -219 -223zM194 666l-55 26c14 60 66 91 122 71l45 -21
c21 -8 41 -5 51 26l57 -23c-14 -71 -69 -93 -116 -74l-44 20c-22 8 -48 7 -60 -25z" />
    <glyph glyph-name="odieresis" unicode="&#xf6;" horiz-adv-x="538" 
d="M119 720c0 73 115 76 115 0c0 -71 -115 -76 -115 0zM312 720c0 73 115 76 115 0c0 -71 -115 -76 -115 0zM269 73c88 0 124 34 124 140v167c0 106 -45 127 -124 127s-124 -21 -124 -127v-167c0 -106 39 -140 124 -140zM269 -10c-158 0 -219 64 -219 223v167
c0 155 84 212 219 212s219 -57 219 -212v-167c0 -159 -64 -223 -219 -223z" />
    <glyph glyph-name="ydieresis" unicode="&#xff;" horiz-adv-x="491" 
d="M175 397l75 -271c11 57 28 131 73 277l57 182h99l-183 -586l-35 -111c-37 -118 -102 -147 -213 -102l17 81c41 -17 88 -26 112 49l24 83l-186 586h104zM85 720c0 73 115 76 115 0c0 -71 -115 -76 -115 0zM303 720c0 73 115 76 115 0c0 -71 -115 -76 -115 0z" />
    <glyph glyph-name="yacute" unicode="&#xfd;" horiz-adv-x="491" 
d="M175 397l75 -271c11 57 28 131 73 277l57 182h99l-183 -586l-35 -111c-37 -118 -102 -147 -213 -102l17 81c41 -17 88 -26 112 49l24 83l-186 586h104zM271 641h-76v5l53 127h94v-3z" />
    <glyph glyph-name="udieresis" unicode="&#xfc;" horiz-adv-x="583" 
d="M513 581v-581h-85l-6 62c-35 -57 -93 -69 -150 -69c-129 0 -194 55 -194 211v377h96v-376c0 -83 45 -125 114 -125c72 0 129 41 129 124v377h96zM142 720c0 73 115 76 115 0c0 -71 -115 -76 -115 0zM360 720c0 73 115 76 115 0c0 -71 -115 -76 -115 0z" />
    <glyph glyph-name="ucircumflex" unicode="&#xfb;" horiz-adv-x="583" 
d="M513 581v-581h-85l-6 62c-35 -57 -93 -69 -150 -69c-129 0 -194 55 -194 211v377h96v-376c0 -83 45 -125 114 -125c72 0 129 41 129 124v377h96zM267 776h57l124 -122v-7h-93l-57 57l-58 -57h-93v7z" />
    <glyph glyph-name="uacute" unicode="&#xfa;" horiz-adv-x="583" 
d="M513 581v-581h-85l-6 62c-35 -57 -93 -69 -150 -69c-129 0 -194 55 -194 211v377h96v-376c0 -83 45 -125 114 -125c72 0 129 41 129 124v377h96zM338 641h-76v5l53 127h94v-3z" />
    <glyph glyph-name="ugrave" unicode="&#xf9;" horiz-adv-x="583" 
d="M513 581v-581h-85l-6 62c-35 -57 -93 -69 -150 -69c-129 0 -194 55 -194 211v377h96v-376c0 -83 45 -125 114 -125c72 0 129 41 129 124v377h96zM276 641l-71 129v3h97l53 -127v-5h-79z" />
    <glyph glyph-name="uni0402" unicode="&#x402;" horiz-adv-x="652" 
d="M502 329c0 106 -33 136 -119 136c-77 0 -117 -36 -120 -125v-340h-95v686h-160v88h415v-88h-160v-189c25 37 63 60 133 60c149 0 201 -81 201 -226v-173c0 -123 -55 -172 -174 -162v85c44 -4 79 -3 79 77v171z" />
    <glyph glyph-name="uni0403" unicode="&#x403;" horiz-adv-x="443" 
d="M419 683h-251v-683h-98v772h349v-89zM286 825h-74v5l53 127h92v-3z" />
    <glyph glyph-name="uni0453" unicode="&#x453;" horiz-adv-x="390" 
d="M154 0h-93v582h310v-89h-217v-493zM260 642h-70v5l53 125h88v-3z" />
    <glyph glyph-name="uni0409" unicode="&#x409;" horiz-adv-x="833" 
d="M573 0h-178v683h-154l-3 -314c-1 -225 -6 -383 -233 -372v92c145 -9 138 126 139 282l3 401h343v-310h83c158 0 218 -65 218 -223v-29c0 -154 -84 -210 -218 -210zM490 90h83c85 0 123 14 123 120v29c0 105 -39 135 -123 135h-83v-284z" />
    <glyph glyph-name="uni040A" unicode="&#x40a;" horiz-adv-x="815" 
d="M555 0h-178v371h-210v-372h-97v770h97v-310h210v316h95v-313h83c158 0 218 -65 218 -223v-29c0 -154 -84 -210 -218 -210zM472 90h83c85 0 123 14 123 120v29c0 105 -39 135 -123 135h-83v-284z" />
    <glyph glyph-name="uni040C" unicode="&#x40c;" horiz-adv-x="557" 
d="M553 0h-117l-216 344h-60v-344h-95v772h95v-340h37c71 0 98 76 124 149c37 106 72 207 206 189l-6 -88c-81 9 -90 -73 -110 -132c-26 -73 -52 -136 -103 -171zM317 815h-74v5l53 127h92v-3z" />
    <glyph glyph-name="uni040B" unicode="&#x40b;" horiz-adv-x="652" 
d="M597 0h-95v329c0 106 -33 136 -119 136c-77 0 -117 -36 -120 -125v-340h-95v686h-160v88h415v-88h-160v-189c25 37 63 60 133 60c149 0 201 -81 201 -226v-331z" />
    <glyph glyph-name="uni040F" unicode="&#x40f;" horiz-adv-x="591" 
d="M251 -106v106h-181v772h95v-681h260v681h97v-772h-178v-106h-93z" />
    <glyph glyph-name="uni0452" unicode="&#x452;" horiz-adv-x="550" 
d="M400 329c0 106 -33 136 -119 136c-77 0 -117 -36 -120 -125v-340h-95v621h-72v78h71v73h95v-73h131v-78h-130v-124c25 37 63 60 133 60c149 0 201 -81 201 -226v-333c0 -123 -55 -172 -174 -162v85c44 -4 79 -3 79 77v331z" />
    <glyph glyph-name="uni0459" unicode="&#x459;" horiz-adv-x="780" 
d="M469 581v-206h69c132 0 208 -45 208 -188c0 -135 -53 -187 -208 -187h-165v492h-133l-3 -125c-4 -174 -21 -375 -231 -370v93c138 -6 135 184 136 278l3 213h324zM469 87h69c90 0 113 25 113 99c0 66 -21 104 -113 104h-69v-203z" />
    <glyph glyph-name="uni045A" unicode="&#x45a;" horiz-adv-x="754" 
d="M443 581v-206h69c132 0 208 -42 208 -188c0 -135 -53 -187 -208 -187h-165v285h-193v-285h-95v581h95v-208h193v208h96zM443 87h69c90 0 113 25 113 99c0 75 -21 104 -113 104h-69v-203z" />
    <glyph glyph-name="uni045C" unicode="&#x45c;" horiz-adv-x="508" 
d="M503 0h-113l-188 260h-51v-260h-95v581h95v-235h32c139 0 74 257 285 237l-2 -87c-107 17 -82 -136 -178 -200zM281 644h-74v5l53 127h92v-3z" />
    <glyph glyph-name="uni045B" unicode="&#x45b;" horiz-adv-x="550" 
d="M495 0h-95v329c0 106 -33 136 -119 136c-77 0 -117 -36 -120 -125v-340h-95v621h-72v78h71v73h95v-73h131v-78h-130v-124c25 37 63 60 133 60c149 0 201 -81 201 -226v-331z" />
    <glyph glyph-name="uni045F" unicode="&#x45f;" horiz-adv-x="546" 
d="M231 -99v99h-172v581h95v-492h243v492h94v-581h-169v-99h-91z" />
    <glyph glyph-name="uni040E" unicode="&#x40e;" horiz-adv-x="481" 
d="M193 539l54 -184c15 63 33 127 53 189l74 228h104l-186 -544l-34 -111c-37 -118 -103 -148 -215 -102l17 80c42 -16 85 -24 109 50l25 84l-182 543h108zM244 826c-87 0 -150 34 -151 132h78c1 -48 31 -59 73 -59c41 0 69 11 70 59h80c-1 -98 -64 -132 -150 -132z" />
    <glyph glyph-name="uni045E" unicode="&#x45e;" horiz-adv-x="491" 
d="M175 397l75 -271c11 57 28 131 73 277l57 182h99l-183 -586l-35 -111c-37 -118 -102 -147 -213 -102l17 81c41 -17 88 -26 112 49l24 83l-186 586h104zM247 639c-87 0 -150 34 -151 132h78c1 -48 31 -59 73 -59c41 0 69 11 70 59h80c-1 -98 -64 -132 -150 -132z" />
    <glyph glyph-name="uni0408" unicode="&#x408;" horiz-adv-x="483" 
d="M215 -6c-170 0 -207 88 -207 237h90c0 -105 23 -146 119 -146c100 0 110 48 110 170v517h96v-516c0 -169 -31 -262 -208 -262z" />
    <glyph glyph-name="uni0490" unicode="&#x490;" horiz-adv-x="443" 
d="M419 683h-251v-683h-98v772h258v107h91v-196z" />
    <glyph glyph-name="uni0401" unicode="&#x401;" horiz-adv-x="509" 
d="M58 772h389v-84h-294v-232h266v-89h-266v-278h319v-89h-414v772zM96 887c0 73 115 76 115 0c0 -71 -115 -76 -115 0zM314 887c0 73 115 76 115 0c0 -71 -115 -76 -115 0z" />
    <glyph glyph-name="uni0404" unicode="&#x404;" horiz-adv-x="610" 
d="M548 556h-93c-1 94 -21 136 -149 136c-134 0 -150 -47 -150 -170v-84h226v-88h-226v-93c0 -122 19 -171 150 -171c130 0 151 29 151 151h91c0 -149 -17 -241 -242 -241c-226 0 -247 92 -247 262v263c0 169 40 261 247 261c200 0 240 -76 242 -226z" />
    <glyph glyph-name="uni0407" unicode="&#x407;" horiz-adv-x="237" 
d="M-35 870c0 73 115 76 115 0c0 -71 -115 -76 -115 0zM159 870c0 73 115 76 115 0c0 -71 -115 -76 -115 0zM167 -1h-97v770h97v-770z" />
    <glyph glyph-name="uni0406" unicode="&#x406;" horiz-adv-x="237" 
d="M167 -1h-97v770h97v-770z" />
    <glyph glyph-name="uni0456" unicode="&#x456;" horiz-adv-x="240" 
d="M167 0h-95v581h95v-581zM63 719c0 73 115 76 115 0c0 -71 -115 -76 -115 0z" />
    <glyph glyph-name="uni0491" unicode="&#x491;" horiz-adv-x="390" 
d="M154 0h-93v582h226v86h84v-175h-217v-493z" />
    <glyph glyph-name="uni0451" unicode="&#x451;" horiz-adv-x="530" 
d="M127 720c0 73 115 76 115 0c0 -71 -115 -76 -115 0zM320 720c0 73 115 76 115 0c0 -71 -115 -76 -115 0zM391 170h92c0 -113 -62 -176 -214 -176c-156 0 -216 57 -216 214v171c0 153 83 209 216 209c131 0 216 -57 216 -209v-125h-338v-44c0 -104 38 -128 122 -128
s122 28 122 88zM147 379v-42h247v42c0 103 -50 125 -125 125s-122 -21 -122 -125z" />
    <glyph glyph-name="uni2116" unicode="&#x2116;" horiz-adv-x="972" 
d="M159 771l261 -590l-14 262v328h95v-771h-89l-254 554l6 -253v-301h-95v771h90zM764 438c-95 0 -171 61 -171 170c0 108 75 168 170 168s170 -60 170 -167c0 -108 -76 -171 -169 -171zM764 509c57 0 96 39 96 99s-43 101 -97 101s-95 -41 -95 -100c0 -60 38 -100 96 -100z
M611 375h306v-77h-306v77z" />
    <glyph glyph-name="uni0454" unicode="&#x454;" horiz-adv-x="529" 
d="M391 192h89c-3 -150 -63 -202 -212 -202c-151 0 -217 63 -217 221v166c0 154 82 211 217 211c129 0 205 -45 212 -191h-89c-4 87 -48 103 -123 103c-80 0 -124 -19 -124 -123v-43h162v-84h-162v-39c0 -104 43 -130 124 -130c80 0 120 17 123 111z" />
    <glyph glyph-name="uni0458" unicode="&#x458;" horiz-adv-x="242" 
d="M173 580v-607c0 -123 -53 -172 -172 -162v85c44 -4 79 -3 79 77v607h93zM69 719c0 73 115 76 115 0c0 -71 -115 -76 -115 0z" />
    <glyph glyph-name="uni0405" unicode="&#x405;" horiz-adv-x="567" 
d="M501 581h-99c-5 63 -27 108 -123 108c-107 0 -128 -49 -128 -126c0 -107 93 -106 190 -116c89 -9 181 -53 181 -214c0 -166 -63 -237 -222 -237h-19c-158 0 -230 77 -237 208h103c5 -65 34 -115 133 -115h19c104 0 125 49 125 139c0 126 -83 128 -179 136
c-90 7 -193 51 -193 198c0 143 65 217 227 217c153 0 215 -71 222 -198z" />
    <glyph glyph-name="uni0455" unicode="&#x455;" horiz-adv-x="488" 
d="M441 420h-91c0 55 -33 86 -107 86c-66 0 -105 -30 -105 -93c0 -69 53 -68 124 -74c89 -8 195 -21 195 -163c0 -122 -86 -181 -207 -181c-134 0 -207 62 -212 186h96c5 -74 55 -99 116 -99c72 0 112 37 112 93c0 69 -68 75 -140 80c-71 5 -179 26 -179 158
c0 103 66 179 203 179c135 0 198 -64 195 -172z" />
    <glyph glyph-name="uni0457" unicode="&#x457;" horiz-adv-x="279" 
d="M-6 720c0 73 115 76 115 0c0 -71 -115 -76 -115 0zM173 720c0 73 115 76 115 0c0 -71 -115 -76 -115 0zM184 0h-95v581h95v-581z" />
    <glyph glyph-name="uni0410" unicode="&#x410;" 
d="M515 0h-98l-39 143h-231l-39 -143h-99l205 769h97zM313 397l-51 248l-52 -251l-39 -161h182z" />
    <glyph glyph-name="uni0411" unicode="&#x411;" horiz-adv-x="545" 
d="M444 683h-286v-218h102c156 0 249 -74 249 -235c0 -159 -93 -230 -249 -230h-200v772h384v-89zM413 230c0 86 -36 144 -151 144h-104v-283h104c115 0 151 54 151 139z" />
    <glyph glyph-name="uni0412" unicode="&#x412;" horiz-adv-x="546" 
d="M60 0v772h193c152 0 206 -81 208 -201c1 -62 -25 -122 -91 -148c97 -20 139 -88 140 -186c0 -164 -92 -237 -250 -237h-200zM157 91h105c116 0 150 56 150 145c0 99 -57 126 -147 126h-108v-271zM253 683h-98v-229h86c94 0 124 61 124 117c0 81 -33 112 -112 112z" />
    <glyph glyph-name="uni0413" unicode="&#x413;" horiz-adv-x="443" 
d="M419 683h-251v-683h-98v772h349v-89z" />
    <glyph glyph-name="uni0414" unicode="&#x414;" horiz-adv-x="621" 
d="M5 90h44c79 67 88 174 90 271l15 412h375v-683h68v-201h-92v111h-409v-111h-91v201zM161 90h269v593h-187l-7 -322c-2 -95 -12 -195 -75 -271z" />
    <glyph glyph-name="uni0415" unicode="&#x415;" horiz-adv-x="521" 
d="M70 772h389v-84h-294v-232h266v-89h-266v-278h319v-89h-414v772z" />
    <glyph glyph-name="uni0416" unicode="&#x416;" horiz-adv-x="834" 
d="M487 433c70 0 90 76 115 149c37 106 72 206 205 190l-6 -89c-81 10 -89 -73 -110 -132c-22 -67 -39 -123 -97 -168l239 -383h-116l-207 345h-44v-345h-93v345h-44l-207 -345h-117l239 383c-58 45 -74 101 -96 168c-21 59 -29 142 -110 132l-6 89c133 16 168 -84 204 -190
c25 -73 45 -149 116 -149h21v340h93v-340h21z" />
    <glyph glyph-name="uni0417" unicode="&#x417;" horiz-adv-x="516" 
d="M39 216h91c0 -90 33 -130 117 -130c82 0 131 35 131 141c0 111 -66 146 -139 146h-54v84h54c56 2 131 35 131 126c0 72 -38 112 -115 112c-68 0 -118 -31 -118 -129h-90c0 140 72 212 210 213c115 0 205 -63 205 -197c0 -58 -25 -135 -103 -167c78 -30 115 -79 115 -187
c0 -145 -76 -234 -226 -234c-154 0 -209 74 -209 222z" />
    <glyph glyph-name="uni0418" unicode="&#x418;" horiz-adv-x="572" 
d="M151 181l262 592h90v-773h-95v302l5 253l-254 -555h-89v773h95v-329z" />
    <glyph glyph-name="uni0419" unicode="&#x419;" horiz-adv-x="572" 
d="M413 773l-262 -592l14 263v329h-95v-773h89l254 555l-5 -253v-302h95v773h-90zM301 817c-87 0 -150 34 -151 132h78c1 -48 31 -59 73 -59c41 0 69 11 70 59h80c-1 -98 -64 -132 -150 -132z" />
    <glyph glyph-name="uni041A" unicode="&#x41a;" horiz-adv-x="557" 
d="M553 0h-117l-216 344h-60v-344h-95v772h95v-340h37c71 0 98 76 124 149c37 106 72 207 206 189l-6 -88c-81 9 -90 -73 -110 -132c-26 -73 -52 -136 -103 -171z" />
    <glyph glyph-name="uni041B" unicode="&#x41b;" horiz-adv-x="616" 
d="M5 -3v92c145 -9 138 126 139 282l3 401h400v-772h-96v682h-210l-3 -313c-1 -225 -6 -383 -233 -372z" />
    <glyph glyph-name="uni041C" unicode="&#x41c;" horiz-adv-x="629" 
d="M179 772l136 -424l136 424h109v-772h-95v363l14 211l-141 -433h-46l-141 433l14 -211v-363h-95v772h109z" />
    <glyph glyph-name="uni041D" unicode="&#x41d;" horiz-adv-x="589" 
d="M520 0h-95v323h-258v-324h-97v770h97v-355h258v355h95v-769z" />
    <glyph glyph-name="uni041E" unicode="&#x41e;" horiz-adv-x="621" 
d="M559 522v-269c0 -169 -38 -260 -250 -260s-250 91 -250 260v269c0 169 38 260 250 260s250 -91 250 -260zM463 252v271c0 122 -10 172 -154 172s-154 -50 -154 -172v-271c0 -122 10 -170 154 -170s154 48 154 170z" />
    <glyph glyph-name="uni041F" unicode="&#x41f;" horiz-adv-x="591" 
d="M522 0h-95v681h-260v-681h-97v772h452v-772z" />
    <glyph glyph-name="uni0420" unicode="&#x420;" horiz-adv-x="538" 
d="M70 771l207 1c135 0 219 -55 219 -210v-84c0 -159 -61 -223 -219 -223h-112v-256h-95v772zM277 682h-112v-336h112c85 0 124 26 124 132v84c0 106 -39 115 -124 120z" />
    <glyph glyph-name="uni0421" unicode="&#x421;" horiz-adv-x="590" 
d="M546 554h-93c-1 93 -20 135 -148 135c-134 0 -150 -48 -150 -170v-264c0 -122 20 -170 150 -170s150 29 150 151h91c0 -149 -16 -241 -241 -241s-246 92 -246 261v262c0 169 40 260 246 260c200 0 239 -75 241 -224z" />
    <glyph glyph-name="uni0422" unicode="&#x422;" horiz-adv-x="431" 
d="M423 679h-160v-679h-95v679h-160v88h415v-88z" />
    <glyph glyph-name="uni0423" unicode="&#x423;" horiz-adv-x="481" 
d="M193 539l54 -184c15 63 33 127 53 189l74 228h104l-186 -544l-34 -111c-37 -118 -103 -148 -215 -102l17 80c42 -16 85 -24 109 50l25 84l-182 543h108z" />
    <glyph glyph-name="uni0424" unicode="&#x424;" horiz-adv-x="818" 
d="M360 772h95v-75l81 1c136 0 220 -55 220 -212v-178c0 -158 -61 -222 -220 -222h-81v-86h-95v86h-80c-160 0 -221 64 -221 222v178c0 157 84 212 221 212l80 -1v75zM360 608h-80c-87 -5 -126 -14 -126 -122v-178c0 -105 39 -131 126 -131h80v431zM536 608h-81v-431h81
c86 0 125 26 125 131v178c0 108 -39 117 -125 122z" />
    <glyph glyph-name="uni0425" unicode="&#x425;" horiz-adv-x="488" 
d="M177 626l67 -173l67 172l64 147h104l-169 -384l169 -389h-104l-42 96l-89 226l-88 -225l-43 -97h-104l169 389l-169 384h104z" />
    <glyph glyph-name="uni0426" unicode="&#x426;" horiz-adv-x="610" 
d="M70 772h95v-682h250v682h98v-682h72v-200h-92v110h-423v772z" />
    <glyph glyph-name="uni0427" unicode="&#x427;" horiz-adv-x="584" 
d="M62 772h96v-257c0 -105 44 -136 130 -136c48 0 93 15 131 45v348h96v-772h-96v329c-45 -31 -92 -42 -145 -42c-149 0 -212 81 -212 227v258z" />
    <glyph glyph-name="uni0428" unicode="&#x428;" horiz-adv-x="801" 
d="M447 91h188v681h97v-772h-662v772h96v-681h189v681h92v-681z" />
    <glyph glyph-name="uni0429" unicode="&#x429;" horiz-adv-x="828" 
d="M731 772v-681h72v-200h-91v109h-642v772h95v-681h189v681h92v-681h189v681h96z" />
    <glyph glyph-name="uni042A" unicode="&#x42a;" horiz-adv-x="603" 
d="M-2 683v89h232v-254h112c158 0 219 -65 219 -223v-85c0 -154 -84 -210 -219 -210h-208v683h-136zM230 90h112c84 0 124 14 124 120v85c0 105 -40 132 -124 132h-112v-337z" />
    <glyph glyph-name="uni042B" unicode="&#x42b;" horiz-adv-x="771" 
d="M278 0h-208v772h95v-254h113c158 0 218 -65 218 -223v-85c0 -154 -84 -210 -218 -210zM165 90h113c85 0 123 14 123 120v85c0 105 -39 132 -123 132h-113v-337zM610 0v772h95v-772h-95z" />
    <glyph glyph-name="uni042C" unicode="&#x42c;" horiz-adv-x="538" 
d="M278 0h-208v775h95v-257h113c158 0 218 -65 218 -223v-85c0 -154 -84 -210 -218 -210zM165 90h113c85 0 123 14 123 120v85c0 105 -39 132 -123 132h-113v-337z" />
    <glyph glyph-name="uni042D" unicode="&#x42d;" horiz-adv-x="610" 
d="M152 556h-93c2 150 42 226 242 226c207 0 247 -92 247 -261v-263c0 -170 -21 -262 -247 -262c-225 0 -242 92 -242 241h91c0 -122 21 -151 151 -151c131 0 150 49 150 171v93h-226v88h226v84c0 123 -16 170 -150 170c-128 0 -148 -42 -149 -136z" />
    <glyph glyph-name="uni042E" unicode="&#x42e;" horiz-adv-x="827" 
d="M292 416v109c0 165 36 261 236 261s237 -96 237 -261v-270c0 -166 -37 -260 -237 -260s-236 94 -236 260v72h-124v-327h-98v772h98v-356h124zM528 84c132 0 141 52 141 170v272c0 119 -9 172 -141 172c-131 0 -140 -53 -140 -172v-272c0 -118 9 -170 140 -170z" />
    <glyph glyph-name="uni042F" unicode="&#x42f;" horiz-adv-x="565" 
d="M68 511v50c0 156 85 211 220 211h208v-772h-96v288h-87l-156 -287h-112l169 292c-118 24 -146 110 -146 218zM400 681h-112c-85 -6 -125 -13 -125 -120v-50c0 -106 40 -132 125 -132h112v302z" />
    <glyph glyph-name="uni0430" unicode="&#x430;" 
d="M461 395v-395h-86l-8 79c-21 -43 -78 -84 -149 -84c-134 0 -167 71 -174 140c-10 103 60 177 180 194c46 7 95 8 141 9v57c0 66 -23 109 -111 109c-55 0 -93 -19 -92 -98h-93c-4 130 64 185 188 185c128 0 204 -54 204 -196zM367 259c-27 0 -85 1 -135 -10
c-65 -14 -99 -45 -92 -102c4 -46 45 -61 88 -61c105 0 136 77 139 173z" />
    <glyph glyph-name="uni0431" unicode="&#x431;" horiz-adv-x="537" 
d="M272 769c45 4 93 7 122 35l58 -63c-53 -56 -102 -54 -176 -60c-130 -9 -131 -48 -131 -167c31 44 87 62 137 62c148 0 205 -80 205 -225v-139c0 -160 -61 -222 -218 -222s-219 62 -219 222v301c0 163 32 242 222 256zM146 354l-1 -142c-1 -105 42 -131 124 -131
c81 0 123 26 123 131v137c0 109 -39 136 -123 136c-70 0 -123 -26 -123 -131z" />
    <glyph glyph-name="uni0432" unicode="&#x432;" horiz-adv-x="512" 
d="M55 0v582h205c95 0 178 -46 178 -150c0 -55 -15 -92 -68 -115c63 -22 98 -73 98 -140c0 -131 -86 -177 -209 -177h-204zM260 497h-112v-148h114c50 0 82 26 82 74c0 50 -35 74 -84 74zM150 87h112c85 0 111 33 111 91c0 70 -46 91 -110 91h-113v-182z" />
    <glyph glyph-name="uni0433" unicode="&#x433;" horiz-adv-x="390" 
d="M154 0h-93v582h310v-89h-217v-493z" />
    <glyph glyph-name="uni0434" unicode="&#x434;" horiz-adv-x="563" 
d="M11 89h41c36 30 55 70 68 113c12 48 15 104 15 155l6 225h341v-493h68v-198h-90v110h-359v-110h-90v198zM163 89h225v404h-154l-3 -136c0 -59 -6 -119 -21 -179c-10 -35 -26 -63 -47 -89z" />
    <glyph glyph-name="uni0435" unicode="&#x435;" horiz-adv-x="538" 
d="M391 170h92c0 -113 -62 -176 -214 -176c-156 0 -216 57 -216 214v171c0 153 83 209 216 209c131 0 216 -57 216 -209v-125h-338v-44c0 -104 38 -128 122 -128s122 28 122 88zM147 379v-42h247v42c0 103 -50 125 -125 125s-122 -21 -122 -125z" />
    <glyph glyph-name="uni0436" unicode="&#x436;" horiz-adv-x="747" 
d="M734 0h-111l-166 259h-38v-259h-95v259h-40l-165 -259h-111l193 296c-95 63 -62 212 -166 198v87c205 18 132 -235 270 -235h19v235h95v-235h19c137 0 63 253 268 235v-87c-104 14 -68 -135 -165 -198z" />
    <glyph glyph-name="uni0437" unicode="&#x437;" horiz-adv-x="491" 
d="M40 160h95c0 -78 39 -85 105 -85c59 0 111 27 111 94c0 75 -32 95 -102 95h-76v84h76c55 0 91 19 91 79c0 61 -45 78 -101 78c-58 0 -97 -16 -97 -78h-92c0 121 79 162 190 162c104 0 195 -42 195 -160c0 -52 -18 -103 -73 -122c66 -22 84 -73 84 -138
c0 -129 -88 -177 -207 -177c-127 0 -199 28 -199 168z" />
    <glyph glyph-name="uni0438" unicode="&#x438;" horiz-adv-x="552" 
d="M153 161l241 420h103v-581h-94v423l-243 -423h-102v581h95v-420z" />
    <glyph glyph-name="uni0439" unicode="&#x439;" horiz-adv-x="552" 
d="M153 161l241 420h103v-581h-94v423l-243 -423h-102v581h95v-420zM280 640c-90 0 -156 34 -157 136h81c1 -50 32 -61 76 -61s73 11 74 61h84c-2 -102 -66 -136 -158 -136z" />
    <glyph glyph-name="uni043A" unicode="&#x43a;" horiz-adv-x="508" 
d="M503 0h-113l-188 260h-51v-260h-95v581h95v-235h32c139 0 74 257 285 237l-2 -87c-107 17 -82 -136 -178 -200z" />
    <glyph glyph-name="uni043B" unicode="&#x43b;" horiz-adv-x="554" 
d="M26 -3v93c123 7 115 187 116 278l3 213h354v-581h-96v492h-163l-3 -125c-4 -170 -15 -366 -211 -370z" />
    <glyph glyph-name="uni043C" unicode="&#x43c;" horiz-adv-x="624" 
d="M371 389l78 192h120v-581h-94v211l1 202l-130 -310h-64l-130 310l1 -202v-211h-94v581h120l79 -192l56 -146z" />
    <glyph glyph-name="uni043D" unicode="&#x43d;" horiz-adv-x="546" 
d="M154 581v-232h242v232h95v-581h-95v261h-242v-261h-95v581h95z" />
    <glyph glyph-name="uni043E" unicode="&#x43e;" horiz-adv-x="538" 
d="M269 73c88 0 124 34 124 140v167c0 106 -45 127 -124 127s-124 -21 -124 -127v-167c0 -106 39 -140 124 -140zM269 -10c-158 0 -219 64 -219 223v167c0 155 84 212 219 212s219 -57 219 -212v-167c0 -159 -64 -223 -219 -223z" />
    <glyph glyph-name="uni043F" unicode="&#x43f;" horiz-adv-x="546" 
d="M59 581h432v-581h-95v492h-243v-492h-94v581z" />
    <glyph glyph-name="uni0440" unicode="&#x440;" horiz-adv-x="562" 
d="M66 -197v782h80l12 -77c18 51 77 80 145 80c117 0 198 -53 198 -211v-154c0 -158 -75 -227 -198 -227c-63 0 -109 9 -141 51v-244h-96zM162 220c0 -100 35 -132 120 -132s124 34 124 137v153c0 96 -39 121 -117 121c-81 -3 -127 -38 -127 -153v-126z" />
    <glyph glyph-name="uni0441" unicode="&#x441;" horiz-adv-x="528" 
d="M393 198h90c-2 -154 -62 -208 -214 -208s-219 64 -219 223v166c0 155 84 213 219 213c130 0 208 -46 214 -196l-90 -1c-4 92 -48 109 -124 109c-80 0 -124 -19 -124 -125v-166c0 -106 43 -132 124 -132s122 17 124 117z" />
    <glyph glyph-name="uni0442" unicode="&#x442;" horiz-adv-x="406" 
d="M5 581h393v-88h-149v-493h-95v493h-149v88z" />
    <glyph glyph-name="uni0443" unicode="&#x443;" horiz-adv-x="491" 
d="M175 397l75 -271c11 57 28 131 73 277l57 182h99l-183 -586l-35 -111c-37 -118 -102 -147 -213 -102l17 81c41 -17 88 -26 112 49l24 83l-186 586h104z" />
    <glyph glyph-name="uni0444" unicode="&#x444;" horiz-adv-x="815" 
d="M455 -195h-94v242c-30 -38 -81 -51 -127 -51c-132 -1 -184 109 -184 225v138c0 122 47 227 184 226c46 -2 97 -13 127 -51v242h94v-242c28 38 79 49 124 51c138 1 186 -104 186 -226v-138c0 -116 -54 -226 -186 -225c-45 0 -96 13 -124 51v-242zM560 87
c76 0 110 40 110 135v136c0 96 -34 136 -110 136c-85 0 -105 -51 -105 -131v-146c0 -93 30 -130 105 -130zM254 87c75 0 107 37 107 130v146c0 80 -21 131 -107 131c-75 0 -110 -40 -110 -136v-136c0 -95 34 -135 110 -135z" />
    <glyph glyph-name="uni0445" unicode="&#x445;" horiz-adv-x="475" 
d="M360 0l-59 102l-65 123l-65 -124l-58 -101h-104l173 295l-167 288h107l55 -93l60 -116l62 117l54 92h104l-166 -287l176 -296h-107z" />
    <glyph glyph-name="uni0446" unicode="&#x446;" horiz-adv-x="573" 
d="M154 89h234v492h95v-492h66v-199h-91v110h-399v581h95v-492z" />
    <glyph glyph-name="uni0447" unicode="&#x447;" horiz-adv-x="526" 
d="M44 581h94v-161c0 -105 34 -135 119 -135c78 0 118 38 119 131l1 165h94v-581h-95v253c-21 -31 -67 -60 -133 -60c-148 0 -199 81 -199 225v163z" />
    <glyph glyph-name="uni0448" unicode="&#x448;" horiz-adv-x="770" 
d="M433 89h187v492h95v-581h-656v581h95v-492h187v492h92v-492z" />
    <glyph glyph-name="uni0449" unicode="&#x449;" horiz-adv-x="806" 
d="M433 89h187v492h96v-492h66v-199h-91v110h-632v581h96v-492h187v492h91v-492z" />
    <glyph glyph-name="uni044A" unicode="&#x44a;" horiz-adv-x="590" 
d="M1 581h238v-179h101c134 0 209 -53 209 -202c0 -147 -54 -200 -209 -200h-197v495h-142v86zM340 87c92 0 114 33 114 113c0 84 -21 117 -114 117h-101v-230h101z" />
    <glyph glyph-name="uni044B" unicode="&#x44b;" horiz-adv-x="719" 
d="M155 87h102c90 0 113 33 113 113c0 84 -21 117 -113 117h-102v-230zM155 581v-179h102c132 0 208 -53 208 -202c0 -147 -53 -200 -208 -200h-198v581h96zM568 0v581h96v-581h-96z" />
    <glyph glyph-name="uni044C" unicode="&#x44c;" horiz-adv-x="500" 
d="M156 87h102c90 0 113 33 113 113c0 84 -21 117 -113 117h-102v-230zM156 581v-179h102c132 0 208 -53 208 -202c0 -147 -53 -200 -208 -200h-198v581h96z" />
    <glyph glyph-name="uni044D" unicode="&#x44d;" horiz-adv-x="529" 
d="M50 192h89c3 -94 43 -111 123 -111c81 0 124 26 124 130v39h-162v84h162v43c0 104 -44 123 -124 123c-75 0 -119 -16 -123 -103h-89c7 146 83 191 212 191c135 0 217 -57 217 -211v-166c0 -158 -66 -221 -217 -221c-149 0 -209 52 -212 202z" />
    <glyph glyph-name="uni044E" unicode="&#x44e;" horiz-adv-x="724" 
d="M156 581v-232h109v27c0 149 79 210 205 210c128 0 208 -61 208 -210v-170c0 -148 -80 -209 -208 -209c-126 0 -205 61 -205 209v54h-109v-260h-93v581h93zM359 206c0 -98 41 -124 111 -124c72 0 112 26 112 124v170c0 99 -40 125 -112 125c-70 0 -111 -26 -111 -125v-170
z" />
    <glyph glyph-name="uni044F" unicode="&#x44f;" horiz-adv-x="497" 
d="M48 383v40c0 116 77 158 179 158h215v-581h-97v215h-85l-124 -215h-111l137 225c-73 19 -114 69 -114 158zM345 494h-112c-62 0 -90 -10 -90 -75v-34c0 -67 28 -83 90 -83h112v192z" />
    </font>
</defs>
</svg>
