<?xml version="1.0" standalone="no"?>
<!DOCTYPE svg PUBLIC "-//W3C//DTD SVG 1.1//EN" "http://www.w3.org/Graphics/SVG/1.1/DTD/svg11.dtd" >
<svg>
<metadata>
Created by FontForge 20120731 at Tue Aug  5 06:14:14 2014
 By World Wide Web Server
Copyright (c) 1996-97. ASCON Ltd. All Rights Reserved. 
</metadata>
<defs>
<font id="GOSTTypeB" horiz-adv-x="980" >
  <font-face 
    font-family="GOST type B"
    font-weight="400"
    font-stretch="normal"
    units-per-em="2048"
    panose-1="2 11 5 0 0 0 0 0 0 0"
    ascent="1638"
    descent="-410"
    x-height="980"
    cap-height="1400"
    bbox="-140 -420 2800 1821"
    underline-thickness="100"
    underline-position="-100"
    unicode-range="U+0020-2030"
  />
<missing-glyph horiz-adv-x="1414" 
d="M88 0v1414h1238v-1414h-1238zM1238 88v1238h-1062v-1238h1062z" />
    <glyph glyph-name=".notdef" horiz-adv-x="1414" 
d="M88 0v1414h1238v-1414h-1238zM1238 88v1238h-1062v-1238h1062z" />
    <glyph glyph-name=".null" horiz-adv-x="0" 
 />
    <glyph glyph-name="nonmarkingreturn" horiz-adv-x="840" 
 />
    <glyph glyph-name="space" unicode=" " horiz-adv-x="840" 
 />
    <glyph glyph-name="exclam" unicode="!" horiz-adv-x="420" 
d="M280 350q0 -33 -20 -53q-19 -17 -50 -17q-28 0 -49 17.5t-21 52.5v980q0 28 21 52q21 18 49 18q27 0 48.5 -17.5t21.5 -52.5v-980zM140 70q0 28 21 52q21 18 49 18q27 0 48.5 -17.5t21.5 -52.5q0 -33 -20 -53q-19 -17 -50 -17q-28 0 -49 17.5t-21 52.5z" />
    <glyph glyph-name="quotedbl" unicode="&#x22;" horiz-adv-x="700" 
d="M557 1313l-70 -280q-12 -53 -67 -53q-29 0 -50 20q-23 18 -23 48l3 19l70 280q12 53 67 53q31 0 51 -20q22 -19 22 -49zM277 1313l-70 -280q-12 -53 -67 -53q-29 0 -50 20q-23 18 -23 48l3 19l70 280q12 53 67 53q31 0 51 -20q22 -19 22 -49z" />
    <glyph glyph-name="numbersign" unicode="#" horiz-adv-x="1386" 
d="M451 904h-112q-32 0 -52 20q-18 21 -18 50q0 25 18.5 47.5t51.5 22.5h143l64 300q3 24 24 41q21 15 45 15q26 0 49 -17q21 -18 21 -50l-2 -17l-57 -272h290l64 301q12 55 66 55q30 0 50 -20q22 -19 22 -49l-1 -17l-59 -270h109q33 0 52 -19q18 -21 18 -51
q0 -25 -17 -47.5t-53 -22.5h-138l-90 -414h111q33 0 51.5 -22t18.5 -48q0 -24 -17.5 -47t-52.5 -23h-141l-65 -298q-12 -55 -66 -55q-29 0 -50.5 19.5t-21.5 49.5l1 17l57 267h-287l-64 -297q-3 -23 -23.5 -39.5t-45.5 -16.5q-24 0 -47 17.5t-23 49.5l2 17l57 269h-112
q-32 0 -52 20q-18 21 -18 50q0 25 18.5 47.5t51.5 22.5h142zM885 904h-290l-90 -414h290z" />
    <glyph glyph-name="dollar" unicode="$" horiz-adv-x="1120" 
d="M493 1397v207q0 28 21 52q21 18 49 18q26 0 49 -17q21 -18 21 -53v-208q161 -15 304 -114q14 -9 22 -26q8 -13 8 -30q0 -24 -21.5 -48.5t-48.5 -24.5q-22 0 -42 14q-91 65 -222 89v-473l211 -156q62 -43 102 -122.5t40 -161.5q0 -87 -36 -159.5t-113 -113.5l-47 -24
l-55 -21l-102 -25v-210q0 -29 -21.5 -49.5t-48.5 -20.5q-24 0 -47 17.5t-23 52.5v206q-36 0 -74 10t-80 29q-68 25 -161 84q-32 21 -32 57q0 30 19.5 51.5t48.5 21.5q18 0 39 -12q58 -38 121 -66q40 -16 119 -32v575l-247 182q-43 30 -69.5 83.5t-26.5 110.5q0 76 38 143.5
t119 110.5q36 17 82 31q41 11 104 22zM493 886v371l-25 -4q-16 -2 -40 -9.5t-57 -24.5q-38 -21 -64 -57l-17 -34q-6 -15 -6 -39q0 -49 41 -78zM633 610v-467q35 6 69 18q19 7 33 13t36 18q36 18 57 60q10 21 16 43t6 45q0 47 -21 98q-19 37 -63 74z" />
    <glyph glyph-name="percent" unicode="%" horiz-adv-x="2100" 
d="M1960 322q0 -150 -101 -242q-88 -80 -221 -80q-129 0 -221 80q-101 87 -101 242q0 150 101 241q92 81 221 81t221 -80q101 -87 101 -242zM1529 1291l-840 -1260q-8 -13 -27 -25l-31 -7q-22 0 -49 21q-23 21 -23 50q0 18 12 39l840 1260q9 14 25 24l15 6l17 2q27 0 51 -21
q22 -22 22 -50q0 -18 -12 -39zM784 1078q0 -150 -101 -242q-88 -80 -221 -80q-129 0 -221 80q-101 87 -101 242q0 150 101 241q92 81 221 81t221 -80q101 -87 101 -242zM1820 322q0 81 -55 131.5t-127 50.5q-69 0 -125 -45q-57 -50 -57 -137q0 -84 56 -136q52 -46 126 -46
q70 0 124 45q58 50 58 137zM644 1078q0 81 -53 133q-55 49 -129 49q-69 0 -125 -45q-57 -50 -57 -137q0 -84 56 -136q52 -46 126 -46q72 0 127 47.5t55 134.5z" />
    <glyph glyph-name="ampersand" unicode="&#x26;" horiz-adv-x="1260" 
d="M557 945l-91 131l-10 19q-8 19 -8 39q0 45 42 87t97 42l19 -2q53 -6 93 -49t40 -84q0 -27 -25 -53zM854 273l-85 -80q-42 -33 -91 -50.5t-93 -17.5q-113 0 -201.5 87.5t-88.5 206.5q0 52 20.5 103t69.5 98l144 121zM449 855l-158 -131q-64 -64 -98.5 -144t-34.5 -156
q0 -167 129 -302.5t302 -135.5q72 0 140 23.5t132 78.5l73 70l89 -129l25 -23l31 -7q26 0 49.5 21t23.5 50q0 21 -14 41l-101 145l91 86q23 21 23 49q0 26 -21.5 48.5t-50.5 22.5q-26 0 -46 -20l-75 -71l-321 459l167 139q29 23 50 64q15 39 15 84q0 96 -65 176
q-69 87 -174 105l-22 3h-19q-105 0 -192.5 -84.5t-87.5 -192.5q0 -34 9 -65t33 -64z" />
    <glyph glyph-name="quotesingle" unicode="'" horiz-adv-x="420" 
d="M297 1313l-70 -280q-12 -53 -67 -53q-31 0 -51 20q-22 19 -22 48l3 19l70 280q12 53 67 53q30 0 50 -20q23 -18 23 -49z" />
    <glyph glyph-name="parenleft" unicode="(" horiz-adv-x="630" 
d="M484 -118q10 -20 10 -36q0 -27 -22.5 -47t-51.5 -20q-32 0 -59 36q-94 174 -155 394q-23 90 -39 202t-16 213q0 425 210 809q9 17 26 27q15 7 34 10q31 0 52 -20q21 -18 21 -49q0 -15 -10 -35q-23 -41 -42.5 -81.5t-37 -84.5t-33 -91t-30.5 -100q-50 -195 -50 -385
q0 -393 193 -742z" />
    <glyph glyph-name="parenright" unicode=")" horiz-adv-x="630" 
d="M263 -185q-6 -13 -25 -26l-17 -7l-18 -3q-28 0 -50.5 19.5t-22.5 48.5q0 15 10 35q87 161 143 362q50 194 50 380q0 109 -10.5 197t-36.5 184l-27 92l-14 44l-18 47q-32 82 -87 178l-10 37q0 24 23 45.5t51 21.5q35 0 59 -37q51 -94 86.5 -185t68.5 -209q23 -88 39 -201
t16 -214q0 -117 -12.5 -216.5t-40.5 -200.5q-48 -204 -157 -392z" />
    <glyph glyph-name="asterisk" unicode="*" horiz-adv-x="910" 
d="M601 1050l67 -101l10 -21l2 -19q0 -27 -21.5 -48.5t-52.5 -21.5q-33 0 -56 32l-81 122l-81 -122q-8 -13 -27 -25l-31 -7q-22 0 -49 21q-23 21 -23 50q0 18 12 39l67 101h-120q-32 0 -52 19q-18 23 -18 51q0 24 17.5 47t52.5 23h120l-67 101l-10 21l-2 19q0 27 21.5 48.5
t52.5 21.5q33 0 56 -32l81 -122l81 122q9 14 25 24q16 8 33 8q21 0 50 -21q22 -22 22 -50q0 -18 -12 -39l-67 -101h120q29 0 49.5 -21.5t20.5 -48.5q0 -24 -17.5 -47t-52.5 -23h-120z" />
    <glyph glyph-name="plus" unicode="+" 
d="M563 420v-210q0 -33 -20 -53q-19 -17 -50 -17q-28 0 -49 17.5t-21 52.5v210h-210q-32 0 -52 20q-18 21 -18 50q0 25 18.5 47.5t51.5 22.5h210v210q0 28 21 52q21 18 49 18q26 0 49 -17q21 -18 21 -53v-210h210q33 0 51.5 -22t18.5 -48q0 -24 -17.5 -47t-52.5 -23h-210z
" />
    <glyph glyph-name="comma" unicode="," horiz-adv-x="420" 
d="M287 70l-1 -17l-70 -280q-12 -53 -68 -53q-31 0 -51 20q-21 15 -21 49l2 18l69 274v59q0 28 21 52q21 18 49 18q27 0 48.5 -17.5t21.5 -52.5v-70z" />
    <glyph glyph-name="hyphen" unicode="-" 
d="M770 420h-560q-32 0 -52 20q-18 21 -18 50q0 25 18.5 47.5t51.5 22.5h560q29 0 49.5 -21.5t20.5 -48.5q0 -24 -17.5 -47t-52.5 -23z" />
    <glyph glyph-name="period" unicode="." horiz-adv-x="420" 
d="M140 70q0 29 20.5 49.5t49.5 20.5q23 0 46.5 -20.5t23.5 -49.5q0 -25 -20.5 -47.5t-49.5 -22.5q-30 0 -51 21q-19 22 -19 49z" />
    <glyph glyph-name="slash" unicode="/" horiz-adv-x="1260" 
d="M1046 1725l-770 -1960q-7 -16 -25 -32l-19 -9l-19 -4q-30 0 -52 19t-22 50q0 16 5 26l770 1960q5 15 24 32l13 7q12 6 26 6q30 0 52 -19t22 -50q0 -16 -5 -26z" />
    <glyph glyph-name="zero" unicode="0" 
d="M840 308q0 -125 -89.5 -216.5t-218.5 -91.5h-84q-125 0 -216.5 89t-91.5 219v784q0 123 90 215.5t218 92.5h84q125 0 216.5 -89.5t91.5 -218.5v-784zM700 308v784q0 69 -48.5 118.5t-119.5 49.5h-84q-69 0 -118.5 -49t-49.5 -119v-784q0 -69 49 -118.5t119 -49.5h84
q68 0 118 48t50 120z" />
    <glyph glyph-name="one" unicode="1" horiz-adv-x="700" 
d="M560 70q0 -33 -20 -53q-19 -17 -50 -17q-28 0 -49 17.5t-21 52.5v1092l-161 -161q-21 -21 -48 -21q-25 0 -49 21q-22 22 -22 50q0 24 21 48l280 280q14 14 29 22.5t33 8.5q17 0 40 -21q17 -22 17 -59v-1260z" />
    <glyph glyph-name="two" unicode="2" 
d="M788 861l-452 -721h434q29 0 49.5 -21.5t20.5 -48.5q0 -24 -17.5 -47t-52.5 -23h-560q-76 0 -76 56q0 22 17 52l517 824q26 55 26 105q0 90 -70 156q-33 31 -77 49t-95 18q-53 0 -102 -28q-49 -31 -81 -80q-8 -13 -27 -25l-31 -7q-27 0 -49.5 19.5t-22.5 48.5q0 14 12 40
q48 75 130 123q40 23 81 36t80 13q164 0 277.5 -108.5t113.5 -258.5q0 -86 -45 -172z" />
    <glyph glyph-name="three" unicode="3" 
d="M483 1258h-280q-32 0 -52 20q-18 21 -18 50q0 25 18.5 47.5t51.5 22.5h280q164 0 262 -107q88 -100 88 -241q0 -85 -33.5 -156t-102.5 -128q58 -46 97 -119.5t39 -157.5v-140q0 -143 -103 -246.5t-247 -103.5h-280q-32 0 -52 19q-18 23 -18 51q0 24 17.5 47t52.5 23h280
q87 0 148.5 61.5t61.5 148.5v140q0 86 -60.5 148t-149.5 62h-140q-32 0 -52 19q-18 23 -18 51q0 24 17.5 47t52.5 23h140q93 0 153 67q51 60 51 147q0 85 -49 141q-56 64 -155 64z" />
    <glyph glyph-name="four" unicode="4" horiz-adv-x="1120" 
d="M770 420h140q29 0 49.5 -21.5t20.5 -48.5q0 -24 -17.5 -47t-52.5 -23h-140v-210q0 -33 -20 -53q-19 -17 -50 -17q-28 0 -49 17.5t-21 52.5v210h-420q-73 0 -73 57l2 17l4 16l280 979q6 21 24 38l13 7q12 6 27 6q31 0 51 -20q22 -19 22 -49l-3 -21l-255 -890h328v210
q0 28 21 52q21 18 49 18q27 0 48.5 -17.5t21.5 -52.5v-210z" />
    <glyph glyph-name="five" unicode="5" 
d="M280 1260v-420h210q143 0 246.5 -102.5t103.5 -247.5v-140q0 -143 -103 -246.5t-247 -103.5h-280q-32 0 -52 20q-18 21 -18 50q0 25 18.5 47.5t51.5 22.5h280q86 0 148 60t62 150v140q0 87 -60.5 148.5t-149.5 61.5h-280q-70 0 -70 70v560q0 70 70 70h560
q29 0 49.5 -21.5t20.5 -48.5q0 -24 -17.5 -47t-52.5 -23h-490z" />
    <glyph glyph-name="six" unicode="6" 
d="M283 700l-3 -70v-350q0 -59 40 -100q21 -18 45 -30q30 -10 55 -10h140q58 0 99 39t41 101v280q0 59 -39.5 99.5t-100.5 40.5h-277zM307 840h253q114 0 197 -81.5t83 -198.5v-280q0 -115 -82 -197.5t-198 -82.5h-140q-113 0 -196.5 81t-83.5 199v350q0 199 76 378
q52 124 153 226t234 160l30 7q27 0 49 -22q18 -23 18 -51q0 -20 -9 -34t-34 -29q-28 -11 -50.5 -22.5t-48.5 -29.5q-43 -29 -88 -72q-82 -82 -126 -188l-21 -56z" />
    <glyph glyph-name="seven" unicode="7" 
d="M280 1260v-70q0 -33 -20 -53q-19 -17 -50 -17q-28 0 -49 17.5t-21 52.5v140q0 70 70 70h560q71 0 71 -58l-4 -30l-350 -1260q-3 -21 -23 -36.5t-43 -15.5q-31 0 -51 17.5t-20 49.5q0 15 3 21l325 1172h-398z" />
    <glyph glyph-name="eight" unicode="8" horiz-adv-x="1120" 
d="M560 840q95 0 157 66q52 61 52 144q0 85 -52 144q-57 66 -157 66q-92 0 -157 -66q-52 -61 -52 -144q0 -85 52 -144q57 -66 157 -66zM560 700q-132 0 -210 -87q-70 -79 -70 -193q0 -113 70 -192q79 -88 210 -88q132 0 210 87q70 79 70 193q0 111 -69 192q-79 88 -211 88z
M792 778q93 -54 141 -150.5t48 -207.5q0 -165 -105 -288q-116 -132 -316 -132q-197 0 -315 130q-105 117 -105 290q0 111 46.5 206.5t142.5 153.5q-56 47 -87 119.5t-31 150.5q0 140 87 241q97 109 262 109q162 0 262 -109q88 -100 88 -241q0 -78 -29.5 -150.5t-88.5 -121.5
z" />
    <glyph glyph-name="nine" unicode="9" 
d="M697 700l2 32l1 38v350q0 59 -39.5 99.5t-100.5 40.5h-140q-59 0 -100 -40q-20 -20 -30 -45.5t-10 -54.5v-280q0 -59 40 -100q21 -18 45 -30q30 -10 55 -10h277zM673 560h-253q-113 0 -196.5 81t-83.5 199v280q0 116 82 198t198 82h140q117 0 198.5 -82t81.5 -198v-349
q0 -202 -76 -378q-55 -131 -154.5 -232t-232.5 -155l-30 -6q-24 0 -45.5 22.5t-21.5 50.5q0 17 9 33t34 28q53 21 99 51t88 74q78 80 126 189l19 53z" />
    <glyph glyph-name="colon" unicode=":" horiz-adv-x="420" 
d="M140 392q0 29 20.5 49.5t49.5 20.5q23 0 46.5 -20.5t23.5 -49.5q0 -25 -20.5 -47.5t-49.5 -22.5q-30 0 -51 21q-19 22 -19 49zM140 959q0 29 20.5 49.5t49.5 20.5q23 0 46.5 -20.5t23.5 -49.5q0 -25 -20.5 -47.5t-49.5 -22.5q-30 0 -51 21q-19 22 -19 49z" />
    <glyph glyph-name="semicolon" unicode=";" horiz-adv-x="420" 
d="M280 637q0 -25 -20.5 -47.5t-49.5 -22.5q-30 0 -51 21q-19 22 -19 49q0 29 20.5 49.5t49.5 20.5q23 0 46.5 -20.5t23.5 -49.5zM279 53l-70 -283q-12 -53 -68 -53q-31 0 -51 20q-21 17 -21 49l2 18l70 283q12 53 68 53q30 0 50 -20q22 -19 22 -49z" />
    <glyph glyph-name="less" unicode="&#x3c;" 
d="M801 273q40 -22 40 -62q0 -31 -20 -51q-18 -21 -48 -21l-17 1q-6 0 -17 7l-560 280q-50 24 -50 63q0 38 50 63l560 280q5 2 15.5 4.5t18.5 3.5q24 0 45.5 -22t21.5 -50q0 -36 -39 -62l-434 -217z" />
    <glyph glyph-name="equal" unicode="=" 
d="M770 630h-560q-32 0 -52 20q-18 21 -18 50q0 25 18.5 47.5t51.5 22.5h560q29 0 49.5 -21.5t20.5 -48.5q0 -24 -17.5 -47t-52.5 -23zM770 280h-560q-32 0 -52 20q-18 21 -18 50q0 25 18.5 47.5t51.5 22.5h560q29 0 49.5 -21.5t20.5 -48.5q0 -24 -17.5 -47t-52.5 -23z" />
    <glyph glyph-name="greater" unicode="&#x3e;" 
d="M801 427l-560 -280l-34 -8q-24 0 -47 22q-20 22 -20 50q0 36 39 62l434 217l-434 217q-40 22 -40 62q0 27 19.5 49.5t48.5 22.5l17 -1q6 0 17 -7l560 -280q50 -24 50 -63q0 -38 -50 -63z" />
    <glyph glyph-name="question" unicode="?" 
d="M756 868q-63 -87 -154 -154q-42 -29 -42 -84v-280q0 -33 -20 -53q-19 -17 -50 -17q-28 0 -49 17.5t-21 52.5v280q0 114 97 196q69 49 127 126q38 50 38 115q0 77 -55 135t-137 58q-66 0 -123 -28t-101 -84q-21 -30 -56 -30q-27 0 -49 23q-24 21 -24 47q0 20 17 44
q59 79 149 123.5t187 44.5q141 0 237 -99.5t96 -235.5q0 -53 -15.5 -98t-51.5 -99zM420 70q0 29 20.5 49.5t49.5 20.5q23 0 46.5 -20.5t23.5 -49.5q0 -25 -20.5 -47.5t-49.5 -22.5q-30 0 -51 21q-19 22 -19 49z" />
    <glyph glyph-name="at" unicode="@" horiz-adv-x="1680" 
d="M980 561v349h-210q-28 0 -49 -20q-21 -18 -21 -49v-280q0 -31 19.5 -51t50.5 -20h140q20 0 45 21t25 50zM1190 490h64q50 0 87.5 29.5t51.5 85.5l6 47l2 49q0 225 -162.5 392t-398.5 167q-230 0 -395 -164t-165 -396q0 -230 164 -395t396 -165q87 0 171 27t162 91
q20 15 43 15q27 0 48.5 -22t21.5 -51q0 -34 -29 -54q-85 -65 -197 -108q-106 -38 -220 -38q-288 0 -494 204.5t-206 495.5t204.5 495.5t495.5 204.5q290 0 495 -208t205 -491q0 -71 -10 -117q-15 -94 -94.5 -164t-181.5 -70h-64q-32 0 -77 21q-31 16 -63 46q-32 -27 -78 -53
q-37 -14 -62 -14h-140q-87 0 -148.5 63t-61.5 148v280q0 87 61 148t149 61h280q70 0 70 -70v-419l28 -49q19 -22 42 -22z" />
    <glyph glyph-name="A" unicode="A" horiz-adv-x="1260" 
d="M385 351l-101 -302q-8 -22 -26 -36q-14 -9 -38 -12q-28 0 -49 20q-23 18 -23 48l5 25l421 1260q21 60 66 60t66 -60l419 -1260l5 -25q0 -27 -23 -49q-22 -19 -49 -19q-14 0 -31.5 7t-32.5 41l-101 302h-508zM846 494l-206 617l-207 -617h413z" />
    <glyph glyph-name="B" unicode="B" horiz-adv-x="1120" 
d="M846 799q60 -36 97 -101t37 -138v-280q0 -115 -82 -197.5t-198 -82.5h-490q-70 0 -70 70v1260q0 70 70 70h420q117 0 198.5 -82t81.5 -198v-140q0 -48 -15 -93t-49 -88zM280 701v-561h420q58 0 99 39t41 101v280q0 59 -39.5 99.5t-100.5 40.5zM630 840q58 0 99 39t41 101
v140q0 59 -39.5 99.5t-100.5 40.5h-350v-421z" />
    <glyph glyph-name="C" unicode="C" 
d="M770 0h-350q-114 0 -197 81.5t-83 198.5v840q0 117 81.5 198.5t198.5 81.5h350q29 0 49.5 -21.5t20.5 -48.5q0 -24 -17.5 -47t-52.5 -23h-350q-59 0 -100 -40q-20 -20 -30 -45.5t-10 -54.5v-840q0 -59 40 -100q21 -18 45 -30q30 -10 55 -10h350q29 0 49.5 -21.5
t20.5 -48.5q0 -24 -17.5 -47t-52.5 -23z" />
    <glyph glyph-name="D" unicode="D" horiz-adv-x="1120" 
d="M980 280q0 -115 -82 -197.5t-198 -82.5h-490q-70 0 -70 70v1260q0 70 70 70h490q117 0 198.5 -82t81.5 -198v-840zM840 280v840q0 59 -39.5 99.5t-100.5 40.5h-420v-1120h420q58 0 99 39t41 101z" />
    <glyph glyph-name="E" unicode="E" 
d="M280 840h351q29 0 49.5 -21.5t20.5 -48.5q0 -25 -17.5 -47.5t-52.5 -22.5h-351v-560h491q29 0 49.5 -21.5t20.5 -48.5q0 -25 -17.5 -47.5t-52.5 -22.5h-561q-70 0 -70 66v1264q0 70 70 70h561q29 0 49.5 -21.5t20.5 -48.5q0 -25 -17.5 -47.5t-52.5 -22.5h-491v-420z" />
    <glyph glyph-name="F" unicode="F" 
d="M280 841h490q33 0 52 -19q18 -21 18 -51q0 -24 -17.5 -47t-52.5 -23h-490v-631q0 -33 -20 -53q-19 -17 -50 -17q-28 0 -49 17.5t-21 52.5v1260q0 70 70 70h560q29 0 49.5 -21.5t20.5 -48.5q0 -24 -17.5 -47t-52.5 -23h-490v-419z" />
    <glyph glyph-name="G" unicode="G" horiz-adv-x="1120" 
d="M980 70q0 -70 -70 -70h-490q-114 0 -197 81.5t-83 198.5v840q0 117 81.5 198.5t198.5 81.5h490q29 0 49.5 -21.5t20.5 -48.5q0 -24 -17.5 -47t-52.5 -23h-490q-59 0 -100 -40q-20 -20 -30 -45.5t-10 -54.5v-840q0 -59 40 -100q21 -18 45 -30q30 -10 55 -10h420v560h-70
q-32 0 -52 20q-18 21 -18 50q0 25 18.5 47.5t51.5 22.5h140q70 0 70 -70v-700z" />
    <glyph glyph-name="H" unicode="H" horiz-adv-x="1120" 
d="M840 840v493q0 28 21 49t49 21q27 0 48.5 -17.5t21.5 -52.5v-1260q0 -30 -22 -53q-25 -19 -49 -19q-26 0 -49 17q-20 17 -20 52v630h-560v-630q0 -33 -20 -53q-19 -17 -50 -17q-28 0 -49 17.5t-21 52.5v1260q0 28 21 52q21 18 49 18q27 0 48.5 -17.5t21.5 -52.5v-490h560
z" />
    <glyph glyph-name="I" unicode="I" horiz-adv-x="420" 
d="M280 70q0 -33 -20 -53q-19 -17 -50 -17q-28 0 -49 17.5t-21 52.5v1260q0 28 21 52q21 18 49 18q27 0 48.5 -17.5t21.5 -52.5v-1260z" />
    <glyph glyph-name="J" unicode="J" horiz-adv-x="840" 
d="M700 280q0 -115 -82 -197.5t-198 -82.5h-210q-32 0 -52 20q-18 21 -18 50q0 25 18.5 47.5t51.5 22.5h210q58 0 99 39t41 101v1050q0 28 21 52q21 18 49 18q27 0 48.5 -17.5t21.5 -52.5v-1050z" />
    <glyph glyph-name="K" unicode="K" horiz-adv-x="1120" 
d="M280 794l589 585q21 21 48 21q26 0 48.5 -21.5t22.5 -50.5q0 -18 -21 -47l-417 -416l430 -761l10 -37q0 -27 -23 -47q-21 -21 -51 -21q-34 0 -59 37l-410 731l-167 -164v-533q0 -33 -20 -53q-19 -17 -50 -17q-28 0 -49 17.5t-21 52.5v1260q0 27 21.5 47.5t48.5 20.5
t49 -16q21 -18 21 -52v-536z" />
    <glyph glyph-name="L" unicode="L" 
d="M770 0h-560q-70 0 -70 70v1260q0 28 21 52q21 18 49 18q27 0 48.5 -17.5t21.5 -52.5v-1190h490q29 0 49.5 -21.5t20.5 -48.5q0 -24 -17.5 -47t-52.5 -23z" />
    <glyph glyph-name="M" unicode="M" horiz-adv-x="1260" 
d="M1121 70q0 -33 -19 -53q-20 -17 -51 -17q-24 0 -47 17.5t-23 52.5v999l-289 -484q-26 -45 -61 -45q-30 0 -60 45l-291 484v-999q0 -33 -20 -53q-19 -17 -50 -17q-28 0 -49 17.5t-21 52.5v1253q0 40 20 60q18 21 44 21q19 0 34 -10t32 -35l361 -600l360 600q24 45 67 45
q24 0 45 -22q18 -23 18 -59v-1253z" />
    <glyph glyph-name="N" unicode="N" horiz-adv-x="1120" 
d="M979 77q0 -33 -19 -56l-21 -16q-11 -6 -25 -6q-42 0 -67 44l-567 1008v-981q0 -33 -20 -53q-19 -17 -50 -17q-28 0 -49 17.5t-21 52.5v1253q0 37 20 57q18 20 46 20q40 0 66 -44l567 -1007v981q0 28 21 52q21 18 49 18q26 0 49 -17q21 -18 21 -53v-1253z" />
    <glyph glyph-name="O" unicode="O" horiz-adv-x="1120" 
d="M980 280q0 -115 -82 -197.5t-198 -82.5h-280q-114 0 -197 81.5t-83 198.5v840q0 117 81.5 198.5t198.5 81.5h280q117 0 198.5 -82t81.5 -198v-840zM840 280v840q0 59 -39.5 99.5t-100.5 40.5h-280q-59 0 -100 -40q-20 -20 -30 -45.5t-10 -54.5v-840q0 -59 40 -100
q21 -18 45 -30q30 -10 55 -10h280q58 0 99 39t41 101z" />
    <glyph glyph-name="P" unicode="P" horiz-adv-x="1120" 
d="M280 700h420q58 0 99 39t41 101v280q0 59 -39.5 99.5t-100.5 40.5h-420v-560zM280 560v-490q0 -33 -20 -53q-19 -17 -50 -17q-28 0 -49 17.5t-21 52.5v1260q0 70 70 70h490q117 0 198.5 -82t81.5 -198v-280q0 -115 -82 -197.5t-198 -82.5h-420z" />
    <glyph glyph-name="Q" unicode="Q" horiz-adv-x="1260" 
d="M784 165l-193 130q-32 21 -32 56q0 20 21 49q21 23 49 23q15 0 40 -13l171 -115v825q0 59 -39.5 99.5t-100.5 40.5h-280q-59 0 -100 -40q-20 -20 -30 -45.5t-10 -54.5v-840q0 -59 40 -100q21 -18 45 -30q30 -10 55 -10h280q22 0 42 6t42 19zM972 207l117 -80
q32 -21 32 -56q0 -26 -19 -49q-22 -22 -51 -22q-18 0 -40 13l-107 71q-78 -84 -204 -84h-280q-114 0 -197 81.5t-83 198.5v840q0 117 81.5 198.5t198.5 81.5h280q117 0 198.5 -82t81.5 -198v-840v-19q0 -14 -2 -21z" />
    <glyph glyph-name="R" unicode="R" horiz-adv-x="1120" 
d="M280 700h420q58 0 99 39t41 101v280q0 59 -39.5 99.5t-100.5 40.5h-420v-560zM686 560l283 -452l5 -16l6 -23q0 -27 -22 -49q-23 -20 -51 -20q-16 0 -29 6t-27 26l-330 528h-241v-490q0 -33 -20 -53q-19 -17 -50 -17q-28 0 -49 17.5t-21 52.5v1260q0 70 70 70h490
q117 0 198.5 -82t81.5 -198v-280q0 -115 -82 -197.5t-198 -82.5h-14z" />
    <glyph glyph-name="S" unicode="S" horiz-adv-x="1120" 
d="M937 1282q14 -9 22 -26q8 -13 8 -30q0 -24 -21.5 -48.5t-48.5 -24.5q-22 0 -42 14q-135 96 -296 96q-101 0 -188 -44q-38 -21 -64 -57l-17 -34q-6 -15 -6 -39q0 -49 41 -78l519 -384q62 -43 102 -122.5t40 -161.5q0 -87 -36.5 -160t-113.5 -114q-65 -31 -146 -58
q-75 -18 -141 -18q-97 0 -187 31q-51 16 -88.5 36.5t-95.5 58.5q-32 21 -32 57q0 30 19.5 51.5t48.5 21.5q18 0 39 -12q75 -48 149 -75.5t150 -27.5q106 0 221 59q33 18 55 59q10 21 16 43t6 45q0 47 -21 98q-19 37 -63 74l-520 384q-43 30 -69.5 83.5t-26.5 110.5
q0 75 36 141t121 111q114 58 253 58q100 0 196.5 -30t180.5 -88z" />
    <glyph glyph-name="T" unicode="T" horiz-adv-x="1120" 
d="M490 1260h-280q-32 0 -52 19q-18 23 -18 51q0 24 17.5 47t52.5 23h700q29 0 49.5 -21.5t20.5 -48.5q0 -24 -17.5 -47t-52.5 -23h-280v-1190q0 -33 -20 -53q-19 -17 -50 -17q-28 0 -49 17.5t-21 52.5v1190z" />
    <glyph glyph-name="U" unicode="U" horiz-adv-x="1120" 
d="M980 280q0 -115 -82 -197.5t-198 -82.5h-280q-114 0 -197 81.5t-83 198.5v1050q0 28 21 52q21 18 49 18q27 0 48.5 -17.5t21.5 -52.5v-1050q0 -59 40 -100q21 -18 45 -30q30 -10 55 -10h280q58 0 99 39t41 101v1050q0 28 21 52q21 18 49 18q27 0 48.5 -17.5t21.5 -52.5
v-1050z" />
    <glyph glyph-name="V" unicode="V" horiz-adv-x="1260" 
d="M1116 1307l-420 -1245q-9 -26 -25 -44q-13 -9 -41 -17q-42 0 -66 61l-420 1245l-4 26q0 23 21 45t50 22l18 -1l19 -6q15 -9 28 -41l354 -1048l354 1048q9 21 27 34.5t37 13.5q27 0 51 -18q21 -20 21 -49z" />
    <glyph glyph-name="W" unicode="W" horiz-adv-x="1540" 
d="M1398 1314l-280 -1259q-3 -24 -22.5 -40t-44.5 -16q-48 0 -67 47l-214 590l-214 -590q-7 -16 -27 -35q-17 -12 -39 -12q-54 0 -69 56l-280 1259l-1 19q0 23 21 45t50 22q23 0 39 -12t29 -43l228 -1024l197 543q21 57 66 57q42 0 66 -57l197 -543l228 1024q12 55 66 55
q30 0 50 -20q23 -18 23 -49z" />
    <glyph glyph-name="X" unicode="X" horiz-adv-x="1260" 
d="M630 827l361 542q9 14 25 24l15 6l17 2q27 0 51 -21q22 -22 22 -50q0 -18 -12 -39l-394 -591l394 -591l9 -21l3 -19q0 -27 -21.5 -48.5t-52.5 -21.5q-33 0 -56 32l-361 542l-361 -542q-8 -13 -27 -25l-31 -7q-22 0 -49 21q-23 21 -23 50q0 18 12 39l394 591l-394 591
l-10 21l-2 19q0 27 21.5 48.5t52.5 21.5q33 0 56 -32z" />
    <glyph glyph-name="Y" unicode="Y" horiz-adv-x="1260" 
d="M567 701l-403 583q-18 21 -18 46t21 48t51 23q27 0 52 -25l367 -540l367 540q22 25 51 25q27 0 51 -21q22 -22 22 -50q0 -20 -18 -46l-403 -583v-631q0 -33 -20 -53q-19 -17 -50 -17q-28 0 -49 17.5t-21 52.5v631z" />
    <glyph glyph-name="Z" unicode="Z" horiz-adv-x="1260" 
d="M1116 1291l-767 -1151h708q33 0 51.5 -22t18.5 -48q0 -24 -17.5 -47t-52.5 -23h-840q-78 0 -78 56q0 21 19 53l767 1151h-708q-32 0 -52 19q-18 23 -18 51q0 24 17.5 47t52.5 23h840q78 0 78 -56q0 -21 -19 -53z" />
    <glyph glyph-name="bracketleft" unicode="[" horiz-adv-x="560" 
d="M358 -140h-148q-70 0 -70 70v1540q0 70 70 70h148q29 0 49.5 -21.5t20.5 -48.5q0 -25 -17.5 -47.5t-52.5 -22.5h-78v-1400h78q32 0 52 -21q18 -21 18 -49q0 -25 -17.5 -47.5t-52.5 -22.5z" />
    <glyph glyph-name="backslash" unicode="\" horiz-adv-x="1260" 
d="M1046 -185l4 -14l1 -14q0 -25 -22 -47l-11 -9l-15 -7l-26 -4q-22 0 -36 10q-16 9 -27 35l-770 1960l-4 14l-1 14q0 24 22 47l11 9l14 7l27 4q22 0 36 -11q15 -9 27 -34z" />
    <glyph glyph-name="bracketright" unicode="]" horiz-adv-x="560" 
d="M398 -70q0 -70 -70 -70h-149q-26 0 -52 21q-18 21 -18 49t17.5 49t52.5 21h79v1400h-79q-32 0 -52 19q-18 23 -18 51q0 24 17.5 47t52.5 23h149q70 0 70 -70v-1540z" />
    <glyph glyph-name="asciicircum" unicode="^" 
d="M827 1652l10 -18q6 -11 6 -26q0 -21 -21 -47q-23 -23 -52 -23t-55 30q-37 52 -98.5 82t-126.5 30q-62 0 -121.5 -27t-102.5 -85q-21 -30 -55 -30q-26 0 -49 23q-23 21 -23 49q0 21 15 42q60 78 151 123.5t185 45.5q98 0 184 -42t153 -127z" />
    <glyph glyph-name="underscore" unicode="_" horiz-adv-x="840" 
d="M840 -216h-840v140h840v-140z" />
    <glyph glyph-name="a" unicode="a" 
d="M700 280v560h-280q-59 0 -100 -40q-20 -20 -30 -45.5t-10 -54.5v-420q0 -59 40 -100q21 -18 45 -30q30 -10 55 -10h140q58 0 99 39t41 101zM769 92q-34 -39 -92.5 -65.5t-116.5 -26.5h-140q-113 0 -196.5 81t-83.5 199v420q0 116 82 198t198 82h350q70 0 70 -70v-629
q0 -42 27 -86q24 -39 70 -61q44 -18 44 -63q0 -31 -20 -51q-18 -21 -50 -21q-15 0 -29 7q-69 27 -113 86z" />
    <glyph glyph-name="b" unicode="b" 
d="M280 840v-700h280q58 0 99 39t41 101v420q0 59 -39.5 99.5t-100.5 40.5h-280zM280 980h280q114 0 197 -81.5t83 -198.5v-420q0 -115 -82 -197.5t-198 -82.5h-350q-70 0 -70 70v1260q0 28 21 52q21 18 49 18q27 0 48.5 -17.5t21.5 -52.5v-350z" />
    <glyph glyph-name="c" unicode="c" horiz-adv-x="840" 
d="M630 0h-210q-113 0 -196.5 81t-83.5 199v420q0 116 82 198t198 82h210q29 0 49.5 -21.5t20.5 -48.5q0 -24 -17.5 -47t-52.5 -23h-210q-59 0 -100 -40q-20 -20 -30 -45.5t-10 -54.5v-420q0 -59 40 -100q21 -18 45 -30q30 -10 55 -10h210q29 0 49.5 -21.5t20.5 -48.5
q0 -24 -17.5 -47t-52.5 -23z" />
    <glyph glyph-name="d" unicode="d" 
d="M700 840h-280q-59 0 -100 -40q-20 -20 -30 -45.5t-10 -54.5v-420q0 -59 40 -100q21 -18 45 -30q30 -10 55 -10h280v700zM700 980v350q0 28 21 52q21 18 49 18q27 0 48.5 -17.5t21.5 -52.5v-1260q0 -70 -70 -70h-350q-113 0 -196.5 81t-83.5 199v420q0 116 82 198t198 82
h280z" />
    <glyph glyph-name="e" unicode="e" 
d="M280 560h420v140q0 59 -39.5 99.5t-100.5 40.5h-140q-59 0 -100 -40q-20 -20 -30 -45.5t-10 -54.5v-140zM280 420v-140q0 -59 40 -100q21 -18 45 -30q30 -10 55 -10h350q29 0 49.5 -21.5t20.5 -48.5q0 -24 -17.5 -47t-52.5 -23h-350q-114 0 -197 81.5t-83 198.5v420
q0 113 81 196.5t199 83.5h140q114 0 197 -81.5t83 -198.5v-210q0 -70 -70 -70h-490z" />
    <glyph glyph-name="f" unicode="f" horiz-adv-x="770" 
d="M350 980h210q29 0 49.5 -21.5t20.5 -48.5q0 -24 -17.5 -47t-52.5 -23h-210v-770q0 -33 -20 -53q-19 -17 -50 -17q-28 0 -49 17.5t-21 52.5v770h-70q-32 0 -52 20q-18 21 -18 50q0 25 18.5 47.5t51.5 22.5h70v140q0 116 82 198t198 82h70q29 0 49.5 -21.5t20.5 -48.5
q0 -24 -17.5 -47t-52.5 -23h-70q-59 0 -100 -40q-20 -20 -30 -45.5t-10 -54.5v-140z" />
    <glyph glyph-name="g" unicode="g" 
d="M700 140v700h-280q-59 0 -100 -40q-20 -20 -30 -45.5t-10 -54.5v-420q0 -59 40 -100q21 -18 45 -30q30 -10 55 -10h280zM700 0h-280q-113 0 -196.5 81t-83.5 199v420q0 116 82 198t198 82h350q70 0 70 -70v-1050q0 -114 -81.5 -197t-198.5 -83h-280q-26 0 -52 21
q-18 21 -18 49t17.5 49t52.5 21h280q59 0 99.5 39.5t40.5 100.5v140z" />
    <glyph glyph-name="h" unicode="h" 
d="M280 980h280q114 0 197 -81.5t83 -198.5v-630q0 -33 -20 -53q-19 -17 -50 -17q-28 0 -49 17.5t-21 52.5v630q0 59 -39.5 99.5t-100.5 40.5h-280v-770q0 -33 -20 -53q-19 -17 -50 -17q-28 0 -49 17.5t-21 52.5v1260q0 28 21 52q21 18 49 18q27 0 48.5 -17.5t21.5 -52.5
v-350z" />
    <glyph glyph-name="i" unicode="i" horiz-adv-x="420" 
d="M280 70q0 -33 -20 -53q-19 -17 -50 -17q-28 0 -49 17.5t-21 52.5v840q0 28 21 52q21 18 49 18q27 0 48.5 -17.5t21.5 -52.5v-840zM140 1330q0 29 20.5 49.5t49.5 20.5q23 0 46.5 -20.5t23.5 -49.5q0 -27 -20.5 -48.5t-49.5 -21.5q-30 0 -51 21q-19 22 -19 49z" />
    <glyph glyph-name="j" unicode="j" horiz-adv-x="420" 
d="M280 -140q0 -114 -81.5 -197t-198.5 -83h-70q-26 0 -48 20.5t-22 49.5q0 24 17.5 47t52.5 23h70q59 0 99.5 39.5t40.5 100.5v1050q0 28 21 52q21 18 49 18q27 0 48.5 -17.5t21.5 -52.5v-1050zM140 1330q0 29 20.5 49.5t49.5 20.5q23 0 46.5 -20.5t23.5 -49.5
q0 -27 -20.5 -48.5t-49.5 -21.5q-30 0 -51 21q-19 22 -19 49z" />
    <glyph glyph-name="k" unicode="k" 
d="M280 630l448 336q20 15 43 15q27 0 48.5 -22t21.5 -50q0 -33 -29 -55l-351 -263l365 -479q15 -20 15 -43q0 -27 -21.5 -48.5t-50.5 -21.5q-33 0 -55 29l-365 479l-69 -52v-385q0 -33 -20 -53q-19 -17 -50 -17q-28 0 -49 17.5t-21 52.5v1260q0 28 21 52q21 18 49 18
q27 0 48.5 -17.5t21.5 -52.5v-700z" />
    <glyph glyph-name="l" unicode="l" horiz-adv-x="560" 
d="M350 0q-87 0 -148.5 63t-61.5 147v1120q0 28 21 52q21 18 49 18q27 0 48.5 -17.5t21.5 -52.5v-1120q0 -24 21 -48q22 -22 49 -22q29 0 49.5 -21.5t20.5 -48.5q0 -24 -17.5 -47t-52.5 -23z" />
    <glyph glyph-name="m" unicode="m" horiz-adv-x="1260" 
d="M560 840h-280v-770q0 -33 -20 -53q-19 -17 -50 -17q-28 0 -49 17.5t-21 52.5v840q0 70 70 70h630q114 0 197 -81.5t83 -198.5v-630q0 -33 -20 -53q-19 -17 -50 -17q-28 0 -49 17.5t-21 52.5v630q0 59 -39.5 99.5t-100.5 40.5h-140v-770q0 -33 -20 -53q-19 -17 -50 -17
q-28 0 -49 17.5t-21 52.5v770z" />
    <glyph glyph-name="n" unicode="n" 
d="M840 70q0 -33 -20 -53q-19 -17 -50 -17q-28 0 -49 17.5t-21 52.5v630q0 59 -39.5 99.5t-100.5 40.5h-280v-770q0 -33 -20 -53q-19 -17 -50 -17q-28 0 -49 17.5t-21 52.5v840q0 70 70 70h350q114 0 197 -81.5t83 -198.5v-630z" />
    <glyph glyph-name="o" unicode="o" 
d="M840 308q0 -125 -89.5 -216.5t-218.5 -91.5h-84q-125 0 -216.5 89t-91.5 219v364q0 123 90 215.5t218 92.5h84q125 0 216.5 -89.5t91.5 -218.5v-364zM700 308v364q0 69 -48.5 118.5t-119.5 49.5h-84q-69 0 -118.5 -49t-49.5 -119v-364q0 -69 49 -118.5t119 -49.5h84
q68 0 118 48t50 120z" />
    <glyph glyph-name="p" unicode="p" 
d="M280 140h280q58 0 99 39t41 101v420q0 59 -39.5 99.5t-100.5 40.5h-280v-700zM280 0v-350q0 -29 -21.5 -49.5t-48.5 -20.5q-24 0 -47 17.5t-23 52.5v1260q0 70 70 70h350q114 0 197 -81.5t83 -198.5v-420q0 -115 -82 -197.5t-198 -82.5h-280z" />
    <glyph glyph-name="q" unicode="q" 
d="M700 140v700h-280q-59 0 -100 -40q-20 -20 -30 -45.5t-10 -54.5v-420q0 -59 40 -100q21 -18 45 -30q30 -10 55 -10h280zM700 0h-280q-113 0 -196.5 81t-83.5 199v420q0 116 82 198t198 82h350q70 0 70 -70v-1260q0 -29 -21.5 -49.5t-48.5 -20.5q-24 0 -47 17.5t-23 52.5
v350z" />
    <glyph glyph-name="r" unicode="r" horiz-adv-x="840" 
d="M700 770q0 -33 -20 -53q-19 -17 -50 -17q-28 0 -49 17.5t-21 52.5q0 23 -20.5 46.5t-49.5 23.5h-210v-770q0 -33 -20 -53q-19 -17 -50 -17q-28 0 -49 17.5t-21 52.5v840q0 70 70 70h280q87 0 148.5 -60.5t61.5 -149.5z" />
    <glyph glyph-name="s" unicode="s" 
d="M797 903q-68 31 -149 52.5t-150 21.5q-158 0 -275 -80q-29 -17 -56 -67q-20 -43 -20 -87q0 -29 3.5 -47t16.5 -42q18 -42 56 -67l448 -294q23 -15 23 -48q0 -32 -23 -46q-92 -58 -196 -58q-115 0 -222 61l-17 6l-19 3q-27 0 -49 -22l-9 -11l-7 -15l-4 -26q0 -36 38 -59
q139 -77 290 -77q154 0 273 80q39 24 61.5 70t22.5 93q0 42 -21 86.5t-64 78.5l-447 294q-20 12 -20 39q0 24 20 41q80 54 196 54q113 0 238 -60l34 -8q22 0 44.5 21.5t22.5 50.5q0 36 -39 62z" />
    <glyph glyph-name="t" unicode="t" horiz-adv-x="840" 
d="M420 980h210q29 0 49.5 -21.5t20.5 -48.5q0 -24 -17.5 -47t-52.5 -23h-210v-770q0 -33 -20 -53q-19 -17 -50 -17q-28 0 -49 17.5t-21 52.5v770h-70q-32 0 -52 20q-18 21 -18 50q0 25 18.5 47.5t51.5 22.5h70v350q0 28 21 52q21 18 49 18q27 0 48.5 -17.5t21.5 -52.5v-350
z" />
    <glyph glyph-name="u" unicode="u" 
d="M840 70q0 -70 -70 -70h-350q-113 0 -196.5 81t-83.5 199v630q0 28 21 52q21 18 49 18q27 0 48.5 -17.5t21.5 -52.5v-630q0 -59 40 -100q21 -18 45 -30q30 -10 55 -10h280v770q0 28 21 52q21 18 49 18q27 0 48.5 -17.5t21.5 -52.5v-840z" />
    <glyph glyph-name="v" unicode="v" 
d="M836 888l-280 -840q-9 -26 -25 -44q-13 -9 -41 -17q-42 0 -66 61l-280 840l-4 25q0 23 21 45t50 22q23 0 36 -8q14 -6 29 -40l214 -642l214 642q9 21 27 34.5t38 13.5q23 0 50 -18q21 -20 21 -49z" />
    <glyph glyph-name="w" unicode="w" horiz-adv-x="1260" 
d="M1118 893l-209 -840q-9 -30 -27 -48t-41 -18q-45 0 -67 58l-144 385l-144 -385q-21 -58 -67 -58q-20 0 -41 17q-17 17 -27 49l-210 840l-2 21q0 27 22 46.5t50 19.5q23 0 39.5 -12t28.5 -41l155 -620l130 348q24 58 66 58t66 -58l130 -348l155 620q12 53 67 53
q31 0 51 -20q22 -19 22 -49z" />
    <glyph glyph-name="x" unicode="x" 
d="M575 490l254 -381l10 -21l2 -19q0 -27 -22 -49l-11 -9l-15 -7l-26 -4q-29 0 -56 31l-221 332l-221 -332q-21 -32 -58 -32q-22 0 -49 21q-23 21 -23 50q0 18 12 39l254 381l-254 381l-10 21l-2 19q0 27 21 48t53 21q29 0 56 -31l221 -332l221 332q21 32 58 32q21 0 50 -21
q22 -22 22 -50q0 -18 -12 -39z" />
    <glyph glyph-name="y" unicode="y" 
d="M400 7l-271 882l-4 24q0 27 22 49q22 19 50 19q47 0 66 -50l210 -687l216 687q17 50 66 50q31 0 51.5 -18.5t20.5 -49.5l-4 -24l-364 -1161q-15 -62 -69 -105t-124 -43h-70q-26 0 -52 21q-18 21 -18 49t17.5 49t52.5 21h69q22 0 36 14q15 11 24 34z" />
    <glyph glyph-name="z" unicode="z" 
d="M829 871l-487 -731h428q29 0 49.5 -21.5t20.5 -48.5q0 -24 -17.5 -47t-52.5 -23h-560q-78 0 -78 56q0 21 19 53l487 731h-428q-32 0 -52 20q-18 21 -18 50q0 25 18.5 47.5t51.5 22.5h560q78 0 78 -56q0 -21 -19 -53z" />
    <glyph glyph-name="braceleft" unicode="{" horiz-adv-x="700" 
d="M501 -140q-84 0 -147.5 59.5t-63.5 149.5v490q0 31 -20 51q-18 20 -50 20t-52 20q-18 21 -18 50q0 25 18.5 47.5t51.5 22.5q27 0 48.5 19.5t21.5 49.5v491q0 74 75 148q70 62 135 62q33 0 51.5 -22t18.5 -48q0 -24 -17.5 -47t-52.5 -23q-14 0 -44 -21q-26 -23 -26 -49
v-491q0 -80 -53 -139q21 -25 37 -64t16 -77v-490q0 -30 19 -50q22 -19 49 -19q30 0 51 -21t21 -50q0 -27 -17.5 -48t-51.5 -21z" />
    <glyph glyph-name="bar" unicode="|" horiz-adv-x="416" 
d="M280 70q0 -33 -20 -53q-19 -17 -50 -17q-28 0 -49 17.5t-21 52.5v1260q0 28 21 52q21 18 49 18q27 0 48.5 -17.5t21.5 -52.5v-1260z" />
    <glyph glyph-name="braceright" unicode="}" horiz-adv-x="700" 
d="M491 630q-24 0 -48 -21q-22 -22 -22 -50v-490q0 -86 -63 -147.5t-148 -61.5q-33 0 -50 20q-19 19 -19 49q0 31 19 51q15 20 53 20q29 0 48.5 19.5t19.5 49.5v490q0 43 13.5 76t40.5 65q-54 60 -54 139v491q0 21 -23 42.5t-47 27.5q-32 0 -51 19q-19 25 -19 51t19 49
q15 21 51 21q64 0 133 -62q77 -68 77 -148v-491q0 -28 20 -49q22 -20 50 -20q29 0 49.5 -21.5t20.5 -48.5q0 -25 -17.5 -47.5t-52.5 -22.5z" />
    <glyph glyph-name="asciitilde" unicode="~" horiz-adv-x="1120" 
d="M959 441q-42 -42 -104 -70q-60 -24 -120 -24l-45 4q-101 12 -179 90q-58 52 -126 52q-73 0 -126 -52q-21 -21 -49 -21q-24 0 -48 21q-22 22 -22 50q0 24 21 48q45 45 105.5 69.5t118.5 24.5q129 0 224 -94q42 -39 101 -49l25 -1q76 0 126 50q22 22 49 22q20 0 45 -21
t25 -50q0 -20 -21 -49z" />
    <glyph glyph-name="quotedblbase" unicode="&#x201e;" horiz-adv-x="700" 
d="M557 53l-70 -278q-3 -20 -22.5 -36t-43.5 -16t-50 18q-21 18 -21 49l3 18l70 279q3 23 22.5 37.5t43.5 14.5q27 0 49 -19t22 -49zM277 53l-70 -278q-3 -20 -22.5 -36t-43.5 -16t-50 18q-21 18 -21 49l3 18l70 279q3 23 22.5 37.5t43.5 14.5q27 0 49 -19t22 -49z" />
    <glyph glyph-name="ellipsis" unicode="&#x2026;" horiz-adv-x="1260" 
d="M140 70q0 29 20.5 49.5t49.5 20.5q23 0 46.5 -20.5t23.5 -49.5q0 -25 -20.5 -47.5t-49.5 -22.5q-30 0 -51 21q-19 22 -19 49zM524 70q0 29 20.5 49.5t49.5 20.5q23 0 46.5 -20.5t23.5 -49.5q0 -25 -20.5 -47.5t-49.5 -22.5q-30 0 -51 21q-19 22 -19 49zM896 70
q0 29 20.5 49.5t49.5 20.5q23 0 46.5 -20.5t23.5 -49.5q0 -25 -20.5 -47.5t-49.5 -22.5q-30 0 -51 21q-19 22 -19 49z" />
    <glyph glyph-name="circumflex" unicode="&#x2c6;" horiz-adv-x="1400" 
d="M1258 517q0 -88 -76 -163t-171 -75q-32 0 -67 9q-17 5 -31 13q-10 3 -16 8l-18 12l-437 291q-35 19 -61 19q-45 0 -76 -32q-25 -28 -25 -75q0 -18 6 -36t21 -33q14 -17 60 -32q54 -12 54 -67q0 -28 -18.5 -50.5t-51.5 -22.5l-18 3q-81 18 -126.5 67t-66.5 155l-1 25
q0 91 71 166t172 75q37 0 67 -10q39 -8 72 -35l437 -291q29 -18 58 -18q42 0 72 30t30 67q0 43 -15.5 69t-54.5 37q-38 9 -54 29q-14 20 -14 42q0 28 20 49q18 23 48 23l16 -2q104 -21 155 -93q17 -25 29 -68l7 -39z" />
    <glyph glyph-name="perthousand" unicode="&#x2030;" horiz-adv-x="2940" 
d="M1960 322q0 -150 -101 -242q-88 -80 -221 -80q-129 0 -221 80q-101 87 -101 242q0 150 101 241q92 81 221 81t221 -80q101 -87 101 -242zM1529 1291l-840 -1260q-8 -13 -27 -25l-31 -7q-22 0 -49 21q-23 21 -23 50q0 18 12 39l840 1260q9 14 25 24l15 6l17 2q27 0 51 -21
q22 -22 22 -50q0 -18 -12 -39zM784 1078q0 -150 -101 -242q-88 -80 -221 -80q-129 0 -221 80q-101 87 -101 242q0 150 101 241q92 81 221 81t221 -80q101 -87 101 -242zM1820 322q0 81 -55 131.5t-127 50.5q-69 0 -125 -45q-57 -50 -57 -137q0 -84 56 -136q52 -46 126 -46
q70 0 124 45q58 50 58 137zM644 1078q0 81 -53 133q-55 49 -129 49q-69 0 -125 -45q-57 -50 -57 -137q0 -84 56 -136q52 -46 126 -46q72 0 127 47.5t55 134.5zM2800 322q0 -150 -101 -242q-88 -80 -221 -80q-129 0 -221 80q-101 87 -101 242q0 150 101 241q92 81 221 81
t221 -80q101 -87 101 -242zM2660 322q0 81 -55 131.5t-127 50.5q-69 0 -125 -45q-57 -50 -57 -137q0 -84 56 -136q52 -46 126 -46q70 0 124 45q58 50 58 137z" />
    <glyph glyph-name="bullet" unicode="&#x2022;" 
d="M490 588l231 231q21 21 48 21q26 0 48.5 -21.5t22.5 -49.5q0 -24 -21 -48l-231 -231l231 -231q21 -21 21 -48q0 -26 -22 -48.5t-49 -22.5q-24 0 -48 21l-231 231l-231 -231q-21 -21 -48 -21q-25 0 -49 21q-22 22 -22 50q0 24 21 48l231 231l-231 231q-21 21 -21 48
q0 25 21 48t50 23q24 0 48 -21z" />
    <glyph glyph-name="nonbreakingspace" unicode="&#xa0;" horiz-adv-x="700" 
 />
    <glyph glyph-name="section" unicode="&#xa7;" 
d="M524 395q75 21 126 87.5t51 147.5q0 83 -57 158l-183 217q-78 -21 -129.5 -87.5t-51.5 -148.5l3 -44q1 -8 4 -19.5t7 -21.5q13 -34 45 -74zM364 1120l-98 117q-49 55 -49 122q0 70 51.5 125.5t129.5 55.5h92q136 0 253 -84q30 -21 30 -56q0 -20 -21 -49q-23 -23 -51 -23
q-22 0 -42 16q-77 56 -169 56h-92q-15 0 -28 -13q-9 -11 -12 -29q0 -8 12 -28l380 -452q46 -52 69 -116q22 -75 22 -132q0 -109 -57.5 -203t-161.5 -146l105 -123q23 -25 33 -56l7 -29l3 -32q0 -70 -51.5 -125.5t-129.5 -55.5h-99q-132 0 -251 84q-29 21 -29 56
q0 27 19.5 48.5t49.5 21.5q22 0 42 -14q82 -56 169 -56h99q17 0 35 18l6 24q0 15 -10 25l-388 454q-38 47 -70 117l-16 66q-6 33 -6 65q0 115 58.5 207.5t165.5 143.5z" />
    <glyph glyph-name="dieresis" unicode="&#xa8;" 
d="M280 840h351q29 0 49.5 -21.5t20.5 -48.5q0 -25 -17.5 -47.5t-52.5 -22.5h-351v-560h491q29 0 49.5 -21.5t20.5 -48.5q0 -25 -17.5 -47.5t-52.5 -22.5h-561q-70 0 -70 66v1264q0 70 70 70h561q29 0 49.5 -21.5t20.5 -48.5q0 -25 -17.5 -47.5t-52.5 -22.5h-491v-420z
M210 1680q0 23 21 48t52 25q23 0 48 -21t25 -52q0 -27 -21 -51q-8 -8 -21 -15t-31 -7q-27 0 -51 21q-8 9 -15 21.5t-7 30.5zM630 1680q0 29 20.5 49.5t49.5 20.5q23 0 46.5 -20.5t23.5 -49.5q0 -27 -20.5 -48.5t-49.5 -21.5q-30 0 -51 21q-19 22 -19 49z" />
    <glyph glyph-name="dieresis" unicode="&#x401;" 
d="M280 840h351q29 0 49.5 -21.5t20.5 -48.5q0 -25 -17.5 -47.5t-52.5 -22.5h-351v-560h491q29 0 49.5 -21.5t20.5 -48.5q0 -25 -17.5 -47.5t-52.5 -22.5h-561q-70 0 -70 66v1264q0 70 70 70h561q29 0 49.5 -21.5t20.5 -48.5q0 -25 -17.5 -47.5t-52.5 -22.5h-491v-420z
M210 1680q0 23 21 48t52 25q23 0 48 -21t25 -52q0 -27 -21 -51q-8 -8 -21 -15t-31 -7q-27 0 -51 21q-8 9 -15 21.5t-7 30.5zM630 1680q0 29 20.5 49.5t49.5 20.5q23 0 46.5 -20.5t23.5 -49.5q0 -27 -20.5 -48.5t-49.5 -21.5q-30 0 -51 21q-19 22 -19 49z" />
    <glyph glyph-name="ordfeminine" unicode="&#xaa;" horiz-adv-x="1120" 
d="M986 70q0 -27 -18.5 -48.5t-51.5 -21.5h-490q-114 0 -197 81.5t-83 198.5v840q0 117 81.5 198.5t198.5 81.5h490q30 0 53 -21q17 -23 17 -49q0 -28 -19 -51q-19 -19 -51 -19h-490q-59 0 -99.5 -40.5t-40.5 -99.5v-280h350q33 0 51.5 -22t18.5 -48q0 -27 -18.5 -48.5
t-51.5 -21.5h-350v-420q0 -59 40 -100q21 -19 45 -30q27 -10 55 -10h490q33 0 51.5 -22t18.5 -48z" />
    <glyph glyph-name="ordfeminine" unicode="&#x404;" horiz-adv-x="1120" 
d="M986 70q0 -27 -18.5 -48.5t-51.5 -21.5h-490q-114 0 -197 81.5t-83 198.5v840q0 117 81.5 198.5t198.5 81.5h490q30 0 53 -21q17 -23 17 -49q0 -28 -19 -51q-19 -19 -51 -19h-490q-59 0 -99.5 -40.5t-40.5 -99.5v-280h350q33 0 51.5 -22t18.5 -48q0 -27 -18.5 -48.5
t-51.5 -21.5h-350v-420q0 -59 40 -100q21 -19 45 -30q27 -10 55 -10h490q33 0 51.5 -22t18.5 -48z" />
    <glyph glyph-name="guillemotleft" unicode="&#xab;" horiz-adv-x="1120" 
d="M554 242q16 -19 16 -43q0 -27 -21.5 -48.5t-51.5 -21.5q-33 0 -55 29l-273 290q-14 19 -14 42q0 22 14 42l273 288q21 30 55 30q23 0 50 -21q23 -23 23 -51q0 -22 -16 -42l-240 -246zM932 242q16 -19 16 -43q0 -27 -21.5 -48.5t-51.5 -21.5q-33 0 -55 29l-273 290
q-14 19 -14 42q0 22 14 42l273 288q21 30 55 30q23 0 50 -21q23 -23 23 -51q0 -22 -16 -42l-240 -246z" />
    <glyph glyph-name="logicalnot" unicode="&#xac;" horiz-adv-x="1120" 
d="M981 440q0 -34 -19 -54q-22 -16 -51 -16q-24 0 -47 17.5t-23 52.5v190h-631q-32 0 -52 20q-18 21 -18 50q0 25 18.5 47.5t51.5 22.5h701q70 0 70 -70v-260z" />
    <glyph glyph-name="macron" unicode="&#xaf;" horiz-adv-x="420" 
d="M280 70q0 -33 -20 -53q-19 -17 -50 -17q-28 0 -49 17.5t-21 52.5v1260q0 28 21 52q21 18 49 18q27 0 48.5 -17.5t21.5 -52.5v-1260zM-70 1610q0 23 21 48t52 25q23 0 48 -21t25 -52q0 -27 -21 -51q-8 -8 -21 -15t-31 -7q-27 0 -51 21q-9 9 -15.5 22.5t-6.5 29.5z
M350 1610q0 29 20.5 49.5t49.5 20.5q23 0 46.5 -20.5t23.5 -49.5q0 -27 -20.5 -48.5t-49.5 -21.5q-30 0 -51 21q-19 22 -19 49z" />
    <glyph glyph-name="macron" unicode="&#x407;" horiz-adv-x="420" 
d="M280 70q0 -33 -20 -53q-19 -17 -50 -17q-28 0 -49 17.5t-21 52.5v1260q0 28 21 52q21 18 49 18q27 0 48.5 -17.5t21.5 -52.5v-1260zM-70 1610q0 23 21 48t52 25q23 0 48 -21t25 -52q0 -27 -21 -51q-8 -8 -21 -15t-31 -7q-27 0 -51 21q-9 9 -15.5 22.5t-6.5 29.5z
M350 1610q0 29 20.5 49.5t49.5 20.5q23 0 46.5 -20.5t23.5 -49.5q0 -27 -20.5 -48.5t-49.5 -21.5q-30 0 -51 21q-19 22 -19 49z" />
    <glyph glyph-name="plusminus" unicode="&#xb1;" 
d="M770 140h-560q-32 0 -52 20q-18 21 -18 50q0 25 18.5 47.5t51.5 22.5h560q29 0 49.5 -21.5t20.5 -48.5q0 -24 -17.5 -47t-52.5 -23zM560 770v-210q0 -33 -20 -53q-19 -17 -50 -17q-28 0 -49 17.5t-21 52.5v210h-210q-32 0 -52 20q-18 21 -18 50q0 25 18.5 47.5t51.5 22.5
h210v210q0 28 21 52q21 18 49 18q27 0 48.5 -17.5t21.5 -52.5v-210h210q29 0 49.5 -21.5t20.5 -48.5q0 -24 -17.5 -47t-52.5 -23h-210z" />
    <glyph glyph-name="twosuperior" unicode="&#xb2;" horiz-adv-x="420" 
d="M280 70q0 -33 -20 -53q-19 -17 -50 -17q-28 0 -49 17.5t-21 52.5v1260q0 28 21 52q21 18 49 18q27 0 48.5 -17.5t21.5 -52.5v-1260z" />
    <glyph glyph-name="twosuperior" unicode="&#x406;" horiz-adv-x="420" 
d="M280 70q0 -33 -20 -53q-19 -17 -50 -17q-28 0 -49 17.5t-21 52.5v1260q0 28 21 52q21 18 49 18q27 0 48.5 -17.5t21.5 -52.5v-1260z" />
    <glyph glyph-name="threesuperior" unicode="&#xb3;" horiz-adv-x="420" 
d="M280 70q0 -33 -20 -53q-19 -17 -50 -17q-28 0 -49 17.5t-21 52.5v840q0 28 21 52q21 18 49 18q27 0 48.5 -17.5t21.5 -52.5v-840zM140 1330q0 29 20.5 49.5t49.5 20.5q23 0 46.5 -20.5t23.5 -49.5q0 -27 -20.5 -48.5t-49.5 -21.5q-30 0 -51 21q-19 22 -19 49z" />
    <glyph glyph-name="threesuperior" unicode="&#x456;" horiz-adv-x="420" 
d="M280 70q0 -33 -20 -53q-19 -17 -50 -17q-28 0 -49 17.5t-21 52.5v840q0 28 21 52q21 18 49 18q27 0 48.5 -17.5t21.5 -52.5v-840zM140 1330q0 29 20.5 49.5t49.5 20.5q23 0 46.5 -20.5t23.5 -49.5q0 -27 -20.5 -48.5t-49.5 -21.5q-30 0 -51 21q-19 22 -19 49z" />
    <glyph glyph-name="paragraph" unicode="&#xb6;" horiz-adv-x="1260" 
d="M1050 1260h-97v-1610q0 -33 -19 -52q-21 -18 -51 -18q-21 0 -45.5 17.5t-24.5 52.5v1610h-172v-1610q0 -33 -19 -52q-21 -18 -51 -18q-21 0 -45.5 17.5t-24.5 52.5v892q-153 21 -257 143t-104 282q0 183 105 305q114 128 326 128h479q33 0 51.5 -22t18.5 -48
q0 -24 -17.5 -47t-52.5 -23z" />
    <glyph glyph-name="periodcentered" unicode="&#xb7;" horiz-adv-x="420" 
d="M140 560q0 29 20.5 49.5t49.5 20.5q23 0 46.5 -20.5t23.5 -49.5q0 -25 -20.5 -47.5t-49.5 -22.5q-30 0 -51 21q-19 22 -19 49z" />
    <glyph glyph-name="periodcentered" unicode="&#x2219;" horiz-adv-x="420" 
d="M140 560q0 29 20.5 49.5t49.5 20.5q23 0 46.5 -20.5t23.5 -49.5q0 -25 -20.5 -47.5t-49.5 -22.5q-30 0 -51 21q-19 22 -19 49z" />
    <glyph glyph-name="cedilla" unicode="&#xb8;" 
d="M280 560h420v140q0 59 -39.5 99.5t-100.5 40.5h-140q-59 0 -100 -40q-20 -20 -30 -45.5t-10 -54.5v-140zM280 420v-140q0 -59 40 -100q21 -18 45 -30q30 -10 55 -10h350q29 0 49.5 -21.5t20.5 -48.5q0 -24 -17.5 -47t-52.5 -23h-350q-114 0 -197 81.5t-83 198.5v420
q0 113 81 196.5t199 83.5h140q114 0 197 -81.5t83 -198.5v-210q0 -70 -70 -70h-490zM210 1330q0 23 21 48t52 25q23 0 48 -21t25 -52q0 -27 -21 -51q-8 -8 -21 -15t-31 -7q-27 0 -51 21q-8 9 -15 21.5t-7 30.5zM630 1330q0 29 20.5 49.5t49.5 20.5q23 0 46.5 -20.5
t23.5 -49.5q0 -27 -20.5 -48.5t-49.5 -21.5q-30 0 -51 21q-19 22 -19 49z" />
    <glyph glyph-name="cedilla" unicode="&#x451;" 
d="M280 560h420v140q0 59 -39.5 99.5t-100.5 40.5h-140q-59 0 -100 -40q-20 -20 -30 -45.5t-10 -54.5v-140zM280 420v-140q0 -59 40 -100q21 -18 45 -30q30 -10 55 -10h350q29 0 49.5 -21.5t20.5 -48.5q0 -24 -17.5 -47t-52.5 -23h-350q-114 0 -197 81.5t-83 198.5v420
q0 113 81 196.5t199 83.5h140q114 0 197 -81.5t83 -198.5v-210q0 -70 -70 -70h-490zM210 1330q0 23 21 48t52 25q23 0 48 -21t25 -52q0 -27 -21 -51q-8 -8 -21 -15t-31 -7q-27 0 -51 21q-8 9 -15 21.5t-7 30.5zM630 1330q0 29 20.5 49.5t49.5 20.5q23 0 46.5 -20.5
t23.5 -49.5q0 -27 -20.5 -48.5t-49.5 -21.5q-30 0 -51 21q-19 22 -19 49z" />
    <glyph glyph-name="onesuperior" unicode="&#xb9;" horiz-adv-x="1680" 
d="M1540 910q0 -92 -66 -157q-61 -53 -144 -53q-85 0 -144 52q-66 59 -66 158v280q0 92 66 157q60 51 144 51t144 -51q66 -57 66 -157v-280zM980 70q0 -27 -21 -53q-21 -18 -48 -18q-42 0 -63 37l-568 1024v-990q0 -33 -20 -53q-19 -17 -50 -17q-28 0 -49 17.5t-21 52.5
v1260q0 28 21 52q21 18 50 18q39 0 61 -37l568 -1023v990q0 28 21 52q21 18 49 18q27 0 48.5 -17.5t21.5 -52.5v-1260zM1400 910v280q0 29 -21 52q-22 16 -49 16q-25 0 -47.5 -17.5t-22.5 -50.5v-280q0 -33 19 -53q20 -17 51 -17q24 0 47 17.5t23 52.5z" />
    <glyph glyph-name="onesuperior" unicode="&#x2116;" horiz-adv-x="1680" 
d="M1540 910q0 -92 -66 -157q-61 -53 -144 -53q-85 0 -144 52q-66 59 -66 158v280q0 92 66 157q60 51 144 51t144 -51q66 -57 66 -157v-280zM980 70q0 -27 -21 -53q-21 -18 -48 -18q-42 0 -63 37l-568 1024v-990q0 -33 -20 -53q-19 -17 -50 -17q-28 0 -49 17.5t-21 52.5
v1260q0 28 21 52q21 18 50 18q39 0 61 -37l568 -1023v990q0 28 21 52q21 18 49 18q27 0 48.5 -17.5t21.5 -52.5v-1260zM1400 910v280q0 29 -21 52q-22 16 -49 16q-25 0 -47.5 -17.5t-22.5 -50.5v-280q0 -33 19 -53q20 -17 51 -17q24 0 47 17.5t23 52.5z" />
    <glyph glyph-name="ordmasculine" unicode="&#xba;" 
d="M840 70q0 -23 -18 -50q-20 -20 -52 -20h-350q-114 0 -197 81.5t-83 198.5v420q0 113 81 196.5t199 83.5h350q33 0 51.5 -22t18.5 -48q0 -23 -18 -50q-20 -20 -52 -20h-350q-59 0 -100 -40q-20 -20 -30 -45.5t-10 -54.5v-140h210q33 0 51.5 -22t18.5 -48q0 -23 -18 -50
q-20 -20 -52 -20h-210v-140q0 -59 40 -100q21 -18 45 -30q30 -10 55 -10h350q33 0 51.5 -22t18.5 -48z" />
    <glyph glyph-name="ordmasculine" unicode="&#x454;" 
d="M840 70q0 -23 -18 -50q-20 -20 -52 -20h-350q-114 0 -197 81.5t-83 198.5v420q0 113 81 196.5t199 83.5h350q33 0 51.5 -22t18.5 -48q0 -23 -18 -50q-20 -20 -52 -20h-350q-59 0 -100 -40q-20 -20 -30 -45.5t-10 -54.5v-140h210q33 0 51.5 -22t18.5 -48q0 -23 -18 -50
q-20 -20 -52 -20h-210v-140q0 -59 40 -100q21 -18 45 -30q30 -10 55 -10h350q33 0 51.5 -22t18.5 -48z" />
    <glyph glyph-name="guillemotright" unicode="&#xbb;" horiz-adv-x="1120" 
d="M937 448l-273 -290q-21 -29 -55 -29q-27 0 -49 22q-24 21 -24 49q0 23 16 42l240 248l-240 246l-9 15q-5 12 -7 29q0 26 22 48t51 22t55 -30l273 -288q12 -18 15 -42q0 -21 -15 -42zM559 448l-273 -290q-21 -29 -55 -29q-27 0 -49 22q-24 21 -24 49q0 23 16 42l240 248
l-240 246l-9 15q-5 12 -7 29q0 26 22 48t51 22t55 -30l273 -288q12 -18 15 -42q0 -21 -15 -42z" />
    <glyph glyph-name="questiondown" unicode="&#xbf;" horiz-adv-x="420" 
d="M280 70q0 -33 -20 -53q-19 -17 -50 -17q-28 0 -49 17.5t-21 52.5v840q0 28 21 52q21 18 49 18q27 0 48.5 -17.5t21.5 -52.5v-840zM-70 1330q0 25 20.5 47.5t49.5 22.5q23 0 46.5 -20.5t23.5 -49.5q0 -27 -20.5 -48.5t-49.5 -21.5q-26 0 -48 21t-22 49zM350 1330
q0 29 20.5 49.5t49.5 20.5q23 0 46.5 -20.5t23.5 -49.5q0 -27 -20.5 -48.5t-49.5 -21.5q-30 0 -51 21q-19 22 -19 49z" />
    <glyph glyph-name="questiondown" unicode="&#x457;" horiz-adv-x="420" 
d="M280 70q0 -33 -20 -53q-19 -17 -50 -17q-28 0 -49 17.5t-21 52.5v840q0 28 21 52q21 18 49 18q27 0 48.5 -17.5t21.5 -52.5v-840zM-70 1330q0 25 20.5 47.5t49.5 22.5q23 0 46.5 -20.5t23.5 -49.5q0 -27 -20.5 -48.5t-49.5 -21.5q-26 0 -48 21t-22 49zM350 1330
q0 29 20.5 49.5t49.5 20.5q23 0 46.5 -20.5t23.5 -49.5q0 -27 -20.5 -48.5t-49.5 -21.5q-30 0 -51 21q-19 22 -19 49z" />
    <glyph glyph-name="Agrave" unicode="&#xc0;" horiz-adv-x="1260" 
d="M385 351l-101 -302q-8 -22 -26 -36q-14 -9 -38 -12q-28 0 -49 20q-23 18 -23 48l5 25l421 1260q21 60 66 60t66 -60l419 -1260l5 -25q0 -27 -23 -49q-22 -19 -49 -19q-14 0 -31.5 7t-32.5 41l-101 302h-508zM846 494l-206 617l-207 -617h413z" />
    <glyph glyph-name="Agrave" unicode="&#x410;" horiz-adv-x="1260" 
d="M385 351l-101 -302q-8 -22 -26 -36q-14 -9 -38 -12q-28 0 -49 20q-23 18 -23 48l5 25l421 1260q21 60 66 60t66 -60l419 -1260l5 -25q0 -27 -23 -49q-22 -19 -49 -19q-14 0 -31.5 7t-32.5 41l-101 302h-508zM846 494l-206 617l-207 -617h413z" />
    <glyph glyph-name="Aacute" unicode="&#xc1;" horiz-adv-x="1120" 
d="M280 700v-560h420q58 0 99 39t41 101v280q0 59 -39.5 99.5t-100.5 40.5h-420zM280 840h420q114 0 197 -81.5t83 -198.5v-280q0 -115 -82 -197.5t-198 -82.5h-490q-70 0 -70 70v1260q0 70 70 70h560q29 0 49.5 -21.5t20.5 -48.5q0 -24 -17.5 -47t-52.5 -23h-490v-420z" />
    <glyph glyph-name="Aacute" unicode="&#x411;" horiz-adv-x="1120" 
d="M280 700v-560h420q58 0 99 39t41 101v280q0 59 -39.5 99.5t-100.5 40.5h-420zM280 840h420q114 0 197 -81.5t83 -198.5v-280q0 -115 -82 -197.5t-198 -82.5h-490q-70 0 -70 70v1260q0 70 70 70h560q29 0 49.5 -21.5t20.5 -48.5q0 -24 -17.5 -47t-52.5 -23h-490v-420z" />
    <glyph glyph-name="Acircumflex" unicode="&#xc2;" horiz-adv-x="1120" 
d="M846 799q60 -36 97 -101t37 -138v-280q0 -115 -82 -197.5t-198 -82.5h-490q-70 0 -70 70v1260q0 70 70 70h420q117 0 198.5 -82t81.5 -198v-140q0 -48 -15 -93t-49 -88zM280 701v-561h420q58 0 99 39t41 101v280q0 59 -39.5 99.5t-100.5 40.5zM630 840q58 0 99 39t41 101
v140q0 59 -39.5 99.5t-100.5 40.5h-350v-421z" />
    <glyph glyph-name="Acircumflex" unicode="&#x412;" horiz-adv-x="1120" 
d="M846 799q60 -36 97 -101t37 -138v-280q0 -115 -82 -197.5t-198 -82.5h-490q-70 0 -70 70v1260q0 70 70 70h420q117 0 198.5 -82t81.5 -198v-140q0 -48 -15 -93t-49 -88zM280 701v-561h420q58 0 99 39t41 101v280q0 59 -39.5 99.5t-100.5 40.5zM630 840q58 0 99 39t41 101
v140q0 59 -39.5 99.5t-100.5 40.5h-350v-421z" />
    <glyph glyph-name="Atilde" unicode="&#xc3;" 
d="M770 1260h-490v-1190q0 -33 -20 -53q-19 -17 -50 -17q-28 0 -49 17.5t-21 52.5v1260q0 70 70 70h560q29 0 49.5 -21.5t20.5 -48.5q0 -24 -17.5 -47t-52.5 -23z" />
    <glyph glyph-name="Atilde" unicode="&#x413;" 
d="M770 1260h-490v-1190q0 -33 -20 -53q-19 -17 -50 -17q-28 0 -49 17.5t-21 52.5v1260q0 70 70 70h560q29 0 49.5 -21.5t20.5 -48.5q0 -24 -17.5 -47t-52.5 -23z" />
    <glyph glyph-name="Adieresis" unicode="&#xc4;" horiz-adv-x="1260" 
d="M287 140l133 1198q0 62 70 62h420q70 0 70 -70v-1190h70q70 0 70 -70v-140q0 -29 -21.5 -49.5t-48.5 -20.5q-24 0 -47 17.5t-23 52.5v70h-700v-70q0 -29 -21.5 -49.5t-48.5 -20.5q-24 0 -47 17.5t-23 52.5v140q0 70 70 70h77zM840 140v1120h-287l-126 -1120h413z" />
    <glyph glyph-name="Adieresis" unicode="&#x414;" horiz-adv-x="1260" 
d="M287 140l133 1198q0 62 70 62h420q70 0 70 -70v-1190h70q70 0 70 -70v-140q0 -29 -21.5 -49.5t-48.5 -20.5q-24 0 -47 17.5t-23 52.5v70h-700v-70q0 -29 -21.5 -49.5t-48.5 -20.5q-24 0 -47 17.5t-23 52.5v140q0 70 70 70h77zM840 140v1120h-287l-126 -1120h413z" />
    <glyph glyph-name="Aring" unicode="&#xc5;" 
d="M280 840h351q29 0 49.5 -21.5t20.5 -48.5q0 -25 -17.5 -47.5t-52.5 -22.5h-351v-560h491q29 0 49.5 -21.5t20.5 -48.5q0 -25 -17.5 -47.5t-52.5 -22.5h-561q-70 0 -70 66v1264q0 70 70 70h561q29 0 49.5 -21.5t20.5 -48.5q0 -25 -17.5 -47.5t-52.5 -22.5h-491v-420z" />
    <glyph glyph-name="Aring" unicode="&#x415;" 
d="M280 840h351q29 0 49.5 -21.5t20.5 -48.5q0 -25 -17.5 -47.5t-52.5 -22.5h-351v-560h491q29 0 49.5 -21.5t20.5 -48.5q0 -25 -17.5 -47.5t-52.5 -22.5h-561q-70 0 -70 66v1264q0 70 70 70h561q29 0 49.5 -21.5t20.5 -48.5q0 -25 -17.5 -47.5t-52.5 -22.5h-491v-420z" />
    <glyph glyph-name="AE" unicode="&#xc6;" horiz-adv-x="1400" 
d="M770 853l362 517q8 12 24 21.5t32 9.5q27 0 51 -21q22 -22 22 -50q0 -21 -14 -41l-366 -523l370 -662q10 -20 10 -37q0 -24 -21.5 -45.5t-52.5 -21.5q-32 0 -59 36l-358 640v-606q0 -33 -20 -53q-19 -17 -50 -17q-28 0 -49 17.5t-21 52.5v606l-358 -640q-9 -12 -26 -26
l-17 -7l-18 -3q-29 0 -50.5 19.5t-21.5 49.5q0 11 9 35l371 662l-366 523q-8 10 -14 42q0 27 21.5 48.5t50.5 21.5t56 -31l363 -517v477q0 28 21 52q21 18 49 18q27 0 48.5 -17.5t21.5 -52.5v-477z" />
    <glyph glyph-name="AE" unicode="&#x416;" horiz-adv-x="1400" 
d="M770 853l362 517q8 12 24 21.5t32 9.5q27 0 51 -21q22 -22 22 -50q0 -21 -14 -41l-366 -523l370 -662q10 -20 10 -37q0 -24 -21.5 -45.5t-52.5 -21.5q-32 0 -59 36l-358 640v-606q0 -33 -20 -53q-19 -17 -50 -17q-28 0 -49 17.5t-21 52.5v606l-358 -640q-9 -12 -26 -26
l-17 -7l-18 -3q-29 0 -50.5 19.5t-21.5 49.5q0 11 9 35l371 662l-366 523q-8 10 -14 42q0 27 21.5 48.5t50.5 21.5t56 -31l363 -517v477q0 28 21 52q21 18 49 18q27 0 48.5 -17.5t21.5 -52.5v-477z" />
    <glyph glyph-name="Ccedilla" unicode="&#xc7;" 
d="M560 700h-210q-32 0 -52 20q-18 21 -18 50q0 25 18.5 47.5t51.5 22.5h210q58 0 99 39t41 101v140q0 59 -39.5 99.5t-100.5 40.5h-140q-46 0 -81 -26q-35 -24 -51 -71q-5 -19 -23 -33q-8 -8 -19 -13l-22 -3q-30 0 -53 19q-21 20 -21 51l4 24q27 84 100.5 138t165.5 54h140
q117 0 198.5 -82t81.5 -198v-140q0 -61 -24.5 -116.5t-70.5 -93.5q95 -80 95 -210v-280q0 -115 -82 -197.5t-198 -82.5h-140q-90 0 -162.5 52t-103.5 140l-4 25q0 27 21 48t53 21q41 0 62 -47q14 -41 51 -74q41 -25 83 -25h140q58 0 99 39t41 101v280q0 62 -32 98
q-36 42 -108 42z" />
    <glyph glyph-name="Ccedilla" unicode="&#x417;" 
d="M560 700h-210q-32 0 -52 20q-18 21 -18 50q0 25 18.5 47.5t51.5 22.5h210q58 0 99 39t41 101v140q0 59 -39.5 99.5t-100.5 40.5h-140q-46 0 -81 -26q-35 -24 -51 -71q-5 -19 -23 -33q-8 -8 -19 -13l-22 -3q-30 0 -53 19q-21 20 -21 51l4 24q27 84 100.5 138t165.5 54h140
q117 0 198.5 -82t81.5 -198v-140q0 -61 -24.5 -116.5t-70.5 -93.5q95 -80 95 -210v-280q0 -115 -82 -197.5t-198 -82.5h-140q-90 0 -162.5 52t-103.5 140l-4 25q0 27 21 48t53 21q41 0 62 -47q14 -41 51 -74q41 -25 83 -25h140q58 0 99 39t41 101v280q0 62 -32 98
q-36 42 -108 42z" />
    <glyph glyph-name="Egrave" unicode="&#xc8;" horiz-adv-x="1120" 
d="M980 70q0 -33 -20 -53q-19 -17 -50 -17q-28 0 -49 17.5t-21 52.5v990l-568 -1024q-12 -21 -31 -34l-15 -8q-7 -3 -22 -5q-20 0 -46 21q-18 21 -18 60v1260q0 28 21 52q21 18 49 18q27 0 48.5 -17.5t21.5 -52.5v-990l568 1023q10 17 30 34q19 14 38 14q23 0 43 -23
q21 -21 21 -58v-1260z" />
    <glyph glyph-name="Egrave" unicode="&#x418;" horiz-adv-x="1120" 
d="M980 70q0 -33 -20 -53q-19 -17 -50 -17q-28 0 -49 17.5t-21 52.5v990l-568 -1024q-12 -21 -31 -34l-15 -8q-7 -3 -22 -5q-20 0 -46 21q-18 21 -18 60v1260q0 28 21 52q21 18 49 18q27 0 48.5 -17.5t21.5 -52.5v-990l568 1023q10 17 30 34q19 14 38 14q23 0 43 -23
q21 -21 21 -58v-1260z" />
    <glyph glyph-name="Eacute" unicode="&#xc9;" horiz-adv-x="1120" 
d="M700 1540h-280q-32 0 -52 19q-18 23 -18 51q0 24 17.5 47t52.5 23h280q29 0 49.5 -21.5t20.5 -48.5q0 -24 -17.5 -47t-52.5 -23zM980 70q0 -33 -20 -53q-19 -17 -50 -17q-28 0 -49 17.5t-21 52.5v990l-568 -1024q-12 -21 -31 -34l-15 -8q-7 -3 -22 -5q-20 0 -46 21
q-18 21 -18 60v1260q0 28 21 52q21 18 49 18q27 0 48.5 -17.5t21.5 -52.5v-990l568 1023q10 17 30 34q19 14 38 14q23 0 43 -23q21 -21 21 -58v-1260z" />
    <glyph glyph-name="Eacute" unicode="&#x419;" horiz-adv-x="1120" 
d="M700 1540h-280q-32 0 -52 19q-18 23 -18 51q0 24 17.5 47t52.5 23h280q29 0 49.5 -21.5t20.5 -48.5q0 -24 -17.5 -47t-52.5 -23zM980 70q0 -33 -20 -53q-19 -17 -50 -17q-28 0 -49 17.5t-21 52.5v990l-568 -1024q-12 -21 -31 -34l-15 -8q-7 -3 -22 -5q-20 0 -46 21
q-18 21 -18 60v1260q0 28 21 52q21 18 49 18q27 0 48.5 -17.5t21.5 -52.5v-990l568 1023q10 17 30 34q19 14 38 14q23 0 43 -23q21 -21 21 -58v-1260z" />
    <glyph glyph-name="Ecircumflex" unicode="&#xca;" horiz-adv-x="1120" 
d="M280 794l589 585q21 21 48 21q26 0 48.5 -21.5t22.5 -50.5q0 -18 -21 -47l-417 -416l430 -761l10 -37q0 -27 -23 -47q-21 -21 -51 -21q-34 0 -59 37l-410 731l-167 -164v-533q0 -33 -20 -53q-19 -17 -50 -17q-28 0 -49 17.5t-21 52.5v1260q0 27 21.5 47.5t48.5 20.5
t49 -16q21 -18 21 -52v-536z" />
    <glyph glyph-name="Ecircumflex" unicode="&#x41a;" horiz-adv-x="1120" 
d="M280 794l589 585q21 21 48 21q26 0 48.5 -21.5t22.5 -50.5q0 -18 -21 -47l-417 -416l430 -761l10 -37q0 -27 -23 -47q-21 -21 -51 -21q-34 0 -59 37l-410 731l-167 -164v-533q0 -33 -20 -53q-19 -17 -50 -17q-28 0 -49 17.5t-21 52.5v1260q0 27 21.5 47.5t48.5 20.5
t49 -16q21 -18 21 -52v-536z" />
    <glyph glyph-name="Edieresis" unicode="&#xcb;" horiz-adv-x="1120" 
d="M980 70q0 -33 -20 -53q-19 -17 -50 -17q-28 0 -49 17.5t-21 52.5v1190h-227l-336 -1208q-3 -21 -23 -36.5t-43 -15.5q-31 0 -51 17.5t-20 49.5q0 15 3 21l350 1260q15 52 67 52h350q70 0 70 -70v-1260z" />
    <glyph glyph-name="Edieresis" unicode="&#x41b;" horiz-adv-x="1120" 
d="M980 70q0 -33 -20 -53q-19 -17 -50 -17q-28 0 -49 17.5t-21 52.5v1190h-227l-336 -1208q-3 -21 -23 -36.5t-43 -15.5q-31 0 -51 17.5t-20 49.5q0 15 3 21l350 1260q15 52 67 52h350q70 0 70 -70v-1260z" />
    <glyph glyph-name="Igrave" unicode="&#xcc;" horiz-adv-x="1260" 
d="M1121 70q0 -33 -19 -53q-20 -17 -51 -17q-24 0 -47 17.5t-23 52.5v999l-289 -484q-26 -45 -61 -45q-30 0 -60 45l-291 484v-999q0 -33 -20 -53q-19 -17 -50 -17q-28 0 -49 17.5t-21 52.5v1253q0 40 20 60q18 21 44 21q19 0 34 -10t32 -35l361 -600l360 600q24 45 67 45
q24 0 45 -22q18 -23 18 -59v-1253z" />
    <glyph glyph-name="Igrave" unicode="&#x41c;" horiz-adv-x="1260" 
d="M1121 70q0 -33 -19 -53q-20 -17 -51 -17q-24 0 -47 17.5t-23 52.5v999l-289 -484q-26 -45 -61 -45q-30 0 -60 45l-291 484v-999q0 -33 -20 -53q-19 -17 -50 -17q-28 0 -49 17.5t-21 52.5v1253q0 40 20 60q18 21 44 21q19 0 34 -10t32 -35l361 -600l360 600q24 45 67 45
q24 0 45 -22q18 -23 18 -59v-1253z" />
    <glyph glyph-name="Iacute" unicode="&#xcd;" horiz-adv-x="1120" 
d="M840 840v493q0 28 21 49t49 21q27 0 48.5 -17.5t21.5 -52.5v-1260q0 -30 -22 -53q-25 -19 -49 -19q-26 0 -49 17q-20 17 -20 52v630h-560v-630q0 -33 -20 -53q-19 -17 -50 -17q-28 0 -49 17.5t-21 52.5v1260q0 28 21 52q21 18 49 18q27 0 48.5 -17.5t21.5 -52.5v-490h560
z" />
    <glyph glyph-name="Iacute" unicode="&#x41d;" horiz-adv-x="1120" 
d="M840 840v493q0 28 21 49t49 21q27 0 48.5 -17.5t21.5 -52.5v-1260q0 -30 -22 -53q-25 -19 -49 -19q-26 0 -49 17q-20 17 -20 52v630h-560v-630q0 -33 -20 -53q-19 -17 -50 -17q-28 0 -49 17.5t-21 52.5v1260q0 28 21 52q21 18 49 18q27 0 48.5 -17.5t21.5 -52.5v-490h560
z" />
    <glyph glyph-name="Icircumflex" unicode="&#xce;" horiz-adv-x="1232" 
d="M980 280q0 -115 -82 -197.5t-198 -82.5h-280q-114 0 -197 81.5t-83 198.5v840q0 117 81.5 198.5t198.5 81.5h280q117 0 198.5 -82t81.5 -198v-840zM840 280v840q0 59 -39.5 99.5t-100.5 40.5h-280q-59 0 -100 -40q-20 -20 -30 -45.5t-10 -54.5v-840q0 -59 40 -100
q21 -18 45 -30q30 -10 55 -10h280q58 0 99 39t41 101z" />
    <glyph glyph-name="Icircumflex" unicode="&#x41e;" horiz-adv-x="1232" 
d="M980 280q0 -115 -82 -197.5t-198 -82.5h-280q-114 0 -197 81.5t-83 198.5v840q0 117 81.5 198.5t198.5 81.5h280q117 0 198.5 -82t81.5 -198v-840zM840 280v840q0 59 -39.5 99.5t-100.5 40.5h-280q-59 0 -100 -40q-20 -20 -30 -45.5t-10 -54.5v-840q0 -59 40 -100
q21 -18 45 -30q30 -10 55 -10h280q58 0 99 39t41 101z" />
    <glyph glyph-name="Idieresis" unicode="&#xcf;" horiz-adv-x="1120" 
d="M980 70q0 -33 -20 -53q-19 -17 -50 -17q-28 0 -49 17.5t-21 52.5v1190h-560v-1190q0 -33 -20 -53q-19 -17 -50 -17q-28 0 -49 17.5t-21 52.5v1260q0 70 70 70h700q70 0 70 -70v-1260z" />
    <glyph glyph-name="Idieresis" unicode="&#x41f;" horiz-adv-x="1120" 
d="M980 70q0 -33 -20 -53q-19 -17 -50 -17q-28 0 -49 17.5t-21 52.5v1190h-560v-1190q0 -33 -20 -53q-19 -17 -50 -17q-28 0 -49 17.5t-21 52.5v1260q0 70 70 70h700q70 0 70 -70v-1260z" />
    <glyph glyph-name="Eth" unicode="&#xd0;" horiz-adv-x="1120" 
d="M280 700h420q58 0 99 39t41 101v280q0 59 -39.5 99.5t-100.5 40.5h-420v-560zM280 560v-490q0 -33 -20 -53q-19 -17 -50 -17q-28 0 -49 17.5t-21 52.5v1260q0 70 70 70h490q117 0 198.5 -82t81.5 -198v-280q0 -115 -82 -197.5t-198 -82.5h-420z" />
    <glyph glyph-name="Eth" unicode="&#x420;" horiz-adv-x="1120" 
d="M280 700h420q58 0 99 39t41 101v280q0 59 -39.5 99.5t-100.5 40.5h-420v-560zM280 560v-490q0 -33 -20 -53q-19 -17 -50 -17q-28 0 -49 17.5t-21 52.5v1260q0 70 70 70h490q117 0 198.5 -82t81.5 -198v-280q0 -115 -82 -197.5t-198 -82.5h-420z" />
    <glyph glyph-name="Ntilde" unicode="&#xd1;" 
d="M770 0h-350q-114 0 -197 81.5t-83 198.5v840q0 117 81.5 198.5t198.5 81.5h350q29 0 49.5 -21.5t20.5 -48.5q0 -24 -17.5 -47t-52.5 -23h-350q-59 0 -100 -40q-20 -20 -30 -45.5t-10 -54.5v-840q0 -59 40 -100q21 -18 45 -30q30 -10 55 -10h350q29 0 49.5 -21.5
t20.5 -48.5q0 -24 -17.5 -47t-52.5 -23z" />
    <glyph glyph-name="Ntilde" unicode="&#x421;" 
d="M770 0h-350q-114 0 -197 81.5t-83 198.5v840q0 117 81.5 198.5t198.5 81.5h350q29 0 49.5 -21.5t20.5 -48.5q0 -24 -17.5 -47t-52.5 -23h-350q-59 0 -100 -40q-20 -20 -30 -45.5t-10 -54.5v-840q0 -59 40 -100q21 -18 45 -30q30 -10 55 -10h350q29 0 49.5 -21.5
t20.5 -48.5q0 -24 -17.5 -47t-52.5 -23z" />
    <glyph glyph-name="Ograve" unicode="&#xd2;" horiz-adv-x="1120" 
d="M490 1260h-280q-32 0 -52 19q-18 23 -18 51q0 24 17.5 47t52.5 23h700q29 0 49.5 -21.5t20.5 -48.5q0 -24 -17.5 -47t-52.5 -23h-280v-1190q0 -33 -20 -53q-19 -17 -50 -17q-28 0 -49 17.5t-21 52.5v1190z" />
    <glyph glyph-name="Ograve" unicode="&#x422;" horiz-adv-x="1120" 
d="M490 1260h-280q-32 0 -52 19q-18 23 -18 51q0 24 17.5 47t52.5 23h700q29 0 49.5 -21.5t20.5 -48.5q0 -24 -17.5 -47t-52.5 -23h-280v-1190q0 -33 -20 -53q-19 -17 -50 -17q-28 0 -49 17.5t-21 52.5v1190z" />
    <glyph glyph-name="Oacute" unicode="&#xd3;" horiz-adv-x="1120" 
d="M840 560h-420q-114 0 -197 81.5t-83 198.5v490q0 28 21 52q21 18 49 18q27 0 48.5 -17.5t21.5 -52.5v-490q0 -59 40 -100q21 -18 45 -30q30 -10 55 -10h420v630q0 28 21 52q21 18 49 18q27 0 48.5 -17.5t21.5 -52.5v-1050q0 -115 -82 -197.5t-198 -82.5h-350
q-32 0 -52 20q-18 21 -18 50q0 25 18.5 47.5t51.5 22.5h350q58 0 99 39t41 101v280z" />
    <glyph glyph-name="Oacute" unicode="&#x423;" horiz-adv-x="1120" 
d="M840 560h-420q-114 0 -197 81.5t-83 198.5v490q0 28 21 52q21 18 49 18q27 0 48.5 -17.5t21.5 -52.5v-490q0 -59 40 -100q21 -18 45 -30q30 -10 55 -10h420v630q0 28 21 52q21 18 49 18q27 0 48.5 -17.5t21.5 -52.5v-1050q0 -115 -82 -197.5t-198 -82.5h-350
q-32 0 -52 20q-18 21 -18 50q0 25 18.5 47.5t51.5 22.5h350q58 0 99 39t41 101v280z" />
    <glyph glyph-name="Ocircumflex" unicode="&#xd4;" horiz-adv-x="1400" 
d="M770 1050v-630h70q116 0 198 82t82 198v70q0 112 -81 196t-199 84h-70zM630 420v630h-70q-114 0 -197 -81.5t-83 -198.5v-70q0 -115 82 -197.5t198 -82.5h70zM630 280h-70q-175 0 -297.5 122t-122.5 298v70q0 171 123 295.5t297 124.5h70v140q0 28 21 52q21 18 49 18
q27 0 48.5 -17.5t21.5 -52.5v-140h70q174 0 297 -123q57 -60 90 -134.5t33 -162.5v-70q0 -170 -122.5 -295t-297.5 -125h-70v-210q0 -33 -20 -53q-19 -17 -50 -17q-28 0 -49 17.5t-21 52.5v210z" />
    <glyph glyph-name="Ocircumflex" unicode="&#x424;" horiz-adv-x="1400" 
d="M770 1050v-630h70q116 0 198 82t82 198v70q0 112 -81 196t-199 84h-70zM630 420v630h-70q-114 0 -197 -81.5t-83 -198.5v-70q0 -115 82 -197.5t198 -82.5h70zM630 280h-70q-175 0 -297.5 122t-122.5 298v70q0 171 123 295.5t297 124.5h70v140q0 28 21 52q21 18 49 18
q27 0 48.5 -17.5t21.5 -52.5v-140h70q174 0 297 -123q57 -60 90 -134.5t33 -162.5v-70q0 -170 -122.5 -295t-297.5 -125h-70v-210q0 -33 -20 -53q-19 -17 -50 -17q-28 0 -49 17.5t-21 52.5v210z" />
    <glyph glyph-name="Otilde" unicode="&#xd5;" horiz-adv-x="1260" 
d="M630 827l361 542q9 14 25 24l15 6l17 2q27 0 51 -21q22 -22 22 -50q0 -18 -12 -39l-394 -591l394 -591l9 -21l3 -19q0 -27 -21.5 -48.5t-52.5 -21.5q-33 0 -56 32l-361 542l-361 -542q-8 -13 -27 -25l-31 -7q-22 0 -49 21q-23 21 -23 50q0 18 12 39l394 591l-394 591
l-10 21l-2 19q0 27 21.5 48.5t52.5 21.5q33 0 56 -32z" />
    <glyph glyph-name="Otilde" unicode="&#x425;" horiz-adv-x="1260" 
d="M630 827l361 542q9 14 25 24l15 6l17 2q27 0 51 -21q22 -22 22 -50q0 -18 -12 -39l-394 -591l394 -591l9 -21l3 -19q0 -27 -21.5 -48.5t-52.5 -21.5q-33 0 -56 32l-361 542l-361 -542q-8 -13 -27 -25l-31 -7q-22 0 -49 21q-23 21 -23 50q0 18 12 39l394 591l-394 591
l-10 21l-2 19q0 27 21.5 48.5t52.5 21.5q33 0 56 -32z" />
    <glyph glyph-name="Odieresis" unicode="&#xd6;" horiz-adv-x="1260" 
d="M840 140v1190q0 28 21 52q21 18 49 18q27 0 48.5 -17.5t21.5 -52.5v-1190h70q70 0 70 -70v-210q0 -29 -21.5 -49.5t-48.5 -20.5q-24 0 -47 17.5t-23 52.5v140h-770q-70 0 -70 70v1260q0 28 21 52q21 18 49 18q27 0 48.5 -17.5t21.5 -52.5v-1190h560z" />
    <glyph glyph-name="Odieresis" unicode="&#x426;" horiz-adv-x="1260" 
d="M840 140v1190q0 28 21 52q21 18 49 18q27 0 48.5 -17.5t21.5 -52.5v-1190h70q70 0 70 -70v-210q0 -29 -21.5 -49.5t-48.5 -20.5q-24 0 -47 17.5t-23 52.5v140h-770q-70 0 -70 70v1260q0 28 21 52q21 18 49 18q27 0 48.5 -17.5t21.5 -52.5v-1190h560z" />
    <glyph glyph-name="multiply" unicode="&#xd7;" horiz-adv-x="1120" 
d="M840 700v630q0 28 21 52q21 18 49 18q27 0 48.5 -17.5t21.5 -52.5v-1260q0 -33 -20 -53q-19 -17 -50 -17q-28 0 -49 17.5t-21 52.5v490h-420q-114 0 -197 81.5t-83 198.5v490q0 28 21 52q21 18 49 18q27 0 48.5 -17.5t21.5 -52.5v-490q0 -59 40 -100q21 -18 45 -30
q30 -10 55 -10h420z" />
    <glyph glyph-name="multiply" unicode="&#x427;" horiz-adv-x="1120" 
d="M840 700v630q0 28 21 52q21 18 49 18q27 0 48.5 -17.5t21.5 -52.5v-1260q0 -33 -20 -53q-19 -17 -50 -17q-28 0 -49 17.5t-21 52.5v490h-420q-114 0 -197 81.5t-83 198.5v490q0 28 21 52q21 18 49 18q27 0 48.5 -17.5t21.5 -52.5v-490q0 -59 40 -100q21 -18 45 -30
q30 -10 55 -10h420z" />
    <glyph glyph-name="Oslash" unicode="&#xd8;" horiz-adv-x="1400" 
d="M770 140h350v1190q0 28 21 52q21 18 49 18q26 0 49 -17q21 -18 21 -53v-1260q0 -70 -70 -70h-980q-70 0 -70 70v1260q0 28 21 52q21 18 49 18q27 0 48.5 -17.5t21.5 -52.5v-1190h350v1190q0 28 21 52q21 18 49 18q27 0 48.5 -17.5t21.5 -52.5v-1190z" />
    <glyph glyph-name="Oslash" unicode="&#x428;" horiz-adv-x="1400" 
d="M770 140h350v1190q0 28 21 52q21 18 49 18q26 0 49 -17q21 -18 21 -53v-1260q0 -70 -70 -70h-980q-70 0 -70 70v1260q0 28 21 52q21 18 49 18q27 0 48.5 -17.5t21.5 -52.5v-1190h350v1190q0 28 21 52q21 18 49 18q27 0 48.5 -17.5t21.5 -52.5v-1190z" />
    <glyph glyph-name="Ugrave" unicode="&#xd9;" horiz-adv-x="1540" 
d="M1260 0h-70h-980q-70 0 -70 70v1260q0 28 21 52q21 18 49 18q27 0 48.5 -17.5t21.5 -52.5v-1190h350v1190q0 28 21 52q21 18 49 18q27 0 48.5 -17.5t21.5 -52.5v-1190h350v1190q0 28 21 52q21 18 49 18q26 0 49 -17q21 -18 21 -53v-1190h70q70 0 70 -70v-210
q0 -29 -21.5 -49.5t-48.5 -20.5q-24 0 -47 17.5t-23 52.5v140z" />
    <glyph glyph-name="Ugrave" unicode="&#x429;" horiz-adv-x="1540" 
d="M1260 0h-70h-980q-70 0 -70 70v1260q0 28 21 52q21 18 49 18q27 0 48.5 -17.5t21.5 -52.5v-1190h350v1190q0 28 21 52q21 18 49 18q27 0 48.5 -17.5t21.5 -52.5v-1190h350v1190q0 28 21 52q21 18 49 18q26 0 49 -17q21 -18 21 -53v-1190h70q70 0 70 -70v-210
q0 -29 -21.5 -49.5t-48.5 -20.5q-24 0 -47 17.5t-23 52.5v140z" />
    <glyph glyph-name="Uacute" unicode="&#xda;" horiz-adv-x="1400" 
d="M560 700v-560h420q58 0 99 39t41 101v280q0 59 -39.5 99.5t-100.5 40.5h-420zM560 840h420q117 0 198.5 -82t81.5 -198v-280q0 -117 -81.5 -198.5t-198.5 -81.5h-490q-70 0 -70 70v1190h-210q-32 0 -52 19q-18 23 -18 51q0 24 17.5 47t52.5 23h280q70 0 70 -70v-490z" />
    <glyph glyph-name="Uacute" unicode="&#x42a;" horiz-adv-x="1400" 
d="M560 700v-560h420q58 0 99 39t41 101v280q0 59 -39.5 99.5t-100.5 40.5h-420zM560 840h420q117 0 198.5 -82t81.5 -198v-280q0 -117 -81.5 -198.5t-198.5 -81.5h-490q-70 0 -70 70v1190h-210q-32 0 -52 19q-18 23 -18 51q0 24 17.5 47t52.5 23h280q70 0 70 -70v-490z" />
    <glyph glyph-name="Ucircumflex" unicode="&#xdb;" horiz-adv-x="1260" 
d="M1120 70q0 -33 -20 -53q-19 -17 -50 -17q-28 0 -49 17.5t-21 52.5v1260q0 28 21 52q21 18 49 18q26 0 49 -17q21 -18 21 -53v-1260zM280 700v-560h280q58 0 99 39t41 101v280q0 59 -39.5 99.5t-100.5 40.5h-280zM280 840h280q114 0 197 -81.5t83 -198.5v-280
q0 -115 -82 -197.5t-198 -82.5h-350q-70 0 -70 70v1260q0 28 21 52q21 18 49 18q27 0 48.5 -17.5t21.5 -52.5v-490z" />
    <glyph glyph-name="Ucircumflex" unicode="&#x42b;" horiz-adv-x="1260" 
d="M1120 70q0 -33 -20 -53q-19 -17 -50 -17q-28 0 -49 17.5t-21 52.5v1260q0 28 21 52q21 18 49 18q26 0 49 -17q21 -18 21 -53v-1260zM280 700v-560h280q58 0 99 39t41 101v280q0 59 -39.5 99.5t-100.5 40.5h-280zM280 840h280q114 0 197 -81.5t83 -198.5v-280
q0 -115 -82 -197.5t-198 -82.5h-350q-70 0 -70 70v1260q0 28 21 52q21 18 49 18q27 0 48.5 -17.5t21.5 -52.5v-490z" />
    <glyph glyph-name="Udieresis" unicode="&#xdc;" horiz-adv-x="1120" 
d="M280 700h420q59 0 99.5 -39.5t40.5 -100.5v-280q0 -59 -40 -100q-20 -20 -45.5 -30t-54.5 -10h-420v560zM280 840v490q0 28 -21.5 49t-48.5 21q-24 0 -47 -17.5t-23 -52.5v-1260q0 -70 70 -70h490q113 0 196.5 81t83.5 199v280q0 114 -81.5 197t-198.5 83h-420z" />
    <glyph glyph-name="Udieresis" unicode="&#x42c;" horiz-adv-x="1120" 
d="M280 700h420q59 0 99.5 -39.5t40.5 -100.5v-280q0 -59 -40 -100q-20 -20 -45.5 -30t-54.5 -10h-420v560zM280 840v490q0 28 -21.5 49t-48.5 21q-24 0 -47 -17.5t-23 -52.5v-1260q0 -70 70 -70h490q113 0 196.5 81t83.5 199v280q0 114 -81.5 197t-198.5 83h-420z" />
    <glyph glyph-name="Yacute" unicode="&#xdd;" horiz-adv-x="1120" 
d="M840 700h-350q-32 0 -52 20q-18 21 -18 50q0 25 18.5 47.5t51.5 22.5h350v280q0 59 -39.5 99.5t-100.5 40.5h-490q-32 0 -52 19q-18 23 -18 51q0 24 17.5 47t52.5 23h490q117 0 198.5 -82t81.5 -198v-840q0 -115 -82 -197.5t-198 -82.5h-490q-32 0 -52 20q-18 21 -18 50
q0 25 18.5 47.5t51.5 22.5h490q58 0 99 39t41 101v420z" />
    <glyph glyph-name="Yacute" unicode="&#x42d;" horiz-adv-x="1120" 
d="M840 700h-350q-32 0 -52 20q-18 21 -18 50q0 25 18.5 47.5t51.5 22.5h350v280q0 59 -39.5 99.5t-100.5 40.5h-490q-32 0 -52 19q-18 23 -18 51q0 24 17.5 47t52.5 23h490q117 0 198.5 -82t81.5 -198v-840q0 -115 -82 -197.5t-198 -82.5h-490q-32 0 -52 20q-18 21 -18 50
q0 25 18.5 47.5t51.5 22.5h490q58 0 99 39t41 101v420z" />
    <glyph glyph-name="Thorn" unicode="&#xde;" horiz-adv-x="1260" 
d="M980 280v840q0 59 -39.5 99.5t-100.5 40.5h-140q-59 0 -100 -40q-20 -20 -30 -45.5t-10 -54.5v-840q0 -59 40 -100q21 -18 45 -30q30 -10 55 -10h140q58 0 99 39t41 101zM280 840h140v280q0 117 81.5 198.5t198.5 81.5h140q117 0 198.5 -82t81.5 -198v-840
q0 -115 -82 -197.5t-198 -82.5h-140q-114 0 -197 81.5t-83 198.5v420h-140v-630q0 -33 -20 -53q-19 -17 -50 -17q-28 0 -49 17.5t-21 52.5v1260q0 28 21 52q21 18 49 18q27 0 48.5 -17.5t21.5 -52.5v-490z" />
    <glyph glyph-name="Thorn" unicode="&#x42e;" horiz-adv-x="1260" 
d="M980 280v840q0 59 -39.5 99.5t-100.5 40.5h-140q-59 0 -100 -40q-20 -20 -30 -45.5t-10 -54.5v-840q0 -59 40 -100q21 -18 45 -30q30 -10 55 -10h140q58 0 99 39t41 101zM280 840h140v280q0 117 81.5 198.5t198.5 81.5h140q117 0 198.5 -82t81.5 -198v-840
q0 -115 -82 -197.5t-198 -82.5h-140q-114 0 -197 81.5t-83 198.5v420h-140v-630q0 -33 -20 -53q-19 -17 -50 -17q-28 0 -49 17.5t-21 52.5v1260q0 28 21 52q21 18 49 18q27 0 48.5 -17.5t21.5 -52.5v-490z" />
    <glyph glyph-name="germandbls" unicode="&#xdf;" horiz-adv-x="1120" 
d="M840 700v560h-420q-59 0 -100 -40q-20 -20 -30 -45.5t-10 -54.5v-280q0 -59 40 -100q21 -18 45 -30q30 -10 55 -10h420zM599 560l-330 -528q-21 -33 -56 -33q-27 0 -49 22q-24 21 -24 49q0 21 11 38l283 452h-14q-114 0 -197 81.5t-83 198.5v280q0 117 81.5 198.5
t198.5 81.5h490q70 0 70 -70v-1260q0 -33 -20 -53q-19 -17 -50 -17q-28 0 -49 17.5t-21 52.5v490h-241z" />
    <glyph glyph-name="germandbls" unicode="&#x42f;" horiz-adv-x="1120" 
d="M840 700v560h-420q-59 0 -100 -40q-20 -20 -30 -45.5t-10 -54.5v-280q0 -59 40 -100q21 -18 45 -30q30 -10 55 -10h420zM599 560l-330 -528q-21 -33 -56 -33q-27 0 -49 22q-24 21 -24 49q0 21 11 38l283 452h-14q-114 0 -197 81.5t-83 198.5v280q0 117 81.5 198.5
t198.5 81.5h490q70 0 70 -70v-1260q0 -33 -20 -53q-19 -17 -50 -17q-28 0 -49 17.5t-21 52.5v490h-241z" />
    <glyph glyph-name="agrave" unicode="&#xe0;" 
d="M700 280v560h-280q-59 0 -100 -40q-20 -20 -30 -45.5t-10 -54.5v-420q0 -59 40 -100q21 -18 45 -30q30 -10 55 -10h140q58 0 99 39t41 101zM769 92q-34 -39 -92.5 -65.5t-116.5 -26.5h-140q-113 0 -196.5 81t-83.5 199v420q0 116 82 198t198 82h350q70 0 70 -70v-629
q0 -42 27 -86q24 -39 70 -61q44 -18 44 -63q0 -31 -20 -51q-18 -21 -50 -21q-15 0 -29 7q-69 27 -113 86z" />
    <glyph glyph-name="agrave" unicode="&#x430;" 
d="M700 280v560h-280q-59 0 -100 -40q-20 -20 -30 -45.5t-10 -54.5v-420q0 -59 40 -100q21 -18 45 -30q30 -10 55 -10h140q58 0 99 39t41 101zM769 92q-34 -39 -92.5 -65.5t-116.5 -26.5h-140q-113 0 -196.5 81t-83.5 199v420q0 116 82 198t198 82h350q70 0 70 -70v-629
q0 -42 27 -86q24 -39 70 -61q44 -18 44 -63q0 -31 -20 -51q-18 -21 -50 -21q-15 0 -29 7q-69 27 -113 86z" />
    <glyph glyph-name="aacute" unicode="&#xe1;" 
d="M700 280v420q0 59 -39.5 99.5t-100.5 40.5h-140q-59 0 -100 -40q-20 -20 -30 -45.5t-10 -54.5v-420q0 -59 40 -100q21 -18 45 -30q30 -10 55 -10h140q58 0 99 39t41 101zM475 980l-314 299q-25 28 -25 59q0 21 18 41.5t56 20.5h560q29 0 49.5 -21.5t20.5 -48.5
q0 -24 -17.5 -47t-52.5 -23h-385l371 -354l17 -23q67 -79 67 -183v-420q0 -115 -82 -197.5t-198 -82.5h-140q-113 0 -196.5 81t-83.5 199v420q0 116 82 198t198 82h55z" />
    <glyph glyph-name="aacute" unicode="&#x431;" 
d="M700 280v420q0 59 -39.5 99.5t-100.5 40.5h-140q-59 0 -100 -40q-20 -20 -30 -45.5t-10 -54.5v-420q0 -59 40 -100q21 -18 45 -30q30 -10 55 -10h140q58 0 99 39t41 101zM475 980l-314 299q-25 28 -25 59q0 21 18 41.5t56 20.5h560q29 0 49.5 -21.5t20.5 -48.5
q0 -24 -17.5 -47t-52.5 -23h-385l371 -354l17 -23q67 -79 67 -183v-420q0 -115 -82 -197.5t-198 -82.5h-140q-113 0 -196.5 81t-83.5 199v420q0 116 82 198t198 82h55z" />
    <glyph glyph-name="acircumflex" unicode="&#xe2;" 
d="M700 280v420q0 59 -39.5 99.5t-100.5 40.5h-140q-59 0 -100 -40q-20 -20 -30 -45.5t-10 -54.5v-420q0 -59 40 -100q21 -18 45 -30q30 -10 55 -10h140q58 0 99 39t41 101zM280 931l57 38l83 58q40 31 57 52q27 33 27 69q0 48 -34 81q-34 29 -78 29q-46 0 -79 -29
q-33 -27 -33 -81v-217zM560 976q134 0 210 -80q70 -76 70 -196v-420q0 -115 -82 -197.5t-198 -82.5h-140q-113 0 -196.5 81t-83.5 199v868q0 117 78 189q73 64 175 64q97 0 174 -66t77 -186q0 -68 -20 -102q-17 -35 -64 -71z" />
    <glyph glyph-name="acircumflex" unicode="&#x432;" 
d="M700 280v420q0 59 -39.5 99.5t-100.5 40.5h-140q-59 0 -100 -40q-20 -20 -30 -45.5t-10 -54.5v-420q0 -59 40 -100q21 -18 45 -30q30 -10 55 -10h140q58 0 99 39t41 101zM280 931l57 38l83 58q40 31 57 52q27 33 27 69q0 48 -34 81q-34 29 -78 29q-46 0 -79 -29
q-33 -27 -33 -81v-217zM560 976q134 0 210 -80q70 -76 70 -196v-420q0 -115 -82 -197.5t-198 -82.5h-140q-113 0 -196.5 81t-83.5 199v868q0 117 78 189q73 64 175 64q97 0 174 -66t77 -186q0 -68 -20 -102q-17 -35 -64 -71z" />
    <glyph glyph-name="atilde" unicode="&#xe3;" 
d="M804 64q-54 -29 -140 -50l-75 -11l-82 -4l-98 4l-84 12q-78 12 -128 72.5t-50 137.5q0 44 18 88t59 79l447 307q21 18 21 43q0 44 -72 69t-158 25q-69 0 -122.5 -11.5t-87.5 -40.5q-18 -12 -43 -15q-22 0 -49 21q-20 22 -20 51q0 33 28 55q43 33 131 55q42 10 87.5 16
t89.5 6q28 0 53.5 -1t57.5 -4.5t76 -17.5q76 -21 124.5 -78t48.5 -126q0 -87 -80 -157l-447 -308q-25 -23 -25 -54q0 -25 17 -49q17 -21 48 -27l75 -8l84 -4q78 0 127 10q22 4 49 14t52 25l14 6q9 3 23 3q27 0 49 -22q19 -22 19 -52q0 -34 -37 -59z" />
    <glyph glyph-name="atilde" unicode="&#x433;" 
d="M804 64q-54 -29 -140 -50l-75 -11l-82 -4l-98 4l-84 12q-78 12 -128 72.5t-50 137.5q0 44 18 88t59 79l447 307q21 18 21 43q0 44 -72 69t-158 25q-69 0 -122.5 -11.5t-87.5 -40.5q-18 -12 -43 -15q-22 0 -49 21q-20 22 -20 51q0 33 28 55q43 33 131 55q42 10 87.5 16
t89.5 6q28 0 53.5 -1t57.5 -4.5t76 -17.5q76 -21 124.5 -78t48.5 -126q0 -87 -80 -157l-447 -308q-25 -23 -25 -54q0 -25 17 -49q17 -21 48 -27l75 -8l84 -4q78 0 127 10q22 4 49 14t52 25l14 6q9 3 23 3q27 0 49 -22q19 -22 19 -52q0 -34 -37 -59z" />
    <glyph glyph-name="adieresis" unicode="&#xe4;" 
d="M700 840h-280q-59 0 -100 -40q-20 -20 -30 -45.5t-10 -54.5v-420q0 -59 40 -100q21 -18 45 -30q30 -10 55 -10h140q58 0 99 39t41 101v560zM700 980v140q0 59 -39.5 99.5t-100.5 40.5h-280q-32 0 -52 19q-18 23 -18 51q0 24 17.5 47t52.5 23h280q117 0 198.5 -82
t81.5 -198v-840q0 -115 -82 -197.5t-198 -82.5h-140q-113 0 -196.5 81t-83.5 199v420q0 116 82 198t198 82h280z" />
    <glyph glyph-name="adieresis" unicode="&#x434;" 
d="M700 840h-280q-59 0 -100 -40q-20 -20 -30 -45.5t-10 -54.5v-420q0 -59 40 -100q21 -18 45 -30q30 -10 55 -10h140q58 0 99 39t41 101v560zM700 980v140q0 59 -39.5 99.5t-100.5 40.5h-280q-32 0 -52 19q-18 23 -18 51q0 24 17.5 47t52.5 23h280q117 0 198.5 -82
t81.5 -198v-840q0 -115 -82 -197.5t-198 -82.5h-140q-113 0 -196.5 81t-83.5 199v420q0 116 82 198t198 82h280z" />
    <glyph glyph-name="aring" unicode="&#xe5;" 
d="M280 560h420v140q0 59 -39.5 99.5t-100.5 40.5h-140q-59 0 -100 -40q-20 -20 -30 -45.5t-10 -54.5v-140zM280 420v-140q0 -59 40 -100q21 -18 45 -30q30 -10 55 -10h350q29 0 49.5 -21.5t20.5 -48.5q0 -24 -17.5 -47t-52.5 -23h-350q-114 0 -197 81.5t-83 198.5v420
q0 113 81 196.5t199 83.5h140q114 0 197 -81.5t83 -198.5v-210q0 -70 -70 -70h-490z" />
    <glyph glyph-name="aring" unicode="&#x435;" 
d="M280 560h420v140q0 59 -39.5 99.5t-100.5 40.5h-140q-59 0 -100 -40q-20 -20 -30 -45.5t-10 -54.5v-140zM280 420v-140q0 -59 40 -100q21 -18 45 -30q30 -10 55 -10h350q29 0 49.5 -21.5t20.5 -48.5q0 -24 -17.5 -47t-52.5 -23h-350q-114 0 -197 81.5t-83 198.5v420
q0 113 81 196.5t199 83.5h140q114 0 197 -81.5t83 -198.5v-210q0 -70 -70 -70h-490z" />
    <glyph glyph-name="ae" unicode="&#xe6;" horiz-adv-x="1260" 
d="M718 560l259 389q9 14 25 24l15 6l17 2q27 0 51 -21q22 -22 22 -50q0 -18 -12 -39l-254 -381l254 -381l9 -21l3 -19q0 -27 -21.5 -48.5t-52.5 -21.5q-33 0 -56 32l-259 389h-32v-350q0 -33 -20 -53q-19 -17 -50 -17q-28 0 -49 17.5t-21 52.5v350h-32l-259 -389
q-8 -13 -27 -25l-31 -7q-22 0 -49 21q-23 21 -23 50q0 18 12 39l254 381l-254 381l-10 21l-2 19q0 27 21.5 48.5t52.5 21.5q33 0 56 -32l259 -389h32v350q0 28 21 52q21 18 49 18q27 0 48.5 -17.5t21.5 -52.5v-350h32z" />
    <glyph glyph-name="ae" unicode="&#x436;" horiz-adv-x="1260" 
d="M718 560l259 389q9 14 25 24l15 6l17 2q27 0 51 -21q22 -22 22 -50q0 -18 -12 -39l-254 -381l254 -381l9 -21l3 -19q0 -27 -21.5 -48.5t-52.5 -21.5q-33 0 -56 32l-259 389h-32v-350q0 -33 -20 -53q-19 -17 -50 -17q-28 0 -49 17.5t-21 52.5v350h-32l-259 -389
q-8 -13 -27 -25l-31 -7q-22 0 -49 21q-23 21 -23 50q0 18 12 39l254 381l-254 381l-10 21l-2 19q0 27 21.5 48.5t52.5 21.5q33 0 56 -32l259 -389h32v350q0 28 21 52q21 18 49 18q27 0 48.5 -17.5t21.5 -52.5v-350h32z" />
    <glyph glyph-name="ccedilla" unicode="&#xe7;" horiz-adv-x="910" 
d="M508 420h-88q-32 0 -52 20q-18 21 -18 50q0 25 18.5 47.5t51.5 22.5h70q64 0 102 42.5t38 97.5q0 59 -34 97q-17 19 -44 31t-62 12h-70q-97 0 -168 -56q-18 -12 -43 -15q-22 0 -49 21q-20 22 -20 51q0 33 28 55q108 84 252 84h70q132 0 210 -87q70 -79 70 -193
q0 -33 -5 -60t-17 -55q-20 -49 -66 -95q40 -37 66 -95l16 -56q6 -27 6 -60q0 -115 -70 -192q-75 -87 -210 -87h-70q-141 0 -252 84q-29 21 -29 56q0 23 21 48t49 25q19 0 43 -17q73 -56 168 -56h70q63 0 101.5 42.5t38.5 98.5q0 54 -30 91t-92 48z" />
    <glyph glyph-name="ccedilla" unicode="&#x437;" horiz-adv-x="910" 
d="M508 420h-88q-32 0 -52 20q-18 21 -18 50q0 25 18.5 47.5t51.5 22.5h70q64 0 102 42.5t38 97.5q0 59 -34 97q-17 19 -44 31t-62 12h-70q-97 0 -168 -56q-18 -12 -43 -15q-22 0 -49 21q-20 22 -20 51q0 33 28 55q108 84 252 84h70q132 0 210 -87q70 -79 70 -193
q0 -33 -5 -60t-17 -55q-20 -49 -66 -95q40 -37 66 -95l16 -56q6 -27 6 -60q0 -115 -70 -192q-75 -87 -210 -87h-70q-141 0 -252 84q-29 21 -29 56q0 23 21 48t49 25q19 0 43 -17q73 -56 168 -56h70q63 0 101.5 42.5t38.5 98.5q0 54 -30 91t-92 48z" />
    <glyph glyph-name="egrave" unicode="&#xe8;" 
d="M840 70q0 -70 -70 -70h-350q-113 0 -196.5 81t-83.5 199v630q0 28 21 52q21 18 49 18q27 0 48.5 -17.5t21.5 -52.5v-630q0 -59 40 -100q21 -18 45 -30q30 -10 55 -10h280v770q0 28 21 52q21 18 49 18q27 0 48.5 -17.5t21.5 -52.5v-840z" />
    <glyph glyph-name="egrave" unicode="&#x438;" 
d="M840 70q0 -70 -70 -70h-350q-113 0 -196.5 81t-83.5 199v630q0 28 21 52q21 18 49 18q27 0 48.5 -17.5t21.5 -52.5v-630q0 -59 40 -100q21 -18 45 -30q30 -10 55 -10h280v770q0 28 21 52q21 18 49 18q27 0 48.5 -17.5t21.5 -52.5v-840z" />
    <glyph glyph-name="eacute" unicode="&#xe9;" 
d="M630 1260h-280q-32 0 -52 19q-18 23 -18 51q0 24 17.5 47t52.5 23h280q29 0 49.5 -21.5t20.5 -48.5q0 -24 -17.5 -47t-52.5 -23zM840 70q0 -70 -70 -70h-350q-113 0 -196.5 81t-83.5 199v630q0 28 21 52q21 18 49 18q27 0 48.5 -17.5t21.5 -52.5v-630q0 -59 40 -100
q21 -18 45 -30q30 -10 55 -10h280v770q0 28 21 52q21 18 49 18q27 0 48.5 -17.5t21.5 -52.5v-840z" />
    <glyph glyph-name="eacute" unicode="&#x439;" 
d="M630 1260h-280q-32 0 -52 19q-18 23 -18 51q0 24 17.5 47t52.5 23h280q29 0 49.5 -21.5t20.5 -48.5q0 -24 -17.5 -47t-52.5 -23zM840 70q0 -70 -70 -70h-350q-113 0 -196.5 81t-83.5 199v630q0 28 21 52q21 18 49 18q27 0 48.5 -17.5t21.5 -52.5v-630q0 -59 40 -100
q21 -18 45 -30q30 -10 55 -10h280v770q0 28 21 52q21 18 49 18q27 0 48.5 -17.5t21.5 -52.5v-840z" />
    <glyph glyph-name="ecircumflex" unicode="&#xea;" 
d="M423 458l-157 -164v-224q0 -33 -20 -53q-19 -17 -50 -17q-28 0 -49 17.5t-21 52.5v840q0 28 21 52q21 18 49 18q27 0 48.5 -17.5t21.5 -52.5v-413l444 466q18 21 45 21q22 0 49 -21q21 -21 21 -53q0 -29 -23 -53l-281 -296l288 -446q16 -29 16 -48q0 -29 -23 -49
q-21 -21 -49 -21t-50 28z" />
    <glyph glyph-name="ecircumflex" unicode="&#x43a;" 
d="M423 458l-157 -164v-224q0 -33 -20 -53q-19 -17 -50 -17q-28 0 -49 17.5t-21 52.5v840q0 28 21 52q21 18 49 18q27 0 48.5 -17.5t21.5 -52.5v-413l444 466q18 21 45 21q22 0 49 -21q21 -21 21 -53q0 -29 -23 -53l-281 -296l288 -446q16 -29 16 -48q0 -29 -23 -49
q-21 -21 -49 -21t-50 28z" />
    <glyph glyph-name="edieresis" unicode="&#xeb;" 
d="M840 70q0 -33 -20 -53q-19 -17 -50 -17q-28 0 -49 17.5t-21 52.5v770h-161l-262 -792q-8 -23 -26 -37q-5 -3 -38 -11q-28 0 -49 20q-23 18 -23 47l5 25l277 840q15 48 66 48h281q70 0 70 -70v-840z" />
    <glyph glyph-name="edieresis" unicode="&#x43b;" 
d="M840 70q0 -33 -20 -53q-19 -17 -50 -17q-28 0 -49 17.5t-21 52.5v770h-161l-262 -792q-8 -23 -26 -37q-5 -3 -38 -11q-28 0 -49 20q-23 18 -23 47l5 25l277 840q15 48 66 48h281q70 0 70 -70v-840z" />
    <glyph glyph-name="igrave" unicode="&#xec;" horiz-adv-x="1120" 
d="M980 70v840q0 39 -18 60t-44 21q-31 0 -65 -40l-293 -411l-293 411q-28 40 -65 40q-24 0 -45 -22q-17 -22 -17 -59v-840q0 -33 20 -53q19 -17 50 -17q25 0 47.5 18.5t22.5 51.5v622l223 -313q28 -37 57 -37q27 0 57 37l223 313v-622q0 -33 20 -53q19 -17 50 -17
q25 0 47.5 18.5t22.5 51.5z" />
    <glyph glyph-name="igrave" unicode="&#x43c;" horiz-adv-x="1120" 
d="M980 70v840q0 39 -18 60t-44 21q-31 0 -65 -40l-293 -411l-293 411q-28 40 -65 40q-24 0 -45 -22q-17 -22 -17 -59v-840q0 -33 20 -53q19 -17 50 -17q25 0 47.5 18.5t22.5 51.5v622l223 -313q28 -37 57 -37q27 0 57 37l223 313v-622q0 -33 20 -53q19 -17 50 -17
q25 0 47.5 18.5t22.5 51.5z" />
    <glyph glyph-name="iacute" unicode="&#xed;" 
d="M700 560v350q0 28 21 52q21 18 49 18q27 0 48.5 -17.5t21.5 -52.5v-840q0 -33 -20 -53q-19 -17 -50 -17q-28 0 -49 17.5t-21 52.5v350h-420v-350q0 -33 -20 -53q-19 -17 -50 -17q-28 0 -49 17.5t-21 52.5v840q0 28 21 52q21 18 49 18q27 0 48.5 -17.5t21.5 -52.5v-350
h420z" />
    <glyph glyph-name="iacute" unicode="&#x43d;" 
d="M700 560v350q0 28 21 52q21 18 49 18q27 0 48.5 -17.5t21.5 -52.5v-840q0 -33 -20 -53q-19 -17 -50 -17q-28 0 -49 17.5t-21 52.5v350h-420v-350q0 -33 -20 -53q-19 -17 -50 -17q-28 0 -49 17.5t-21 52.5v840q0 28 21 52q21 18 49 18q27 0 48.5 -17.5t21.5 -52.5v-350
h420z" />
    <glyph glyph-name="icircumflex" unicode="&#xee;" 
d="M840 308q0 -125 -89.5 -216.5t-218.5 -91.5h-84q-125 0 -216.5 89t-91.5 219v364q0 123 90 215.5t218 92.5h84q125 0 216.5 -89.5t91.5 -218.5v-364zM700 308v364q0 69 -48.5 118.5t-119.5 49.5h-84q-69 0 -118.5 -49t-49.5 -119v-364q0 -69 49 -118.5t119 -49.5h84
q68 0 118 48t50 120z" />
    <glyph glyph-name="icircumflex" unicode="&#x43e;" 
d="M840 308q0 -125 -89.5 -216.5t-218.5 -91.5h-84q-125 0 -216.5 89t-91.5 219v364q0 123 90 215.5t218 92.5h84q125 0 216.5 -89.5t91.5 -218.5v-364zM700 308v364q0 69 -48.5 118.5t-119.5 49.5h-84q-69 0 -118.5 -49t-49.5 -119v-364q0 -69 49 -118.5t119 -49.5h84
q68 0 118 48t50 120z" />
    <glyph glyph-name="idieresis" unicode="&#xef;" 
d="M840 70q0 -33 -20 -53q-19 -17 -50 -17q-28 0 -49 17.5t-21 52.5v630q0 59 -39.5 99.5t-100.5 40.5h-280v-770q0 -33 -20 -53q-19 -17 -50 -17q-28 0 -49 17.5t-21 52.5v840q0 70 70 70h350q112 0 196 -80.5t84 -199.5v-630z" />
    <glyph glyph-name="idieresis" unicode="&#x43f;" 
d="M840 70q0 -33 -20 -53q-19 -17 -50 -17q-28 0 -49 17.5t-21 52.5v630q0 59 -39.5 99.5t-100.5 40.5h-280v-770q0 -33 -20 -53q-19 -17 -50 -17q-28 0 -49 17.5t-21 52.5v840q0 70 70 70h350q112 0 196 -80.5t84 -199.5v-630z" />
    <glyph glyph-name="eth" unicode="&#xf0;" 
d="M280 140h280q58 0 99 39t41 101v420q0 59 -39.5 99.5t-100.5 40.5h-280v-700zM280 0v-350q0 -29 -21.5 -49.5t-48.5 -20.5q-24 0 -47 17.5t-23 52.5v1260q0 70 70 70h350q114 0 197 -81.5t83 -198.5v-420q0 -115 -82 -197.5t-198 -82.5h-280z" />
    <glyph glyph-name="eth" unicode="&#x440;" 
d="M280 140h280q58 0 99 39t41 101v420q0 59 -39.5 99.5t-100.5 40.5h-280v-700zM280 0v-350q0 -29 -21.5 -49.5t-48.5 -20.5q-24 0 -47 17.5t-23 52.5v1260q0 70 70 70h350q114 0 197 -81.5t83 -198.5v-420q0 -115 -82 -197.5t-198 -82.5h-280z" />
    <glyph glyph-name="ntilde" unicode="&#xf1;" horiz-adv-x="840" 
d="M630 0h-210q-113 0 -196.5 81t-83.5 199v420q0 116 82 198t198 82h210q29 0 49.5 -21.5t20.5 -48.5q0 -24 -17.5 -47t-52.5 -23h-210q-59 0 -100 -40q-20 -20 -30 -45.5t-10 -54.5v-420q0 -59 40 -100q21 -18 45 -30q30 -10 55 -10h210q29 0 49.5 -21.5t20.5 -48.5
q0 -24 -17.5 -47t-52.5 -23z" />
    <glyph glyph-name="ntilde" unicode="&#x441;" horiz-adv-x="840" 
d="M630 0h-210q-113 0 -196.5 81t-83.5 199v420q0 116 82 198t198 82h210q29 0 49.5 -21.5t20.5 -48.5q0 -24 -17.5 -47t-52.5 -23h-210q-59 0 -100 -40q-20 -20 -30 -45.5t-10 -54.5v-420q0 -59 40 -100q21 -18 45 -30q30 -10 55 -10h210q29 0 49.5 -21.5t20.5 -48.5
q0 -24 -17.5 -47t-52.5 -23z" />
    <glyph glyph-name="ograve" unicode="&#xf2;" horiz-adv-x="1260" 
d="M560 840h-280v-770q0 -33 -20 -53q-19 -17 -50 -17q-28 0 -49 17.5t-21 52.5v840q0 70 70 70h630q114 0 197 -81.5t83 -198.5v-630q0 -33 -20 -53q-19 -17 -50 -17q-28 0 -49 17.5t-21 52.5v630q0 59 -39.5 99.5t-100.5 40.5h-140v-770q0 -33 -20 -53q-19 -17 -50 -17
q-28 0 -49 17.5t-21 52.5v770z" />
    <glyph glyph-name="ograve" unicode="&#x442;" horiz-adv-x="1260" 
d="M560 840h-280v-770q0 -33 -20 -53q-19 -17 -50 -17q-28 0 -49 17.5t-21 52.5v840q0 70 70 70h630q114 0 197 -81.5t83 -198.5v-630q0 -33 -20 -53q-19 -17 -50 -17q-28 0 -49 17.5t-21 52.5v630q0 59 -39.5 99.5t-100.5 40.5h-140v-770q0 -33 -20 -53q-19 -17 -50 -17
q-28 0 -49 17.5t-21 52.5v770z" />
    <glyph glyph-name="oacute" unicode="&#xf3;" 
d="M700 0h-280q-113 0 -196.5 81t-83.5 199v630q0 28 21 52q21 18 49 18q27 0 48.5 -17.5t21.5 -52.5v-630q0 -59 40 -100q21 -18 45 -30q30 -10 55 -10h280v770q0 28 21 52q21 18 49 18q27 0 48.5 -17.5t21.5 -52.5v-1050q0 -114 -81.5 -197t-198.5 -83h-280q-26 0 -52 21
q-18 21 -18 49t17.5 49t52.5 21h280q59 0 99.5 39.5t40.5 100.5v140z" />
    <glyph glyph-name="oacute" unicode="&#x443;" 
d="M700 0h-280q-113 0 -196.5 81t-83.5 199v630q0 28 21 52q21 18 49 18q27 0 48.5 -17.5t21.5 -52.5v-630q0 -59 40 -100q21 -18 45 -30q30 -10 55 -10h280v770q0 28 21 52q21 18 49 18q27 0 48.5 -17.5t21.5 -52.5v-1050q0 -114 -81.5 -197t-198.5 -83h-280q-26 0 -52 21
q-18 21 -18 49t17.5 49t52.5 21h280q59 0 99.5 39.5t40.5 100.5v140z" />
    <glyph glyph-name="ocircumflex" unicode="&#xf4;" horiz-adv-x="1260" 
d="M700 840v-700q113 0 196.5 81t83.5 199v140q0 112 -81 196t-199 84zM560 140v700q-114 0 -197 -81.5t-83 -198.5v-140q0 -115 82 -197.5t198 -82.5zM700 980q176 0 298 -122t122 -298v-140q0 -170 -122.5 -295t-297.5 -125v-350q0 -29 -21.5 -49.5t-48.5 -20.5
q-24 0 -47 17.5t-23 52.5v350q-175 0 -297.5 122t-122.5 298v140q0 171 123 295.5t297 124.5v210q0 28 21 52q21 18 49 18q27 0 48.5 -17.5t21.5 -52.5v-210z" />
    <glyph glyph-name="ocircumflex" unicode="&#x444;" horiz-adv-x="1260" 
d="M700 840v-700q113 0 196.5 81t83.5 199v140q0 112 -81 196t-199 84zM560 140v700q-114 0 -197 -81.5t-83 -198.5v-140q0 -115 82 -197.5t198 -82.5zM700 980q176 0 298 -122t122 -298v-140q0 -170 -122.5 -295t-297.5 -125v-350q0 -29 -21.5 -49.5t-48.5 -20.5
q-24 0 -47 17.5t-23 52.5v350q-175 0 -297.5 122t-122.5 298v140q0 171 123 295.5t297 124.5v210q0 28 21 52q21 18 49 18q27 0 48.5 -17.5t21.5 -52.5v-210z" />
    <glyph glyph-name="otilde" unicode="&#xf5;" 
d="M575 490l254 -381l10 -21l2 -19q0 -27 -22 -49l-11 -9l-15 -7l-26 -4q-29 0 -56 31l-221 332l-221 -332q-21 -32 -58 -32q-22 0 -49 21q-23 21 -23 50q0 18 12 39l254 381l-254 381l-10 21l-2 19q0 27 21 48t53 21q29 0 56 -31l221 -332l221 332q21 32 58 32q21 0 50 -21
q22 -22 22 -50q0 -18 -12 -39z" />
    <glyph glyph-name="otilde" unicode="&#x445;" 
d="M575 490l254 -381l10 -21l2 -19q0 -27 -22 -49l-11 -9l-15 -7l-26 -4q-29 0 -56 31l-221 332l-221 -332q-21 -32 -58 -32q-22 0 -49 21q-23 21 -23 50q0 18 12 39l254 381l-254 381l-10 21l-2 19q0 27 21 48t53 21q29 0 56 -31l221 -332l221 332q21 32 58 32q21 0 50 -21
q22 -22 22 -50q0 -18 -12 -39z" />
    <glyph glyph-name="odieresis" unicode="&#xf6;" horiz-adv-x="1120" 
d="M700 140v770q0 28 21 52q21 18 49 18q27 0 48.5 -17.5t21.5 -52.5v-770h70q70 0 70 -70v-126q0 -29 -21.5 -49.5t-48.5 -20.5q-24 0 -47 17.5t-23 52.5v56h-420q-114 0 -197 81.5t-83 198.5v630q0 28 21 52q21 18 49 18q27 0 48.5 -17.5t21.5 -52.5v-630q0 -59 40 -100
q21 -18 45 -30q30 -10 55 -10h280z" />
    <glyph glyph-name="odieresis" unicode="&#x446;" horiz-adv-x="1120" 
d="M700 140v770q0 28 21 52q21 18 49 18q27 0 48.5 -17.5t21.5 -52.5v-770h70q70 0 70 -70v-126q0 -29 -21.5 -49.5t-48.5 -20.5q-24 0 -47 17.5t-23 52.5v56h-420q-114 0 -197 81.5t-83 198.5v630q0 28 21 52q21 18 49 18q27 0 48.5 -17.5t21.5 -52.5v-630q0 -59 40 -100
q21 -18 45 -30q30 -10 55 -10h280z" />
    <glyph glyph-name="divide" unicode="&#xf7;" 
d="M700 560v350q0 28 21 52q21 18 49 18q27 0 48.5 -17.5t21.5 -52.5v-840q0 -33 -20 -53q-19 -17 -50 -17q-28 0 -49 17.5t-21 52.5v350h-280q-113 0 -196.5 81t-83.5 199v210q0 28 21 52q21 18 49 18q27 0 48.5 -17.5t21.5 -52.5v-210q0 -59 40 -100q21 -18 45 -30
q30 -10 55 -10h280z" />
    <glyph glyph-name="divide" unicode="&#x447;" 
d="M700 560v350q0 28 21 52q21 18 49 18q27 0 48.5 -17.5t21.5 -52.5v-840q0 -33 -20 -53q-19 -17 -50 -17q-28 0 -49 17.5t-21 52.5v350h-280q-113 0 -196.5 81t-83.5 199v210q0 28 21 52q21 18 49 18q27 0 48.5 -17.5t21.5 -52.5v-210q0 -59 40 -100q21 -18 45 -30
q30 -10 55 -10h280z" />
    <glyph glyph-name="oslash" unicode="&#xf8;" horiz-adv-x="1260" 
d="M700 140h280v770q0 28 21 52q21 18 49 18q26 0 49 -17q21 -18 21 -53v-840q0 -70 -70 -70h-630q-113 0 -196.5 81t-83.5 199v630q0 28 21 52q21 18 49 18q27 0 48.5 -17.5t21.5 -52.5v-630q0 -59 40 -100q21 -18 45 -30q30 -10 55 -10h140v770q0 28 21 52q21 18 49 18
q27 0 48.5 -17.5t21.5 -52.5v-770z" />
    <glyph glyph-name="oslash" unicode="&#x448;" horiz-adv-x="1260" 
d="M700 140h280v770q0 28 21 52q21 18 49 18q26 0 49 -17q21 -18 21 -53v-840q0 -70 -70 -70h-630q-113 0 -196.5 81t-83.5 199v630q0 28 21 52q21 18 49 18q27 0 48.5 -17.5t21.5 -52.5v-630q0 -59 40 -100q21 -18 45 -30q30 -10 55 -10h140v770q0 28 21 52q21 18 49 18
q27 0 48.5 -17.5t21.5 -52.5v-770z" />
    <glyph glyph-name="ugrave" unicode="&#xf9;" horiz-adv-x="1400" 
d="M700 140h280v770q0 28 21 52q21 18 49 18q26 0 49 -17q21 -18 21 -53v-770h70q70 0 70 -70v-140q0 -29 -21.5 -49.5t-48.5 -20.5q-24 0 -47 17.5t-23 52.5v70h-112h-588q-114 0 -197 81.5t-83 198.5v630q0 28 21 52q21 18 49 18q27 0 48.5 -17.5t21.5 -52.5v-630
q0 -59 40 -100q21 -18 45 -30q30 -10 55 -10h140v770q0 28 21 52q21 18 49 18q27 0 48.5 -17.5t21.5 -52.5v-770z" />
    <glyph glyph-name="ugrave" unicode="&#x449;" horiz-adv-x="1400" 
d="M700 140h280v770q0 28 21 52q21 18 49 18q26 0 49 -17q21 -18 21 -53v-770h70q70 0 70 -70v-140q0 -29 -21.5 -49.5t-48.5 -20.5q-24 0 -47 17.5t-23 52.5v70h-112h-588q-114 0 -197 81.5t-83 198.5v630q0 28 21 52q21 18 49 18q27 0 48.5 -17.5t21.5 -52.5v-630
q0 -59 40 -100q21 -18 45 -30q30 -10 55 -10h140v770q0 28 21 52q21 18 49 18q27 0 48.5 -17.5t21.5 -52.5v-770z" />
    <glyph glyph-name="uacute" unicode="&#xfa;" horiz-adv-x="1050" 
d="M350 420v-280h280q64 0 102 42.5t38 97.5q0 59 -34 97q-17 19 -44 31t-62 12h-280zM350 560h280q132 0 210 -87q70 -79 70 -193q0 -111 -69 -192q-79 -88 -211 -88h-350q-70 0 -70 70v770h-70q-32 0 -52 20q-18 21 -18 50q0 25 18.5 47.5t51.5 22.5h140q70 0 70 -70v-350
z" />
    <glyph glyph-name="uacute" unicode="&#x44a;" horiz-adv-x="1050" 
d="M350 420v-280h280q64 0 102 42.5t38 97.5q0 59 -34 97q-17 19 -44 31t-62 12h-280zM350 560h280q132 0 210 -87q70 -79 70 -193q0 -111 -69 -192q-79 -88 -211 -88h-350q-70 0 -70 70v770h-70q-32 0 -52 20q-18 21 -18 50q0 25 18.5 47.5t51.5 22.5h140q70 0 70 -70v-350
z" />
    <glyph glyph-name="ucircumflex" unicode="&#xfb;" horiz-adv-x="1120" 
d="M980 70q0 -33 -20 -53q-19 -17 -50 -17q-28 0 -49 17.5t-21 52.5v840q0 28 21 52q21 18 49 18q27 0 48.5 -17.5t21.5 -52.5v-840zM280 420v-280h140q64 0 102 42.5t38 97.5q0 59 -34 97q-17 19 -44 31t-62 12h-140zM280 560h140q132 0 210 -87q70 -79 70 -193
q0 -111 -69 -192q-79 -88 -211 -88h-210q-70 0 -70 70v840q0 28 21 52q21 18 49 18q27 0 48.5 -17.5t21.5 -52.5v-350z" />
    <glyph glyph-name="ucircumflex" unicode="&#x44b;" horiz-adv-x="1120" 
d="M980 70q0 -33 -20 -53q-19 -17 -50 -17q-28 0 -49 17.5t-21 52.5v840q0 28 21 52q21 18 49 18q27 0 48.5 -17.5t21.5 -52.5v-840zM280 420v-280h140q64 0 102 42.5t38 97.5q0 59 -34 97q-17 19 -44 31t-62 12h-140zM280 560h140q132 0 210 -87q70 -79 70 -193
q0 -111 -69 -192q-79 -88 -211 -88h-210q-70 0 -70 70v840q0 28 21 52q21 18 49 18q27 0 48.5 -17.5t21.5 -52.5v-350z" />
    <glyph glyph-name="udieresis" unicode="&#xfc;" 
d="M280 420v-280h280q64 0 102 42.5t38 97.5q0 59 -34 97q-17 19 -44 31t-62 12h-280zM280 560h280q132 0 210 -87q70 -79 70 -193q0 -111 -69 -192q-79 -88 -211 -88h-350q-70 0 -70 70v840q0 28 21 52q21 18 49 18q27 0 48.5 -17.5t21.5 -52.5v-350z" />
    <glyph glyph-name="udieresis" unicode="&#x44c;" 
d="M280 420v-280h280q64 0 102 42.5t38 97.5q0 59 -34 97q-17 19 -44 31t-62 12h-280zM280 560h280q132 0 210 -87q70 -79 70 -193q0 -111 -69 -192q-79 -88 -211 -88h-350q-70 0 -70 70v840q0 28 21 52q21 18 49 18q27 0 48.5 -17.5t21.5 -52.5v-350z" />
    <glyph glyph-name="yacute" unicode="&#xfd;" 
d="M700 420h-210q-32 0 -52 20q-18 21 -18 50q0 25 18.5 47.5t51.5 22.5h210v140q0 59 -39.5 99.5t-100.5 40.5h-350q-32 0 -52 20q-18 21 -18 50q0 25 18.5 47.5t51.5 22.5h350q114 0 197 -81.5t83 -198.5v-420q0 -115 -82 -197.5t-198 -82.5h-350q-32 0 -52 20
q-18 21 -18 50q0 25 18.5 47.5t51.5 22.5h350q58 0 99 39t41 101v140z" />
    <glyph glyph-name="yacute" unicode="&#x44d;" 
d="M700 420h-210q-32 0 -52 20q-18 21 -18 50q0 25 18.5 47.5t51.5 22.5h210v140q0 59 -39.5 99.5t-100.5 40.5h-350q-32 0 -52 20q-18 21 -18 50q0 25 18.5 47.5t51.5 22.5h350q114 0 197 -81.5t83 -198.5v-420q0 -115 -82 -197.5t-198 -82.5h-350q-32 0 -52 20
q-18 21 -18 50q0 25 18.5 47.5t51.5 22.5h350q58 0 99 39t41 101v140z" />
    <glyph glyph-name="thorn" unicode="&#xfe;" horiz-adv-x="1120" 
d="M840 238v504q0 39 -29 68q-27 30 -69 30h-84q-38 0 -68 -29q-30 -27 -30 -69v-504q0 -41 28 -70q15 -13 33 -21q21 -7 37 -7h84q42 0 70 28t28 70zM280 560h140v182q0 99 69.5 168.5t168.5 69.5h84q97 0 167.5 -68.5t70.5 -169.5v-504q0 -99 -69.5 -168.5t-168.5 -69.5
h-84q-97 0 -167.5 69.5t-70.5 168.5v182h-140v-350q0 -33 -20 -53q-19 -17 -50 -17q-28 0 -49 17.5t-21 52.5v840q0 28 21 52q21 18 49 18q27 0 48.5 -17.5t21.5 -52.5v-350z" />
    <glyph glyph-name="thorn" unicode="&#x44e;" horiz-adv-x="1120" 
d="M840 238v504q0 39 -29 68q-27 30 -69 30h-84q-38 0 -68 -29q-30 -27 -30 -69v-504q0 -41 28 -70q15 -13 33 -21q21 -7 37 -7h84q42 0 70 28t28 70zM280 560h140v182q0 99 69.5 168.5t168.5 69.5h84q97 0 167.5 -68.5t70.5 -169.5v-504q0 -99 -69.5 -168.5t-168.5 -69.5
h-84q-97 0 -167.5 69.5t-70.5 168.5v182h-140v-350q0 -33 -20 -53q-19 -17 -50 -17q-28 0 -49 17.5t-21 52.5v840q0 28 21 52q21 18 49 18q27 0 48.5 -17.5t21.5 -52.5v-350z" />
    <glyph glyph-name="ydieresis" unicode="&#xff;" 
d="M700 560v280h-280q-59 0 -104 -42q-36 -41 -36 -98q0 -53 36.5 -96.5t103.5 -43.5h280zM528 420l-259 -389q-8 -13 -27 -25l-31 -7q-22 0 -49 21q-23 21 -23 50q0 18 12 39l210 315q-103 15 -162 97t-59 179q0 113 70 192q79 88 210 88h350q70 0 70 -70v-840
q0 -33 -20 -53q-19 -17 -50 -17q-28 0 -49 17.5t-21 52.5v350h-172z" />
    <glyph glyph-name="ydieresis" unicode="&#x44f;" 
d="M700 560v280h-280q-59 0 -104 -42q-36 -41 -36 -98q0 -53 36.5 -96.5t103.5 -43.5h280zM528 420l-259 -389q-8 -13 -27 -25l-31 -7q-22 0 -49 21q-23 21 -23 50q0 18 12 39l210 315q-103 15 -162 97t-59 179q0 113 70 192q79 88 210 88h350q70 0 70 -70v-840
q0 -33 -20 -53q-19 -17 -50 -17q-28 0 -49 17.5t-21 52.5v350h-172z" />
    <glyph glyph-name="c274" unicode="&#x120;" horiz-adv-x="420" 
d="M279 53l-70 -283q-12 -53 -68 -53q-31 0 -51 20q-21 17 -21 49l2 18l70 283q12 53 68 53q30 0 50 -20q22 -19 22 -49z" />
    <glyph glyph-name="c275" unicode="&#x121;" horiz-adv-x="700" 
d="M557 53l-70 -278q-3 -20 -22.5 -36t-43.5 -16t-50 18q-21 18 -21 49l3 18l70 279q3 23 22.5 37.5t43.5 14.5q27 0 49 -19t22 -49zM277 53l-70 -278q-3 -20 -22.5 -36t-43.5 -16t-50 18q-21 18 -21 49l3 18l70 279q3 23 22.5 37.5t43.5 14.5q27 0 49 -19t22 -49z" />
    <glyph glyph-name="c276" unicode="&#x122;" horiz-adv-x="1540" 
d="M441 111q0 50 -32 81q-32 29 -77 29q-42 0 -76.5 -28.5t-34.5 -81.5q0 -51 32.5 -81.5t78.5 -30.5q42 0 77 29q32 29 32 83zM882 111q0 50 -32 81q-32 29 -77 29q-42 0 -76.5 -28.5t-34.5 -81.5q0 -51 32.5 -81.5t78.5 -30.5q42 0 77 29q32 29 32 83zM1323 111
q0 50 -32 81q-34 29 -77 29q-42 0 -76.5 -28.5t-34.5 -81.5q0 -51 32 -81.5t79 -30.5q42 0 77 29q32 29 32 83z" />
    <glyph glyph-name="c277" unicode="&#x123;" horiz-adv-x="1400" 
d="M1258 517q0 -88 -76 -163t-171 -75q-32 0 -67 9q-17 5 -31 13q-10 3 -16 8l-18 12l-437 291q-35 19 -61 19q-45 0 -76 -32q-25 -28 -25 -75q0 -18 6 -36t21 -33q14 -17 60 -32q54 -12 54 -67q0 -28 -18.5 -50.5t-51.5 -22.5l-18 3q-81 18 -126.5 67t-66.5 155l-1 25
q0 91 71 166t172 75q37 0 67 -10q39 -8 72 -35l437 -291q29 -18 58 -18q42 0 72 30t30 67q0 43 -15.5 69t-54.5 37q-38 9 -54 29q-14 20 -14 42q0 28 20 49q18 23 48 23l16 -2q104 -21 155 -93q17 -25 29 -68l7 -39z" />
    <glyph glyph-name="c278" unicode="&#x124;" horiz-adv-x="2940" 
d="M1960 322q0 -150 -101 -242q-88 -80 -221 -80q-129 0 -221 80q-101 87 -101 242q0 150 101 241q92 81 221 81t221 -80q101 -87 101 -242zM1529 1291l-840 -1260q-8 -13 -27 -25l-31 -7q-22 0 -49 21q-23 21 -23 50q0 18 12 39l840 1260q9 14 25 24l15 6l17 2q27 0 51 -21
q22 -22 22 -50q0 -18 -12 -39zM784 1078q0 -150 -101 -242q-88 -80 -221 -80q-129 0 -221 80q-101 87 -101 242q0 150 101 241q92 81 221 81t221 -80q101 -87 101 -242zM1820 322q0 81 -55 131.5t-127 50.5q-69 0 -125 -45q-57 -50 -57 -137q0 -84 56 -136q52 -46 126 -46
q70 0 124 45q58 50 58 137zM644 1078q0 81 -53 133q-55 49 -129 49q-69 0 -125 -45q-57 -50 -57 -137q0 -84 56 -136q52 -46 126 -46q72 0 127 47.5t55 134.5zM2800 322q0 -150 -101 -242q-88 -80 -221 -80q-129 0 -221 80q-101 87 -101 242q0 150 101 241q92 81 221 81
t221 -80q101 -87 101 -242zM2660 322q0 81 -55 131.5t-127 50.5q-69 0 -125 -45q-57 -50 -57 -137q0 -84 56 -136q52 -46 126 -46q70 0 124 45q58 50 58 137z" />
    <glyph glyph-name="c279" unicode="&#x125;" 
d="M490 588l231 231q21 21 48 21q26 0 48.5 -21.5t22.5 -49.5q0 -24 -21 -48l-231 -231l231 -231q21 -21 21 -48q0 -26 -22 -48.5t-49 -22.5q-24 0 -48 21l-231 231l-231 -231q-21 -21 -48 -21q-25 0 -49 21q-22 22 -22 50q0 24 21 48l231 231l-231 231q-21 21 -21 48
q0 25 21 48t50 23q24 0 48 -21z" />
    <glyph glyph-name="c280" unicode="&#x126;" horiz-adv-x="420" 
d="M140 700q0 29 20.5 49.5t49.5 20.5q23 0 46.5 -20.5t23.5 -49.5q0 -25 -20.5 -47.5t-49.5 -22.5q-30 0 -51 21q-19 22 -19 49z" />
    </font>
</defs>
</svg>
